<ttFont>
          <CharString index="0">
            rmoveto
            19 -118 9 -104 -110 vvcurveto
            -31 0 -31 -2 -33 vhcurveto
            -14 -21 -31 -14 -66 hhcurveto
            -65 -40 21 17 -19 hvcurveto
            1 132 14 140 27 145 rrcurveto
            -269 hlineto
            -10 -96 -5 -77 -76 vvcurveto
            -66 4 -65 9 -75 vhcurveto
            -45 80 105 -22 127 hhcurveto
            93 91 25 42 65 hvcurveto
            11 97 5 105 103 vvcurveto
            51 -1 50 -3 49 vhcurveto
            return
          </CharString>
          <CharString index="1">
            602 498 rmoveto
            18 -77 -67 7 -61 hhcurveto
            -247 -112 -131 -138 -109 69 -113 124 -53 hvcurveto
            23 hlineto
            171 95 64 60 77 hvcurveto
            -1 46 -1 39 -3 37 -50 -62 -52 -48 -64 -42 rrcurveto
            -85 51 -53 70 117 vvcurveto
            36 4 41 11 46 vhcurveto
            7 29 27 4 26 hhcurveto
            21 20 -2 -4 23 hvcurveto
            -4 -21 -6 -25 -7 -20 rrcurveto
            42 46 2 4 42 hvcurveto
            14 33 17 51 9 35 rrcurveto
            return
          </CharString>
          <CharString index="2">
            527 -57 callgsubr
            27 -100 6 -81 -87 vvcurveto
            -85 56 -111 113 -57 99 rrcurveto
            -284 hlineto
            27 -55 14 -19 22 -33 rrcurveto
            7 -43 3 -51 -54 vvcurveto
            -79 -7 -86 -13 -80 vhcurveto
            117 hlineto
            3 45 2 46 43 vvcurveto
            55 -3 52 -5 42 vhcurveto
            85 -94 129 -113 142 -76 rrcurveto
            96 hlineto
            6 97 4 96 97 vvcurveto
            70 -2 70 -4 70 vhcurveto
            return
          </CharString>
          <CharString index="3">
            -20 -54 -32 -43 -51 -33 -33 callgsubr
            60 28 59 30 29 58 rrcurveto
            return
          </CharString>
          <CharString index="4">
            12 57 30 40 62 18 rrcurveto
            -1 -31 -1 -31 -31 vvcurveto
            -115 10 -115 24 -112 vhcurveto
            218 hlineto
            -5 48 -3 50 49 vvcurveto
            95 10 96 16 97 vhcurveto
            return
          </CharString>
          <CharString index="5">
            -20 hstem
            36 236 503 231 vstem
            234 -57 callgsubr
            20 -27 18 -27 17 -28 -42 -77 -99 -70 -92 -27 rrcurveto
            -12 -41 -8 -55 -57 vvcurveto
            -30 2 -32 5 -29 vhcurveto
            243 hlineto
            -10 38 -4 37 37 vvcurveto
            82 22 79 32 75 vhcurveto
            51 -104 32 -114 17 -130 rrcurveto
            196 hlineto
            6 143 37 104 51 100 34 -108 21 -129 4 -110 rrcurveto
            231 hlineto
            -1 144 -19 217 -52 139 rrcurveto
            -285 hlineto
            5 -12 3 -16 -18 vvcurveto
            -51 -20 -71 -30 -56 vhcurveto
            -12 77 -18 74 -27 73 rrcurveto
            return
          </CharString>
          <CharString index="6">
            1 -95 -64 79 -149 hhcurveto
            -8 hlineto
            -23 -43 -21 -42 -15 -43 rrcurveto
            20 32 29 -22 callgsubr
            -49 -9 111 hvcurveto
            111 21 115 70 63 82 -16 89 -78 79 -47 32 -89 60 -91 16 -61 103 rrcurveto
            return
          </CharString>
          <CharString index="7">
            322 65 rmoveto
            58 3 59 6 59 vhcurveto
            54 -35 35 -50 13 -80 rrcurveto
            -8 -31 -41 -3 -39 hhcurveto
            -233 435 rmoveto
            -13 -65 -6 -68 -67 vvcurveto
            -107 15 -106 25 -87 vhcurveto
            503 hlineto
            21 56 16 66 6 61 -51 54 -60 34 -73 26 78 39 63 68 31 96 rrcurveto
            -305 -190 rmoveto
            6 39 7 40 8 40 rrcurveto
            4 40 43 1 47 hhcurveto
            -26 -67 -65 -41 -60 -16 rrcurveto
            return
          </CharString>
          <CharString index="8">
            -89 callsubr
            hintmask 11011000
            -103 callsubr
            return
          </CharString>
          <CharString index="9">
            -20 hstem
            294 145 rmoveto
            111 12 122 31 96 43 -2 115 -9 73 -21 81 rrcurveto
            -542 hlineto
            -8 -52 -3 -55 -55 vvcurveto
            -120 16 -121 25 -97 vhcurveto
            220 hlineto
            -3 41 -2 42 42 7 0 6 7 vvcurveto
            1 69 rmoveto
            3 73 6 73 12 74 41 -48 35 -73 10 -67 -23 -13 -51 -15 -33 -4 rrcurveto
            return
          </CharString>
          <CharString index="10">
            -68 -16 -35 -19 -54 -9 callgsubr
            -24 4 6 -31 hvcurveto
            1 32 2 33 3 33 rrcurveto
            42 19 21 11 25 hhcurveto
            return
          </CharString>
          <CharString index="11">
            -20 hstem
            199 249 vstem
            192 -45 rmoveto
            -62 21 -51 27 -68 49 -3 -38 -2 -42 -1 -42 64 -25 63 -13 91 -7 63 29 71 26 63 60 rrcurveto
            19 116 9 136 131 vvcurveto
            39 0 40 -2 38 vhcurveto
            -270 hlineto
            15 -125 8 -126 -119 vvcurveto
            -61 -2 -58 -5 -56 vhcurveto
            return
          </CharString>
          <CharString index="12">
            -20 hstem
            63 241 vstem
            421 225 rmoveto
            75 15 69 22 56 30 rrcurveto
            12 1 11 11 vvcurveto
            57 -7 47 -16 70 vhcurveto
            -522 hlineto
            -9 -68 -5 -70 -69 vvcurveto
            -99 10 -99 19 -95 vhcurveto
            218 hlineto
            -4 47 -2 46 47 vvcurveto
            16 0 16 1 17 vhcurveto
            58 -24 44 -72 13 -93 rrcurveto
            259 hlineto
            -11 84 -26 68 -34 50 rrcurveto
            -21 hlineto
            -56 -50 7 16 -60 hvcurveto
            -95 208 rmoveto
            35 -44 22 -36 15 -54 -24 -21 -32 -13 -34 -5 4 56 6 58 8 59 rrcurveto
            return
          </CharString>
          <CharString index="13">
            8 callgsubr
            48 15 55 -11 41 27 -19 -44 -15 -29 -22 -33 rrcurveto
            -5 -21 -20 -3 -20 hhcurveto
            -13 -13 1 2 -14 hvcurveto
            -66 -79 -32 -140 -23 -111 -29 -138 -51 -232 -72 -144 -36 -11 -45 -10 -43 -8 81 139 52 153 29 105 rrcurveto
            -207 hlineto
            -50 162 -30 169 -2 169 rrcurveto
            292 hlineto
            -14 -62 -7 -61 -61 vvcurveto
            -84 13 -85 21 -83 vhcurveto
            60 228 37 217 135 47 rrcurveto
            return
          </CharString>
          <CharString index="14">
            616 556 -106 callgsubr
            return
          </CharString>
          <CharString index="15">
            555 rmoveto
            -77 -28 -56 -79 -53 -60 -26 40 -21 36 -17 36 rrcurveto
            -311 hlineto
            93 -87 75 -94 65 -102 -97 -124 -96 -136 -58 -104 38 9 40 8 37 9 40 81 63 102 68 97 29 -51 27 -53 26 -55 rrcurveto
            249 hlineto
            -72 151 -67 104 -54 84 43 49 46 50 53 38 rrcurveto
            -2 14 13 -1 13 hhcurveto
            20 20 3 5 20 hvcurveto
            22 33 16 28 19 44 -41 -27 -55 11 -48 -15 rrcurveto
            endchar
          </CharString>
          <CharString index="16">
            68 -47 callsubr
            81 246 vstem
            437 -57 callgsubr
            5 -56 2 -58 -57 vvcurveto
            -35 19 -38 17 -42 13 rrcurveto
            40 0 41 -2 41 -8 callgsubr
            12 -86 6 -98 -96 vvcurveto
            -77 -4 -75 -9 -68 -16 callgsubr
            17 95 11 97 4 101 37 -4 48 -16 31 -19 -3 -89 -7 -86 -11 -79 rrcurveto
            239 hlineto
            23 134 15 138 145 vvcurveto
            27 -1 28 -1 28 vhcurveto
            endchar
          </CharString>
          <CharString index="17">
            3 53 73 20 55 hhcurveto
            28 25 -7 -17 14 hvcurveto
            -72 93 rlineto
            5 -15 -13 2 -12 hhcurveto
            -31 -24 -13 -5 -32 hvcurveto
            75 60 50 85 98 vvcurveto
            64 -22 69 -51 64 vhcurveto
            17 -55 -57 7 -52 hhcurveto
            -210 -146 -127 -164 -72 28 -79 61 -78 hvcurveto
            152 432 rmoveto
            93 -47 52 -101 -96 vvcurveto
            -53 -15 -50 -32 -41 vhcurveto
            -84 41 -50 102 103 vvcurveto
            50 11 49 25 43 vhcurveto
            return
          </CharString>
          <CharString index="18">
            101 -6 22 60 12 55 12 65 rlinecurve
            -665 hlineto
            -36 -174 99 -6 rlineto
            return
          </CharString>
          <CharString index="19">
            rmoveto
            -111 -14 29 -58 59 -30 60 -28 rlinecurve
            66 hlineto
            -51 33 -32 43 -20 54 rrcurveto
            endchar
          </CharString>
          <CharString index="20">
            -34 1 -33 -82 callsubr
            return
          </CharString>
          <CharString index="21">
            -1 19 19 -1 19 13 14 1 14 -55 callsubr
            return
          </CharString>
          <CharString index="22">
            rmoveto
            -28 -27 -32 -19 -40 hhcurveto
            hintmask 11001111
            -46 -12 22 -51 hhcurveto
            -24 -28 -20 -17 -14 hvcurveto
            -13 -40 rlineto
            18 16 22 15 28 hhcurveto
            hintmask 11100111
            36 24 -41 52 hhcurveto
            88 -2 58 52 23 hvcurveto
            endchar
          </CharString>
          <CharString index="23">
            402 -57 callgsubr
            11 -51 6 -49 -46 vvcurveto
            -82 -18 -73 -33 -56 vhcurveto
            -53 106 -25 126 -10 125 rrcurveto
            -266 hlineto
            25 -171 75 -191 104 -138 rrcurveto
            251 hlineto
            return
          </CharString>
          <CharString index="24">
            -95 -195 21 73 50 28 67 -67 155 243 148 -146 146 -67 67 hstemhm
            hintmask 11100100
            112 499 rmoveto
            -17 -28 -23 -45 -17 -39 49 -178 170 -58 75 -96 rrcurveto
            -7 -36 -48 -4 -42 hhcurveto
            -48 -26 13 35 12 3 15 6 18 hvcurveto
            hintmask 11010010
            -110 -5 -11 -32 -11 -56 -7 -43 rlinecurve
            -16 60 92 -8 91 hhcurveto
            -32 -93 rlineto
            6 16 19 9 11 hhcurveto
            19 13 -10 -16 -21 -19 -26 -44 hvcurveto
            6 -21 rlineto
            78 2 48 55 48 vvcurveto
            5 vlineto
            21 -3 -24 13 -21 -14 -16 -7 -13 hhcurveto
            12 35 77 2 73 8 47 14 rlinecurve
            32 61 18 52 13 69 -108 142 -147 -19 -83 139 rrcurveto
            8 31 36 3 41 hhcurveto
            49 29 -6 -35 hvcurveto
            hintmask 11101000
            -10 -3 -14 -5 -16 vhcurveto
            110 5 10 31 9 48 7 40 rlinecurve
            17 -76 -73 7 -75 hhcurveto
            -69 -68 -8 -16 -61 hvcurveto
            endchar
          </CharString>
          <CharString index="25">
            2 -35 3 rrcurveto
            179 hmoveto
            -27 callsubr
            -13 -33 rrcurveto
            return
          </CharString>
          <CharString index="26">
            102 -147 -21 189 -21 320 180 -66 66 hstemhm
            208 245 84 221 hintmask 11011100
            478 434 rmoveto
            49 38 -22 -53 -10 -1 -10 -3 -12 hvcurveto
            hintmask 11101100
            36 -3 30 -2 36 -2 21 60 12 54 12 66 rrcurveto
            -664 hlineto
            -36 -173 31 -3 37 -2 31 -2 rlinecurve
            hintmask 11011100
            12 57 29 40 62 17 rrcurveto
            -1 -31 -1 -31 -31 vvcurveto
            -115 10 -113 24 -113 vhcurveto
            218 hlineto
            -5 48 -2 49 49 vvcurveto
            25 1 26 1 26 vhcurveto
            31 -3 25 -11 23 -12 rrcurveto
            2 -27 1 -26 -26 vvcurveto
            -81 -9 -77 -16 -58 vhcurveto
            -34 17 -42 29 -42 38 rrcurveto
            -3 -37 -2 -31 -42 vvcurveto
            51 -20 37 -11 59 -13 66 25 63 31 62 43 rrcurveto
            23 67 8 86 81 14 -1 15 14 vvcurveto
            -93 48 -82 23 -122 14 4 46 6 48 8 47 rrcurveto
            endchar
          </CharString>
          <CharString index="27">
            382 -112 177 -174 174 -159 -21 115 65 435 -20 hstemhm
            46 248 105 246 hintmask 00111110
            825 hmoveto
            51 32 -20 -42 hvcurveto
            hintmask 01001110
            -13 -3 -16 -7 -18 vhcurveto
            hintmask 00111110
            110 -6 rlineto
            hintmask 10001110
            21 60 13 55 12 65 -30 1 -31 2 -25 2 rrcurveto
            17 111 10 114 118 vvcurveto
            28 -1 30 -1 29 vhcurveto
            -260 hlineto
            5 -59 3 -62 -61 vvcurveto
            -86 -5 -86 -9 -81 vhcurveto
            -33 -57 4 7 -30 hvcurveto
            22 109 16 136 122 vvcurveto
            19 0 20 -1 18 vhcurveto
            -263 hlineto
            11 -85 7 -96 -94 vvcurveto
            -54 -2 -55 -5 -51 vhcurveto
            -33 -57 4 7 -30 hvcurveto
            15 104 7 106 111 vvcurveto
            34 -1 35 -1 34 -8 callgsubr
            11 -85 7 -97 -94 vvcurveto
            hintmask 00111110
            6 callgsubr
            endchar
          </CharString>
          <CharString index="28">
            -74 callsubr
            endchar
          </CharString>
          <CharString index="29">
            -10 -1 -10 -3 -12 vhcurveto
            -89 callsubr
            return
          </CharString>
          <CharString index="30">
            71 -112 179 -178 177 -160 -21 115 67 433 -20 hstemhm
            69 217 hintmask 10001100
            6 77 rmoveto
            hintmask 01001100
            6 -42 20 -107 12 -39 41 -2 8 0 41 -1 rrcurveto
            -1 8 0 7 8 vvcurveto
            hintmask 00111100
            56 24 35 60 vhcurveto
            294 hlineto
            51 32 -20 -42 -13 -3 -16 -7 -18 hvcurveto
            110 -6 rlineto
            hintmask 01001100
            21 60 13 56 12 65 -68 3 rcurveline
            -7 157 -33 151 -58 123 rrcurveto
            -331 hlineto
            21 -24 19 -26 17 -27 -39 -78 -78 -73 -95 -28 rrcurveto
            -14 -46 -5 -60 -65 vvcurveto
            -21 1 -21 1 -21 2 rrcurveto
            333 279 rmoveto
            45 -87 29 -96 13 -107 -48 1 -40 3 -48 7 rrcurveto
            -3 18 -1 18 18 vvcurveto
            75 22 77 31 73 vhcurveto
            endchar
          </CharString>
          <CharString index="31">
            289 -1 -21 43 -69 callsubr
            -20 43 -20 hstem
            54 247 66 201 176 203 vstem
            454 2 rmoveto
            -15 46 47 -9 42 hhcurveto
            202 156 155 169 65 -22 68 -49 63 hvcurveto
            16 -54 -55 9 -51 hhcurveto
            -150 -156 -79 -151 -35 hvcurveto
            3 -23 -26 1 -26 hhcurveto
            1 30 0 31 30 vvcurveto
            37 0 37 -2 38 -8 callgsubr
            12 -86 7 -97 -95 vvcurveto
            -77 -5 -77 -9 -68 -16 callgsubr
            13 74 10 76 6 77 rrcurveto
            1 22 26 0 23 hhcurveto
            1 -69 27 -81 59 -76 rrcurveto
            149 428 rmoveto
            91 -46 50 -99 -94 vvcurveto
            -51 -15 -50 -30 -39 vhcurveto
            -82 39 -49 100 101 vvcurveto
            48 11 49 24 42 vhcurveto
            endchar
          </CharString>
          <CharString index="32">
            29 -174 38 114 67 455 -20 hstem
            72 242 13 65 166 104 vstem
            423 -136 rmoveto
            -16 -15 12 28 29 13 25 17 21 hvcurveto
            84 4 81 24 59 38 rrcurveto
            11 97 5 105 103 vvcurveto
            51 -1 50 -3 49 vhcurveto
            -128 hlineto
            19 -118 9 -104 -110 vvcurveto
            -31 0 -31 -2 -33 vhcurveto
            -14 -21 -31 -14 -66 hhcurveto
            -65 -40 21 17 -19 hvcurveto
            1 132 14 140 27 145 rrcurveto
            -269 hlineto
            -10 -96 -5 -77 -76 vvcurveto
            -66 4 -65 9 -75 vhcurveto
            74 -42 95 -22 115 -3 rrcurveto
            -23 -21 -19 -29 -34 -38 callsubr
          </CharString>
          <CharString index="33">
            90 115 rlineto
            -32 hlineto
            -83 -62 -82 62 rlineto
            -32 hlineto
            return
          </CharString>
          <CharString index="34">
            103 21 -69 callsubr
            -20 58 55 hstem
            89 247 vstem
            292 569 rmoveto
            8 -5 rlineto
            -13 21 25 -13 44 hhcurveto
            5 hlineto
            -90 callgsubr
            -2 -577 rmoveto
            63 76 75 94 46 72 -5 -85 -10 -82 -11 -75 rrcurveto
            239 hlineto
            23 131 15 137 142 vvcurveto
            30 -1 30 -1 30 vhcurveto
            -259 hlineto
            6 -43 4 -44 1 -44 -40 -63 -58 -68 -45 -41 rrcurveto
            11 79 7 87 81 vvcurveto
            19 0 19 -1 18 -8 callgsubr
            12 -85 6 -96 -94 vvcurveto
            -79 -4 -77 -9 -69 vhcurveto
            endchar
          </CharString>
          <CharString index="35">
            95 21 -69 callsubr
            -20 107 63 5 -20 hstemhm
            -11 callsubr
            hintmask 11101000
            82 -52 callsubr
            hintmask 11011000
            75 vlineto
            hintmask 11101000
            -3 -102 -78 -2 -102 hhcurveto
            hintmask 11011000
            -93 -94 2 3 -94 hvcurveto
            177 -155 -107 callgsubr
            endchar
          </CharString>
          <CharString index="36">
            -53 21 -21 191 93 -72 72 59 156 -154 154 -65 65 hstemhm
            66 234 hintmask 11000110
            315 247 rmoveto
            9 61 12 61 15 60 rrcurveto
            4 22 20 1 17 hhcurveto
            47 26 -14 -34 hvcurveto
            hintmask 10110010
            -12 -3 -14 -6 -17 vhcurveto
            108 5 12 38 13 72 7 41 rlinecurve
            -534 -3 callsubr
            -100 7 -2 callgsubr
            -1 19 -1 21 20 vvcurveto
            34 2 33 3 34 vhcurveto
            39 18 19 12 26 hhcurveto
            hintmask 11001010
            31 36 -21 37 hhcurveto
            9 hlineto
            47 88 rlineto
            -1 -7 -6 0 -7 -31 -33 6 -31 hhcurveto
            -34 -38 -13 -24 -26 hvcurveto
            endchar
          </CharString>
          <CharString index="37">
            78 -112 177 -174 174 -159 -21 115 65 435 -20 hstemhm
            69 248 hintmask 00111100
            515 hmoveto
            52 32 -20 -42 hvcurveto
            hintmask 01001100
            -13 -3 -16 -7 -18 vhcurveto
            hintmask 00111100
            110 -6 rlineto
            hintmask 10001100
            21 60 13 55 11 65 -29 1 -31 2 -25 2 rrcurveto
            17 111 10 114 119 vvcurveto
            28 -1 29 -1 29 vhcurveto
            -260 hlineto
            5 -59 3 -60 -60 vvcurveto
            -88 -6 -87 -9 -81 vhcurveto
            -33 -59 4 7 -30 hvcurveto
            15 104 7 107 4 callgsubr
            11 -85 7 -96 -95 vvcurveto
            hintmask 00111100
            6 callgsubr
            endchar
          </CharString>
          <CharString index="38">
            -21 500 return
          </CharString>
          <CharString index="39">
            401 0 66 434 -20 hstem
            72 248 105 247 vstem
            760 -57 callgsubr
            5 -58 2 -59 -59 vvcurveto
            -89 -5 -87 -9 -82 vhcurveto
            -33 -56 4 6 -30 hvcurveto
            23 111 15 139 123 vvcurveto
            17 0 17 -1 17 -8 callgsubr
            12 -85 6 -97 -94 vvcurveto
            -54 -2 -53 -4 -51 vhcurveto
            -33 -58 4 7 -30 hvcurveto
            15 104 7 106 4 callgsubr
            12 -86 6 -97 -96 vvcurveto
            -77 -4 -76 -9 -68 vhcurveto
            925 hlineto
            23 133 15 143 141 vvcurveto
            27 -1 26 -1 30 vhcurveto
            endchar
          </CharString>
          <CharString index="40">
            292 -47 callsubr
            269 114 vstem
            638 330 rmoveto
            4 59 8 58 9 53 rrcurveto
            -247 hlineto
            -6 -23 -6 -27 -4 -30 -94 -86 -126 -57 -117 -33 -21 -66 -17 -105 -6 -73 rrcurveto
            260 hlineto
            -4 21 -2 23 24 vvcurveto
            87 30 99 86 55 vhcurveto
            -1 -22 -1 -22 -23 vvcurveto
            -87 8 -88 6 callsubr
            23 84 6 60 2 98 -93 47 -95 27 -122 14 rrcurveto
            -2 -69 rmoveto
            34 -3 32 -11 24 -13 -8 1 callgsubr
          </CharString>
          <CharString index="41">
            rmoveto
            -103 -236 -110 -233 -131 -232 rrcurveto
            48 30 7 11 45 hvcurveto
            10 2 104 236 110 234 131 231 rlinecurve
            -53 -30 -7 -13 -51 hvcurveto
            endchar
          </CharString>
          <CharString index="42">
            34 21 -21 435 65 hstemhm
            315 250 rmoveto
            49 -39 42 -51 11 -83 rrcurveto
            -9 -35 -42 -2 -35 hhcurveto
            61 3 61 7 62 vhcurveto
            -243 250 rmoveto
            -13 -64 -6 -67 -65 vvcurveto
            -109 16 -107 25 -88 vhcurveto
            167 168 0 167 hhcurveto
            23 69 13 77 7 74 -77 51 -117 33 -122 15 6 37 6 37 8 36 rrcurveto
            5 55 61 1 53 hhcurveto
            hintmask 11000000
            -1 -19 -5 -22 -6 -19 48 1 43 2 48 1 14 39 10 41 8 41 rrcurveto
            -200 -199 0 -200 hhcurveto
            endchar
          </CharString>
          <CharString index="43">
            -1 -34 -6 -35 -16 callsubr
            -4 22 39 -2 35 hhcurveto
            -21 -10 -30 -13 -22 vhcurveto
            15 -4 16 -3 16 -2 34 52 25 66 11 61 rrcurveto
            -60 -52 1 10 -56 hvcurveto
            return
          </CharString>
          <CharString index="44">
            10 callgsubr
            -34 rrcurveto
            hintmask 10000000
            -4 26 49 -2 41 hhcurveto
            14 14 9 callsubr
            33 -42 callsubr
            hintmask 01000000
            -57 -54 0 10 -57 hvcurveto
            return
          </CharString>
          <CharString index="45">
            103 -47 callsubr
            89 247 vstem
            276 hmoveto
            63 76 75 94 46 72 -5 -85 -10 -82 -11 -75 rrcurveto
            77 86 0 76 hhcurveto
            23 131 15 137 142 vvcurveto
            30 -1 30 -1 30 vhcurveto
            -88 -84 0 -87 hhcurveto
            6 -43 4 -44 1 -44 -40 -63 -58 -68 -45 -41 rrcurveto
            11 79 7 87 81 vvcurveto
            19 0 19 -1 18 vhcurveto
            -88 -88 0 -88 hhcurveto
            12 -85 6 -96 -94 vvcurveto
            -79 -4 -77 -9 -69 vhcurveto
            66 67 0 67 hhcurveto
            endchar
          </CharString>
          <CharString index="46">
            53 5 callsubr
            296 109 0 246 hintmask 11100000
            409 218 rmoveto
            -77 16 -36 93 173 vvcurveto
            -255 hlineto
            14 -119 29 -113 47 -105 rrcurveto
            5 40 39 2 35 hhcurveto
            76 63 -11 -21 33 hvcurveto
            5 -46 8 -47 9 -45 rrcurveto
            219 hlineto
            hintmask 11010000
            -5 48 -2 49 49 vvcurveto
            116 13 118 24 120 vhcurveto
            -276 hlineto
            -5 -54 -2 -54 -54 vvcurveto
            -40 1 -40 3 -40 vhcurveto
            endchar
          </CharString>
          <CharString index="47">
            21 -69 callsubr
            -20 95 -43 callsubr
            hintmask 11010100
            71 500 -91 callgsubr
            185 vmoveto
            -28 -27 -32 -19 -40 hhcurveto
            hintmask 11001100
            -46 -12 22 -51 hhcurveto
            -24 -28 -20 -17 -14 hvcurveto
            -13 -40 rlineto
            18 16 22 15 28 hhcurveto
            hintmask 11100100
            36 24 -41 52 hhcurveto
            88 -2 58 52 23 hvcurveto
            endchar
          </CharString>
          <CharString index="48">
            rmoveto
            -104 callsubr
            return
          </CharString>
          <CharString index="49">
            -174 38 157 -69 callsubr
            -20 hstem
            114 65 vstem
            210 -136 rmoveto
            -16 -15 12 28 40 25 34 27 22 hvcurveto
            77 hlineto
            25 158 8 158 157 vvcurveto
            27 -270 vlineto
            9 -94 7 -94 -90 vvcurveto
            -79 -5 -75 -14 -68 vhcurveto
            115 -56 callsubr
          </CharString>
          <CharString index="50">
            -3 -21 -6 -25 -7 -21 42 1 47 2 42 3 14 33 16 51 9 36 rrcurveto
            return
          </CharString>
          <CharString index="51">
            hlineto
            -31 -21 -38 -38 -47 -38 callsubr
          </CharString>
          <CharString index="52">
            hhcurveto
            -49 callsubr
            return
          </CharString>
          <CharString index="53">
            31 5 callsubr
            281 148 0 242 hintmask 11010000
            471 hmoveto
            -26 27 -11 26 23 vvcurveto
            71 103 55 100 43 vhcurveto
            23 56 11 76 79 vvcurveto
            15 0 14 -1 15 vhcurveto
            -267 hlineto
            17 -56 9 -53 -50 vvcurveto
            -72 -18 -66 -36 -60 vhcurveto
            hintmask 11100000
            -55 107 -36 128 -3 122 rrcurveto
            -273 hlineto
            26 -171 69 -180 117 -149 rrcurveto
            endchar
          </CharString>
          <CharString index="54">
            21 -69 callsubr
            -20 108 62 5 -20 hstemhm
            hintmask 11100000
            7 581 rmoveto
            4 68 65 3 68 hhcurveto
            71 54 -3 -4 72 hvcurveto
            hintmask 11010000
            74 vlineto
            hintmask 11100000
            -3 -72 -55 -2 -72 hhcurveto
            hintmask 11010000
            -66 -67 2 3 -66 hvcurveto
            64 -155 -23 callsubr
          </CharString>
          <CharString index="55">
            580 rmoveto
            4 96 92 3 96 hhcurveto
            101 76 -3 -4 102 hvcurveto
            return
          </CharString>
          <CharString index="56">
            19 47 11 44 10 58 -42 2 -37 1 -41 1 rrcurveto
            return
          </CharString>
          <CharString index="57">
            1 34 6 34 15 32 rrcurveto
            4 -22 -38 2 -34 hhcurveto
            20 10 30 12 22 vhcurveto
            -15 3 -15 3 -16 2 -34 -50 -24 -65 -10 -61 rrcurveto
            32 hlineto
            45 42 -2 -8 45 hvcurveto
            return
          </CharString>
          <CharString index="58">
            16 -42 callgsubr
            return
          </CharString>
          <CharString index="59">
            -66 -16 -36 -21 -54 hhcurveto
            -30 -26 3 8 -34 hvcurveto
            return
          </CharString>
          <CharString index="60">
            21 -69 callsubr
            -20 hstem
            return
          </CharString>
          <CharString index="61">
            13 55 rrcurveto
            4 22 20 return
          </CharString>
          <CharString index="62">
            129 3 rmoveto
            -16 47 47 -9 44 hhcurveto
            54 52 11 19 46 hvcurveto
            10 -11 18 -14 12 -5 rrcurveto
            return
          </CharString>
          <CharString index="63">
            -7 21 21 -3 20 hhcurveto
            95 73 74 83 31 -11 33 -23 31 hvcurveto
            6 -24 -23 3 -21 hhcurveto
            -100 -69 -61 -80 -34 12 -38 29 -38 hvcurveto
            return
          </CharString>
          <CharString index="64">
            63 -22 22 -22 44 25 -20 hstemhm
            return
          </CharString>
          <CharString index="65">
            10 32 -21 callgsubr
            return
          </CharString>
          <CharString index="66">
            29 -22 67 455 return
          </CharString>
          <CharString index="67">
            -291 224 80 17 -20 hstemhm
            hintmask 10000000
            12 245 rmoveto
            -16 75 104 -5 70 hhcurveto
            30 hlineto
            hintmask 01000000
            33 35 17 22 25 40 rrcurveto
            hintmask 10000000
            -14 -43 -91 -3 -72 -26 -23 1 -18 hhcurveto
            -26 -11 -53 -48 -2 -1 rrcurveto
            endchar
          </CharString>
          <CharString index="68">
            -4 36 -2 36 36 vvcurveto
            38 1 37 4 38 vhcurveto
            -67 hlineto
            3 -38 5 -38 -38 vvcurveto
            -35 -4 -36 -3 -36 vhcurveto
            return
          </CharString>
          <CharString index="69">
            -81 callgsubr
            endchar
          </CharString>
          <CharString index="70">
            77 -48 -9 111 hvcurveto
            111 21 115 69 63 82 -11 105 -52 92 -113 29 37 36 32 46 29 55 rrcurveto
            4 9 3 9 9 vvcurveto
            57 -118 16 -115 -83 -81 -12 -12 -54 vhcurveto
            endchar
          </CharString>
          <CharString index="71">
            -40 0 -21 466 78 return
          </CharString>
          <CharString index="72">
            -1 0 66 140 93 -72 72 136 65 0 return
          </CharString>
          <CharString index="73">
            -40 callgsubr
            -20 return
          </CharString>
          <CharString index="74">
            hintmask 11101000
            89 499 rmoveto
            9 -36 16 -51 15 -33 41 -3 46 -2 42 -1 -7 21 -6 25 -4 21 rrcurveto
            hintmask 11011000
            4 13 29 2 29 hhcurveto
            29 29 -2 -4 14 hvcurveto
            -8 1 return
          </CharString>
          <CharString index="75">
            -2 21 0 22 22 vvcurveto
            119 21 126 29 119 vhcurveto
            return
          </CharString>
          <CharString index="76">
            569 rmoveto
            -15 24 25 -16 54 hhcurveto
            -90 callgsubr
            return
          </CharString>
          <CharString index="77">
            66 -66 148 return
          </CharString>
          <CharString index="78">
            -29 callgsubr
            -17 callsubr
            19 return
          </CharString>
          <CharString index="79">
            rmoveto
            -1 -33 -6 -30 -16 callsubr
            -4 23 37 -2 35 hhcurveto
            -1 -20 -10 -29 -12 -23 15 -4 15 -1 16 -3 35 51 23 71 11 60 rrcurveto
            endchar
          </CharString>
          <CharString index="80">
            -5 -33 -12 -35 return
          </CharString>
          <CharString index="81">
            -37 -91 -21 58 21 407 149 -77 77 0 return
          </CharString>
          <CharString index="82">
            -126 -21 168 -69 callsubr
            -20 106 -20 hstem
            return
          </CharString>
          <CharString index="83">
            vstem
            602 498 rmoveto
            18 -77 -67 7 -61 hhcurveto
            -247 -112 -131 -138 -109 69 -113 124 -53 hvcurveto
            23 hlineto
            return
          </CharString>
          <CharString index="84">
            -91 callgsubr
            endchar
          </CharString>
          <CharString index="85">
            96 102 362 92 return
          </CharString>
          <CharString index="86">
            97 6 -20 hstemhm
            return
          </CharString>
          <CharString index="87">
            1 63 2 63 2 63 rrcurveto
            -23 -22 0 -22 hhcurveto
            1 -63 1 -63 1 -63 rrcurveto
            -51 -52 2 3 -52 hvcurveto
            endchar
          </CharString>
          <CharString index="88">
            -1 0 -30 callsubr
            79 7 callsubr
            return
          </CharString>
          <CharString index="89">
            21 -15 callsubr
            return
          </CharString>
          <CharString index="90">
            491 hlineto
            return
          </CharString>
          <CharString index="91">
            -15 -33 rrcurveto
            return
          </CharString>
          <CharString index="92">
            -69 callsubr
            -20 95 -21 callsubr
            return
          </CharString>
          <CharString index="93">
            -50 callgsubr
            107 -20 hstem
            return
          </CharString>
          <CharString index="94">
            -194 -21 182 33 return
          </CharString>
          <CharString index="95">
            306 -7 callsubr
            return
          </CharString>
          <CharString index="96">
            61 240 return
          </CharString>
          <CharString index="97">
            -20 hstemhm
            -38 callgsubr
            return
          </CharString>
          <CharString index="98">
            hstem
            -11 callsubr
            return
          </CharString>
          <CharString index="99">
            78 -57 callgsubr
            -11 -72 -3 -73 -75 vvcurveto
            -101 8 -98 -29 callgsubr
            -17 callsubr
            return
          </CharString>
          <CharString index="100">
            680 -59 callsubr
            return
          </CharString>
          <CharString index="101">
            -15 -21 43 -21 532 -20 41 -20 hstemhm
            4 104 63 104 -13 103 63 105 return
          </CharString>
          <CharString index="102">
            56 vhcurveto
            -265 hlineto
            -1 21 -3 20 -1 21 -96 17 -96 16 -96 16 return
          </CharString>
          <CharString index="103">
            421 rmoveto
            -23 0 -22 -22 vvcurveto
            52 3 52 2 52 1 rrcurveto
            return
          </CharString>
          <CharString index="104">
            hlineto
            -10 -70 -4 -75 -74 vvcurveto
            return
          </CharString>
          <CharString index="105">
            368 21 -69 callsubr
            -20 return
          </CharString>
          <CharString index="106">
            rmoveto
            3 44 3 12 1 42 rrcurveto
            -184 hlineto
            2 -11 rlineto
            return
          </CharString>
          <CharString index="107">
            -61 hhcurveto
            -25 -26 2 3 -24 hvcurveto
            114 63 88 80 37 return
          </CharString>
          <CharString index="108">
            72 7 41 rrcurveto
            endchar
          </CharString>
          <CharString index="109">
            0 202 298 return
          </CharString>
          <CharString index="110">
            -20 hstemhm
            38 250 hintmask 11011000
            602 498 rmoveto
            return
          </CharString>
          <CharString index="111">
            -50 -91 -21 57 21 407 150 -77 77 hstemhm
            return
          </CharString>
          <CharString index="112">
            21 -69 callsubr
            -20 hstemhm
            return
          </CharString>
          <CharString index="113">
            16 -67 vhcurveto
            510 hlineto
            return
          </CharString>
          <CharString index="114">
            72 49 152 -65 65 -65 return
          </CharString>
          <CharString index="115">
            571 -21 130 -20 hstem
            return
          </CharString>
          <CharString index="116">
            0 1 11 hvcurveto
            17 return
          </CharString>
          <CharString index="117">
            244 165 return
          </CharString>
          <CharString index="118">
            -37 5 -37 rrcurveto
            -220 hlineto
            -29 -65 -15 return
          </CharString>
          <CharString index="119">
            19 47 10 42 11 59 -120 5 rcurveline
            return
          </CharString>
        <CharString name=".notdef">
          -172 endchar
        </CharString>
        <CharString name="A">
          36 -47 callsubr
          61 240 -13 callgsubr
          20 -23 19 -26 18 -28 -40 -78 -101 -74 -94 -27 rrcurveto
          -12 -41 -8 -56 -57 vvcurveto
          -31 2 -30 5 -29 vhcurveto
          233 hlineto
          51 35 46 40 43 43 8 -39 6 -38 3 -41 rrcurveto
          232 8 hlineto
          179 -35 173 -64 140 vhcurveto
          -168 -309 rmoveto
          -35 -39 -44 -31 -43 -23 5 82 18 87 31 92 28 -53 23 -56 17 -59 rrcurveto
          endchar
        </CharString>
        <CharString name="AE">
          -83 callgsubr
        </CharString>
        <CharString name="Aacute">
          95 21 -69 callsubr
          50 130 -20 -9 callsubr
          vstem
          259 500 -107 callgsubr
          -44 489 -59 callsubr
          endchar
        </CharString>
        <CharString name="Abreve">
          95 21 -69 callsubr
          -20 58 55 -9 callsubr
          vstem
          259 500 -107 callgsubr
          -131 378 rmoveto
          -15 24 25 -16 54 hhcurveto
          -90 callgsubr
          endchar
        </CharString>
        <CharString name="Acircumflex">
          95 21 -69 callsubr
          -20 193 -20 -9 callsubr
          -13 callgsubr
          332 hlineto
          64 -139 35 -175 -178 vvcurveto
          -8 -232 vlineto
          -3 41 -6 39 -8 38 -42 -43 -48 -40 -50 -35 rrcurveto
          -233 hlineto
          -5 29 -2 31 30 vvcurveto
          57 8 56 12 41 vhcurveto
          94 27 101 74 40 78 -17 27 -19 26 -21 24 rrcurveto
          164 -309 rmoveto
          -17 59 -22 55 -29 54 -31 -92 -18 -86 -5 -83 43 22 45 33 34 38 rrcurveto
          -139 367 -98 callgsubr
        </CharString>
        <CharString name="Adieresis">
          95 -18 callsubr
          -11 callsubr
          hintmask 11011000
          259 500 -107 callgsubr
          -165 487 -87 callgsubr
          hintmask 11101000
          -1 19 20 -1 19 -95 callgsubr
          rrcurveto
          hintmask 11011000
          -87 callsubr
          hintmask 11101000
          -86 callsubr
          hintmask 11011000
          -60 callgsubr
        </CharString>
        <CharString name="Agrave">
          95 21 -69 callsubr
          -20 200 -20 -9 callsubr
          -13 callgsubr
          332 hlineto
          64 -139 35 -175 -178 vvcurveto
          -8 -232 vlineto
          -3 41 -6 39 -8 38 -42 -43 -48 -40 -50 -35 rrcurveto
          -233 hlineto
          -5 29 -2 31 30 vvcurveto
          57 8 56 12 41 vhcurveto
          94 27 101 74 40 78 -17 27 -19 26 -21 24 rrcurveto
          164 -309 rmoveto
          -17 59 -22 55 -29 54 -31 -92 -18 -86 -5 -83 43 22 45 33 34 38 rrcurveto
          -36 489 -88 callsubr
        </CharString>
        <CharString name="Amacron">
          -72 callsubr
        </CharString>
        <CharString name="Aogonek">
          -75 callgsubr
        </CharString>
        <CharString name="Aring">
          95 21 -69 callsubr
          -20 73 123 -9 callsubr
          103 41 -13 callgsubr
          332 hlineto
          64 -139 35 -175 -178 vvcurveto
          -8 -232 vlineto
          -3 41 -6 39 -8 38 -42 -43 -48 -40 -50 -35 rrcurveto
          -233 hlineto
          -5 29 -2 31 30 vvcurveto
          57 8 56 12 41 vhcurveto
          94 27 101 74 40 78 -17 27 -19 26 -21 24 rrcurveto
          164 -309 rmoveto
          -17 59 -22 55 -29 54 -31 -92 -18 -86 -5 -83 43 22 45 33 34 38 rrcurveto
          -45 367 -84 callgsubr
        </CharString>
        <CharString name="Atilde">
          95 21 -69 callsubr
          -20 95 -43 callsubr
          -11 callsubr
          hintmask 11010110
          259 500 -107 callgsubr
          120 494 rmoveto
          -28 -27 -32 -19 -40 hhcurveto
          hintmask 11001110
          -46 -12 22 -51 hhcurveto
          -24 -28 -20 -17 -14 hvcurveto
          -13 -40 rlineto
          18 16 22 15 28 hhcurveto
          hintmask 11100110
          36 24 -41 52 hhcurveto
          88 -2 58 52 23 hvcurveto
          endchar
        </CharString>
        <CharString name="B">
          23 21 -21 434 66 hstem
          -100 callsubr
          endchar
        </CharString>
        <CharString name="C">
          -36 callsubr
          hstem
          38 250 vstem
          -106 callsubr
          endchar
        </CharString>
        <CharString name="CR">
          -322 endchar
        </CharString>
        <CharString name="Cacute">
          -36 callsubr
          0 27 130 -20 hstemhm
          38 250 hintmask 11011000
          -106 callsubr
          -290 182 rmoveto
          hintmask 10111000
          -104 callsubr
          endchar
        </CharString>
        <CharString name="Ccaron">
          -36 callsubr
          -78 224 hstemhm
          38 250 hintmask 11010000
          -106 callsubr
          -311 56 rmoveto
          49 hlineto
          hintmask 10110000
          -79 callsubr
        </CharString>
        <CharString name="Ccedilla">
          -40 -189 21 73 50 45 -21 466 78 hstem
          38 250 42 69 -24 callsubr
          10 9 0 1 10 hvcurveto
          -31 -90 rlineto
          6 16 19 9 11 hhcurveto
          19 13 -10 -16 -21 -19 -26 -44 hvcurveto
          6 -21 rlineto
          78 2 48 55 48 vvcurveto
          5 vlineto
          21 -3 -24 13 -21 -14 -16 -7 -13 hhcurveto
          12 35 130 14 80 54 67 52 rlinecurve
          -41 callgsubr
        </CharString>
        <CharString name="Ccircumflex">
          -36 callsubr
          -78 113 115 3 callsubr
          -9 -35 -17 -51 -14 -33 rrcurveto
          -4 -42 -46 -2 -42 hhcurveto
          7 20 6 25 4 21 rrcurveto
          4 -23 -20 2 -21 hhcurveto
          -26 -27 -4 -7 -29 hvcurveto
          -11 -46 -4 -41 -36 vvcurveto
          -117 53 -70 85 -51 vhcurveto
          64 42 52 48 50 62 3 -37 1 -39 1 -46 rrcurveto
          -60 -77 -95 -64 -171 hhcurveto
          -23 hlineto
          -124 53 -69 113 109 vvcurveto
          138 112 131 247 61 67 -7 -18 77 vhcurveto
          hintmask 10111000
          -401 -43 callgsubr
        </CharString>
        <CharString name="Cdotaccent">
          -36 callsubr
          0 52 103 -20 hstemhm
          38 250 hintmask 11011000
          -106 callsubr
          -322 180 -87 callgsubr
          hintmask 10111000
          -1 19 20 -1 19 -95 callgsubr
          -34 1 -33 -49 callgsubr
        </CharString>
        <CharString name="D">
          46 7 -21 537 -20 hstem
          445 227 vstem
          80 -57 callgsubr
          -4 -46 -2 -38 -44 vvcurveto
          -123 15 -124 24 -124 vhcurveto
          -8 60 54 -7 65 hhcurveto
          104 109 23 96 90 hvcurveto
          53 57 24 68 71 vvcurveto
          59 -15 59 -28 56 vhcurveto
          31 -78 -108 17 -128 hhcurveto
          -73 -78 -11 -12 -84 hvcurveto
          265 -52 rmoveto
          68 -7 32 -71 -84 vvcurveto
          -93 -40 -107 -75 -40 vhcurveto
          -2 34 -1 33 32 vvcurveto
          109 9 100 9 94 vhcurveto
          endchar
        </CharString>
        <CharString name="Dcaron">
          141 7 -21 537 -20 185 -20 hstem
          445 227 vstem
          80 -57 callgsubr
          -4 -46 -2 -38 -44 vvcurveto
          -123 15 -124 24 -124 vhcurveto
          -8 60 54 -7 65 hhcurveto
          104 109 23 96 90 hvcurveto
          53 57 24 68 71 vvcurveto
          59 -15 59 -28 56 vhcurveto
          31 -78 -108 17 -128 hhcurveto
          -73 -78 -11 -12 -84 hvcurveto
          265 -52 rmoveto
          68 -7 32 -71 -84 vvcurveto
          -93 -40 -107 -75 -40 vhcurveto
          -2 34 -1 33 32 vvcurveto
          109 9 100 9 94 vhcurveto
          288 240 rmoveto
          -1 -33 -6 -34 -16 callsubr
          -4 22 38 -2 35 hhcurveto
          -1 -20 -10 -30 -12 -22 15 -4 15 -2 16 -2 34 50 24 66 11 59 rrcurveto
          -60 -49 1 10 -56 hvcurveto
          endchar
        </CharString>
        <CharString name="Dcroat">
          -100 callgsubr
        </CharString>
        <CharString name="E">
          -1 0 -1 callgsubr
          hintmask 10100100
          -77 callgsubr
          hintmask 01101000
          19 47 11 43 10 58 -120 5 rcurveline
          hintmask 10011000
          -97 callsubr
          hintmask 10100100
          -103 callgsubr
          endchar
        </CharString>
        <CharString name="Eacute">
          -35 callsubr
          50 13 callgsubr
          hintmask 10110100
          -77 callgsubr
          19 47 11 43 10 58 -120 5 rcurveline
          -97 callsubr
          hintmask 11010100
          -103 callgsubr
          -283 180 rmoveto
          hintmask 11001100
          -104 callsubr
          endchar
        </CharString>
        <CharString name="Ecaron">
          -1 0 -73 callgsubr
          -65 234 hstemhm
          hintmask 10100100
          -77 callgsubr
          hintmask 01101000
          19 47 11 43 10 58 -120 5 rcurveline
          hintmask 10011000
          -97 callsubr
          hintmask 10100100
          -103 callgsubr
          -303 54 rmoveto
          49 hlineto
          hintmask 10100010
          -79 callsubr
        </CharString>
        <CharString name="Ecircumflex">
          -35 callsubr
          58 115 -20 hstemhm
          hintmask 10110100
          -8 callsubr
          12 callsubr
          -20 callgsubr
          hintmask 11010100
          31 36 -21 37 hhcurveto
          9 hlineto
          47 88 rlineto
          -1 -7 -7 0 -7 -31 -32 6 -31 hhcurveto
          -35 -37 -13 -24 -27 hvcurveto
          9 56 12 55 13 56 7 callgsubr
          -13 -3 -15 -5 -15 hvcurveto
          2 callgsubr
          hintmask 11001100
          -393 58 -98 callgsubr
        </CharString>
        <CharString name="Edieresis">
          -1 0 -73 callgsubr
          75 -21 callsubr
          hintmask 10100110
          -8 callsubr
          hintmask 01101010
          12 callsubr
          hintmask 10011010
          -20 callgsubr
          hintmask 10100110
          31 36 -21 37 hhcurveto
          9 hlineto
          47 88 rlineto
          -1 -7 -7 0 -7 -31 -32 6 -31 hhcurveto
          -35 -37 -13 -24 -27 hvcurveto
          9 56 12 55 13 56 7 callgsubr
          -13 -3 -15 -5 -15 hvcurveto
          hintmask 10100101
          2 callgsubr
          -404 178 rmoveto
          -4 -33 -11 -35 -16 callsubr
          hintmask 10101010
          -1 19 20 -1 19 15 12 1 13 hhcurveto
          -68 callgsubr
          rrcurveto
          hintmask 10101001
          -33 1 -34 -82 callsubr
          hintmask 10101010
          -1 19 19 -1 19 13 13 1 15 -55 callsubr
          hintmask 10101001
          -33 1 -34 -49 callgsubr
        </CharString>
        <CharString name="Edotaccent">
          -35 callsubr
          75 103 -20 hstemhm
          hintmask 10110100
          -77 callgsubr
          19 47 11 43 10 58 -120 5 rcurveline
          -97 callsubr
          hintmask 11010100
          -103 callgsubr
          -315 178 -87 callgsubr
          hintmask 11001100
          -1 19 20 -1 19 -95 callgsubr
          -34 1 -33 -49 callgsubr
        </CharString>
        <CharString name="Egrave">
          -19 callsubr
          115 13 callgsubr
          hintmask 10110010
          614 -57 callgsubr
          -7 -41 -13 -72 -12 -39 -42 -2 -25 -1 -41 -1 rrcurveto
          6 17 2 14 12 vvcurveto
          hintmask 10101010
          35 -25 13 -47 -18 -20 -2 -4 -22 vhcurveto
          -13 -55 -12 -56 -9 -56 rrcurveto
          24 26 38 13 35 30 33 -6 31 hhcurveto
          7 7 0 1 7 hvcurveto
          -47 -88 rlineto
          -9 hlineto
          -37 -36 21 -31 hhcurveto
          -25 -21 -11 -42 -19 hvcurveto
          -3 -33 -2 -33 -1 -32 rrcurveto
          -6 31 24 -4 27 hhcurveto
          9 hlineto
          54 35 19 68 16 hvcurveto
          hintmask 01110010
          120 -5 -10 -58 -11 -43 -19 -47 rlinecurve
          -491 hlineto
          -12 81 -8 98 101 vvcurveto
          74 4 75 10 71 vhcurveto
          261 180 rmoveto
          -111 -14 rlineto
          hintmask 10100110
          29 -58 59 -30 60 -28 -33 callgsubr
          -51 33 -32 43 -20 54 rrcurveto
          endchar
        </CharString>
        <CharString name="Emacron">
          -1 0 -73 callgsubr
          87 63 5 -20 hstemhm
          hintmask 10101010
          70 -52 callsubr
          hintmask 10101001
          75 vlineto
          hintmask 10101010
          -3 -102 -78 -2 -102 hhcurveto
          hintmask 10100101
          -93 -94 2 3 -94 hvcurveto
          8 -155 -80 callgsubr
          hintmask 01101010
          19 47 11 43 10 58 -120 5 rcurveline
          hintmask 10011010
          -97 callsubr
          hintmask 10100110
          -103 callgsubr
          endchar
        </CharString>
        <CharString name="Eogonek">
          -1 -174 38 136 -1 callgsubr
          hintmask 11010100
          357 -136 rmoveto
          -16 -15 12 28 40 25 34 27 22 hvcurveto
          197 hlineto
          hintmask 10110100
          19 47 11 43 10 58 -120 5 rcurveline
          hintmask 11001100
          -97 callsubr
          hintmask 11010010
          31 36 -21 37 hhcurveto
          9 hlineto
          47 88 rlineto
          -1 -7 -7 0 -7 -31 -33 6 -30 hhcurveto
          -35 -38 -13 -24 -26 hvcurveto
          9 56 12 56 13 55 7 callgsubr
          -12 -2 -14 -6 -17 hvcurveto
          hintmask 11010100
          41 1 25 1 42 2 12 39 13 72 7 41 rrcurveto
          -536 hlineto
          -10 -71 -53 callgsubr
          -98 -29 callgsubr
          246 -56 callsubr
        </CharString>
        <CharString name="Eth">
          -100 callgsubr
        </CharString>
        <CharString name="Euro">
          -22 -1 -21 202 54 50 50 110 79 hstem
          640 499 rmoveto
          17 -76 -67 7 -60 hhcurveto
          -202 -111 -85 -106 -36 hvcurveto
          -20 1 -22 0 -21 1 -20 -55 rcurveline
          24 1 25 1 24 1 rrcurveto
          -1 -10 -1 -9 -9 -7 1 -7 -8 vvcurveto
          -17 1 -18 0 -17 1 -20 -54 rcurveline
          27 1 27 1 26 1 23 -85 63 -79 98 -41 rrcurveto
          188 95 59 65 84 hvcurveto
          -1 46 -2 39 -3 38 -50 -62 -53 -50 -63 -41 -47 29 -39 35 -24 47 rrcurveto
          36 36 -2 -1 35 hvcurveto
          18 54 -48 -2 -48 0 -47 -1 rlinecurve
          -5 17 -3 17 -1 19 56 -1 56 -2 57 -2 17 55 rcurveline
          -2 -62 -62 -1 -63 hhcurveto
          2 30 5 35 8 38 rrcurveto
          7 29 27 3 27 hhcurveto
          20 21 -2 -3 22 hvcurveto
          -4 -21 -6 -25 -7 -22 42 1 47 2 41 4 15 33 16 51 9 37 rrcurveto
          endchar
        </CharString>
        <CharString name="F">
          -71 callsubr
        </CharString>
        <CharString name="G">
          -15 callgsubr
          hstemhm
          29 249 139 204 hintmask 10111000
          593 498 rmoveto
          17 -77 -68 8 -60 hhcurveto
          -249 -110 -132 -138 -109 68 -112 125 -54 hvcurveto
          64 hlineto
          116 85 5 17 120 hvcurveto
          11 93 3 78 89 vvcurveto
          -216 hlineto
          8 -65 4 -48 -56 -13 -1 -15 -14 vvcurveto
          -86 46 -52 108 108 vvcurveto
          36 5 40 11 47 vhcurveto
          7 29 27 4 28 hhcurveto
          20 20 -2 -4 21 hvcurveto
          hintmask 11011000
          -57 callsubr
          endchar
        </CharString>
        <CharString name="Gbreve">
          -15 callgsubr
          15 55 hstemhm
          29 249 139 204 hintmask 10111100
          593 498 rmoveto
          17 -77 -68 8 -60 hhcurveto
          -249 -110 -132 -138 -109 68 -112 125 -54 hvcurveto
          64 hlineto
          116 85 5 17 120 hvcurveto
          11 93 3 78 89 vvcurveto
          -216 hlineto
          8 -65 4 -48 -56 -13 -1 -15 -14 vvcurveto
          -86 46 -52 108 108 vvcurveto
          36 5 40 11 47 vhcurveto
          7 29 27 4 28 hhcurveto
          20 20 -2 -4 21 hvcurveto
          hintmask 11011100
          -57 callsubr
          -368 71 rmoveto
          -15 24 25 -16 54 hhcurveto
          -90 callgsubr
          endchar
        </CharString>
        <CharString name="Gcircumflex">
          -94 callgsubr
        </CharString>
        <CharString name="Gdotaccent">
          3 -1 -21 282 112 -112 185 -73 151 -78 78 0 52 103 -20 hstemhm
          29 249 139 204 hintmask 1100101110000000
          593 498 rmoveto
          17 -77 -68 8 -60 hhcurveto
          -249 -110 -132 -138 -109 68 -112 125 -54 hvcurveto
          64 hlineto
          116 85 5 17 120 hvcurveto
          hintmask 1010011110000000
          11 93 3 78 89 vvcurveto
          -216 hlineto
          8 -65 4 -48 -56 -13 -1 -15 -14 vvcurveto
          -86 46 -52 108 108 vvcurveto
          36 5 40 11 47 vhcurveto
          7 29 27 4 28 hhcurveto
          20 20 -2 -4 21 hvcurveto
          hintmask 1001001110000000
          -57 callsubr
          -292 180 -87 callgsubr
          hintmask 1010011110000000
          -1 19 20 -1 19 -95 callgsubr
          -34 1 -33 -49 callgsubr
        </CharString>
        <CharString name="H">
          -91 callsubr
        </CharString>
        <CharString name="Hcircumflex">
          -66 callgsubr
        </CharString>
        <CharString name="I">
          -47 callsubr
          71 500 -23 callsubr
        </CharString>
        <CharString name="Iacute">
          21 -69 callsubr
          50 130 -20 hstem
          71 500 -91 callgsubr
          -147 180 -59 callsubr
          endchar
        </CharString>
        <CharString name="Icircumflex">
          21 -69 callsubr
          -20 193 -20 hstem
          341 -57 callgsubr
          -27 vlineto
          -157 -8 -158 -25 -158 vhcurveto
          -240 hlineto
          14 68 5 75 79 vvcurveto
          90 -7 94 -9 94 vhcurveto
          12 58 -98 callgsubr
        </CharString>
        <CharString name="Idieresis">
          -18 callsubr
          hintmask 11010000
          71 500 -91 callgsubr
          -269 178 -87 callgsubr
          hintmask 11100000
          -1 19 20 -1 19 -95 callgsubr
          rrcurveto
          hintmask 11010000
          -87 callsubr
          hintmask 11100000
          -86 callsubr
          hintmask 11010000
          -60 callgsubr
        </CharString>
        <CharString name="Idotaccent">
          21 -69 callsubr
          76 102 -20 hstem
          85 247 vstem
          66 -57 callgsubr
          12 -86 7 -97 -95 vvcurveto
          -77 -5 -76 -9 -69 -16 callgsubr
          23 128 11 132 138 -36 callgsubr
          -165 178 rmoveto
          -27 callsubr
          -14 -34 rrcurveto
          -1 33 34 0 33 hhcurveto
          17 32 11 33 7 32 -35 1 -34 -49 callgsubr
        </CharString>
        <CharString name="Igrave">
          21 -69 callsubr
          -20 200 -20 hstem
          341 -57 callgsubr
          -27 vlineto
          -157 -8 -158 -25 -158 vhcurveto
          -240 hlineto
          14 68 5 75 79 vvcurveto
          90 -7 94 -9 94 vhcurveto
          131 180 -88 callsubr
        </CharString>
        <CharString name="Imacron">
          -53 callsubr
        </CharString>
        <CharString name="Iogonek">
          -58 callsubr
        </CharString>
        <CharString name="Itilde">
          -60 callsubr
        </CharString>
        <CharString name="J">
          -141 -94 -21 615 -96 callsubr
          endchar
        </CharString>
        <CharString name="Jcircumflex">
          -141 -94 -21 615 58 115 -96 callsubr
          9 603 -98 callgsubr
        </CharString>
        <CharString name="K">
          -102 callgsubr
        </CharString>
        <CharString name="L">
          -70 -26 callgsubr
          hintmask 10110000
          274 77 -88 callgsubr
          rrcurveto
          hintmask 01110000
          -120 4 rlineto
          hintmask 10110000
          -48 callsubr
          endchar
        </CharString>
        <CharString name="Lacute">
          -70 0 66 434 50 130 -20 hstem
          40 234 vstem
          274 77 -88 callgsubr
          -120 4 rcurveline
          -48 callsubr
          -26 603 -59 callsubr
          endchar
        </CharString>
        <CharString name="Lcaron">
          -70 -17 callgsubr
          189 -20 hstemhm
          40 234 hintmask 10111000
          186 554 rmoveto
          49 hlineto
          -74 callsubr
          178 -592 -88 callgsubr
          rrcurveto
          hintmask 01111000
          -120 4 rlineto
          hintmask 10111000
          -48 callsubr
          endchar
        </CharString>
        <CharString name="Lslash">
          -67 callgsubr
        </CharString>
        <CharString name="M">
          380 21 -21 500 -102 callsubr
          endchar
        </CharString>
        <CharString name="N">
          43 -47 callsubr
          -22 callsubr
          vstem
          -105 callsubr
          endchar
        </CharString>
        <CharString name="NULL">
          -672 endchar
        </CharString>
        <CharString name="Nacute">
          43 21 -69 callsubr
          50 130 -20 hstem
          -22 callsubr
          vstem
          -105 callsubr
          -293 180 -59 callsubr
          endchar
        </CharString>
        <CharString name="Ncaron">
          43 21 -69 callsubr
          -20 189 -20 hstem
          -22 callsubr
          vstem
          -105 callsubr
          -313 54 rmoveto
          49 hlineto
          -79 callsubr
        </CharString>
        <CharString name="Ntilde">
          43 21 -69 callsubr
          -20 95 -43 callsubr
          -22 callsubr
          hintmask 11010111
          -105 callsubr
          -145 185 -85 callsubr
        </CharString>
        <CharString name="O">
          -34 callsubr
          hstem
          -58 callgsubr
          vstem
          123 3 -105 callgsubr
          endchar
        </CharString>
        <CharString name="OE">
          -85 callgsubr
        </CharString>
        <CharString name="Oacute">
          -40 callgsubr
          27 130 -20 hstem
          -58 callgsubr
          vstem
          123 3 -105 callgsubr
          50 244 -59 callsubr
          endchar
        </CharString>
        <CharString name="Ocircumflex">
          -34 callsubr
          170 -89 callgsubr
          -61 122 -98 callgsubr
        </CharString>
        <CharString name="Odieresis">
          -34 callsubr
          72 -21 callsubr
          -58 callgsubr
          hintmask 11011100
          123 3 -105 callgsubr
          -72 242 -87 callgsubr
          hintmask 11101100
          -1 19 20 -1 19 -95 callgsubr
          rrcurveto
          hintmask 11011100
          -87 callsubr
          hintmask 11101100
          -86 callsubr
          hintmask 11011100
          -60 callgsubr
        </CharString>
        <CharString name="Ograve">
          -34 callsubr
          177 -89 callgsubr
          58 244 -88 callsubr
        </CharString>
        <CharString name="Ohungarumlaut">
          -40 callgsubr
          27 130 -20 hstem
          -58 callgsubr
          vstem
          123 3 -105 callgsubr
          -31 244 -59 callsubr
          50 14 -59 callsubr
          endchar
        </CharString>
        <CharString name="Omacron">
          -34 callsubr
          84 63 5 -20 hstemhm
          -58 callgsubr
          hintmask 11101100
          54 -52 callsubr
          hintmask 11011100
          75 vlineto
          hintmask 11101100
          -3 -102 -78 -2 -102 hhcurveto
          hintmask 11011100
          -93 -94 2 3 -94 hvcurveto
          69 -652 -105 callgsubr
          endchar
        </CharString>
        <CharString name="Oslash">
          -74 callgsubr
        </CharString>
        <CharString name="Otilde">
          -34 callsubr
          72 -43 callsubr
          -58 callgsubr
          hintmask 11010111
          123 3 -105 callgsubr
          197 249 -85 callsubr
        </CharString>
        <CharString name="P">
          -7 21 -21 500 -98 callsubr
          endchar
        </CharString>
        <CharString name="Q">
          -6 -22 99 -79 -21 24 -25 callgsubr
          hintmask 10011100
          -45 callsubr
          hintmask 01111100
          -90 callsubr
          endchar
        </CharString>
        <CharString name="R">
          -12 callgsubr
          -95 callsubr
          endchar
        </CharString>
        <CharString name="Racute">
          -12 callgsubr
          50 130 -95 callsubr
          23 247 -59 callsubr
          endchar
        </CharString>
        <CharString name="Rcaron">
          -12 callgsubr
          -20 189 -20 hstem
          63 241 vstem
          421 225 rmoveto
          76 15 68 21 56 31 rrcurveto
          12 1 11 11 vvcurveto
          57 -7 46 -16 71 vhcurveto
          -522 hlineto
          -9 -68 -5 -70 -69 vvcurveto
          -99 10 -97 19 -97 vhcurveto
          218 hlineto
          -4 47 -2 46 47 vvcurveto
          16 0 16 1 17 vhcurveto
          59 -24 43 -72 13 -93 rrcurveto
          259 hlineto
          -11 84 -25 67 -35 51 rrcurveto
          -21 hlineto
          -56 -50 7 16 -60 hvcurveto
          -95 208 rmoveto
          35 -44 22 -35 15 -55 -24 -21 -31 -13 -35 -5 4 57 6 57 8 59 rrcurveto
          2 121 rmoveto
          49 hlineto
          -79 callsubr
        </CharString>
        <CharString name="S">
          -101 callgsubr
        </CharString>
        <CharString name="Sacute">
          -26 callsubr
          27 130 -99 callgsubr
          -262 181 rmoveto
          hintmask 11001100
          -104 callsubr
          endchar
        </CharString>
        <CharString name="Scaron">
          -37 -91 -21 58 21 -21 101 327 149 -77 77 146 -20 hstemhm
          hintmask 11010100
          575 499 rmoveto
          16 -74 -65 8 -58 hhcurveto
          -44 hlineto
          -69 -66 -8 -15 -62 hvcurveto
          -18 -30 -28 -55 -17 -38 29 -106 75 -59 72 -50 17 -12 rcurveline
          63 -44 63 -43 -92 vvcurveto
          -3 -10 -12 -1 -10 hhcurveto
          hintmask 10101100
          -93 callgsubr
          hintmask 11010100
          -4 -21 -5 -24 -8 -21 rrcurveto
          42 46 3 3 42 hvcurveto
          14 33 16 50 9 36 rrcurveto
          -282 55 rmoveto
          49 hlineto
          -79 callsubr
        </CharString>
        <CharString name="Scedilla">
          -83 callsubr
        </CharString>
        <CharString name="Scircumflex">
          -37 -91 -21 58 21 -21 101 333 143 -143 178 -112 77 150 -20 hstemhm
          hintmask 11010010
          575 499 rmoveto
          -9 -36 -16 -50 -14 -33 rrcurveto
          -3 -42 -46 -3 -42 hhcurveto
          8 21 5 24 4 21 rrcurveto
          hintmask 10100110
          4 -27 -30 2 -29 hhcurveto
          -28 -31 -2 -4 -29 hvcurveto
          61 -103 91 -17 89 -59 47 -31 78 -80 16 -89 -63 -82 -115 -70 -111 -21 rrcurveto
          9 -111 -77 49 -77 hhcurveto
          -30 -29 -7 -20 -32 hvcurveto
          15 43 21 42 23 43 rrcurveto
          8 hlineto
          hintmask 11010010
          149 64 -79 -1 95 hvcurveto
          10 12 1 3 10 hvcurveto
          92 -63 43 -63 44 vhcurveto
          -17 12 -72 50 -75 59 -29 106 rlinecurve
          17 38 28 55 18 30 rrcurveto
          15 62 66 8 69 hhcurveto
          44 hlineto
          58 65 -8 -16 74 hvcurveto
          hintmask 11001010
          -372 59 -98 callgsubr
        </CharString>
        <CharString name="T">
          -92 callgsubr
        </CharString>
        <CharString name="Tcaron">
          -3 callgsubr
          170 -20 hstemhm
          202 244 0 113 hintmask 10110100
          472 435 rmoveto
          48 39 -22 -55 hvcurveto
          hintmask 11011000
          -78 callsubr
          hintmask 10111000
          -103 callsubr
          -144 120 rmoveto
          49 hlineto
          -79 callsubr
        </CharString>
        <CharString name="Thorn">
          -63 callgsubr
        </CharString>
        <CharString name="U">
          -34 callgsubr
          hstem
          -38 callgsubr
          vstem
          530 500 -51 callgsubr
        </CharString>
        <CharString name="Uacute">
          -41 callsubr
          50 130 -20 hstem
          -38 callgsubr
          vstem
          530 500 -107 callsubr
          -312 180 -59 callsubr
          endchar
        </CharString>
        <CharString name="Ubreve">
          -94 callgsubr
        </CharString>
        <CharString name="Ucircumflex">
          -34 callgsubr
          193 -20 hstem
          -38 callgsubr
          vstem
          658 -57 callgsubr
          3 -49 1 -50 -51 vvcurveto
          -103 -5 -105 -11 -97 vhcurveto
          -42 -65 -91 -25 -93 hhcurveto
          -127 -105 22 45 -80 hvcurveto
          -9 75 -4 65 66 vvcurveto
          76 5 77 10 96 vhcurveto
          269 hlineto
          -27 -145 -14 -140 -1 -132 rrcurveto
          -17 19 40 -21 65 hhcurveto
          66 31 14 14 21 hvcurveto
          2 33 0 31 31 vvcurveto
          110 -9 104 -19 118 vhcurveto
          -294 58 -98 callgsubr
        </CharString>
        <CharString name="Udieresis">
          -34 callgsubr
          95 97 6 -10 callsubr
          hintmask 11011100
          530 500 -107 callsubr
          -433 178 -87 callgsubr
          hintmask 11101100
          -1 19 20 -1 19 -95 callgsubr
          rrcurveto
          hintmask 11011100
          -87 callsubr
          hintmask 11101100
          -86 callsubr
          hintmask 11011100
          -60 callgsubr
        </CharString>
        <CharString name="Ugrave">
          -34 callgsubr
          200 -20 hstem
          -38 callgsubr
          vstem
          658 -57 callgsubr
          3 -49 1 -50 -51 vvcurveto
          -103 -5 -105 -11 -97 vhcurveto
          -42 -65 -91 -25 -93 hhcurveto
          -127 -105 22 45 -80 hvcurveto
          -9 75 -4 65 66 vvcurveto
          76 5 77 10 96 vhcurveto
          269 hlineto
          -27 -145 -14 -140 -1 -132 rrcurveto
          -17 19 40 -21 65 hhcurveto
          66 31 14 14 21 hvcurveto
          2 33 0 31 31 vvcurveto
          110 -9 104 -19 118 vhcurveto
          -176 180 -88 callsubr
        </CharString>
        <CharString name="Uhungarumlaut">
          -41 callsubr
          50 130 -20 hstem
          -38 callgsubr
          vstem
          530 500 -107 callsubr
          -345 180 -59 callsubr
          50 14 -59 callsubr
          endchar
        </CharString>
        <CharString name="Umacron">
          -72 callgsubr
        </CharString>
        <CharString name="Uogonek">
          -75 callsubr
        </CharString>
        <CharString name="Uring">
          -34 callgsubr
          73 123 hstem
          72 242 44 41 159 104 vstem
          658 -57 callgsubr
          3 -49 1 -50 -51 vvcurveto
          -103 -5 -105 -11 -97 vhcurveto
          -42 -65 -91 -25 -93 hhcurveto
          -127 -105 22 45 -80 hvcurveto
          -9 75 -4 65 66 vvcurveto
          76 5 77 10 96 vhcurveto
          269 hlineto
          -27 -145 -14 -140 -1 -132 rrcurveto
          -17 19 40 -21 65 hhcurveto
          66 31 14 14 21 hvcurveto
          2 33 0 31 31 vvcurveto
          110 -9 104 -19 118 vhcurveto
          -198 58 -84 callgsubr
        </CharString>
        <CharString name="Utilde">
          -34 callgsubr
          95 63 -22 22 -22 44 25 -10 callsubr
          hintmask 11010111
          530 500 -107 callsubr
          -164 185 -85 callsubr
        </CharString>
        <CharString name="V">
          -54 callsubr
        </CharString>
        <CharString name="W">
          -2 callsubr
          hstemhm
          280 139 0 21 345 245 hintmask 11101000
          -84 callsubr
          hintmask 11011000
          -96 callgsubr
          endchar
        </CharString>
        <CharString name="Wacute">
          368 21 -69 callsubr
          50 13 callgsubr
          280 139 0 21 345 245 hintmask 11110100
          -84 callsubr
          hintmask 11101100
          -96 callgsubr
          -124 180 -59 callsubr
          endchar
        </CharString>
        <CharString name="Wcircumflex">
          -2 callsubr
          193 -20 hstemhm
          280 139 0 21 345 245 hintmask 11101100
          640 -57 callgsubr
          10 -123 32 -128 52 -106 rrcurveto
          33 61 18 68 74 vvcurveto
          49 -7 51 -17 54 vhcurveto
          268 hlineto
          1 -15 0 -14 -15 vvcurveto
          -79 -11 -76 -23 -57 vhcurveto
          -111 -32 -96 -60 -70 vvcurveto
          -30 17 -28 24 -24 vhcurveto
          -252 hlineto
          -44 66 -34 72 -27 75 rrcurveto
          -21 -48 -12 -43 -37 vvcurveto
          -33 9 -28 20 -24 vhcurveto
          -251 hlineto
          -104 138 -75 191 -25 171 rrcurveto
          hintmask 11110100
          266 hlineto
          10 -125 25 -126 53 -106 rrcurveto
          33 56 18 73 82 vvcurveto
          46 -6 49 -11 51 vhcurveto
          3 58 -98 callgsubr
        </CharString>
        <CharString name="Wdieresis">
          -86 callgsubr
        </CharString>
        <CharString name="Wgrave">
          -2 callsubr
          200 -20 hstemhm
          280 139 0 21 345 245 hintmask 11101100
          640 -57 callgsubr
          10 -123 32 -128 52 -106 rrcurveto
          33 61 18 68 74 vvcurveto
          49 -7 51 -17 54 vhcurveto
          268 hlineto
          1 -15 0 -14 -15 vvcurveto
          -79 -11 -76 -23 -57 vhcurveto
          -111 -32 -96 -60 -70 vvcurveto
          -30 17 -28 24 -24 vhcurveto
          -252 hlineto
          -44 66 -34 72 -27 75 rrcurveto
          -21 -48 -12 -43 -37 vvcurveto
          -33 9 -28 20 -24 vhcurveto
          -251 hlineto
          -104 138 -75 191 -25 171 rrcurveto
          hintmask 11110100
          266 hlineto
          10 -125 25 -126 53 -106 rrcurveto
          33 56 18 73 82 vvcurveto
          46 -6 49 -11 51 vhcurveto
          122 180 -88 callsubr
        </CharString>
        <CharString name="X">
          29 -25 callsubr
          587 -92 callsubr
        </CharString>
        <CharString name="Y">
          16 -14 callsubr
          572 556 -61 callgsubr
        </CharString>
        <CharString name="Yacute">
          -71 callgsubr
        </CharString>
        <CharString name="Ycircumflex">
          60 -50 callgsubr
          193 -94 callsubr
          -365 2 -98 callgsubr
        </CharString>
        <CharString name="Ydieresis">
          60 -376 -21 418 -15 callsubr
          hintmask 11101000
          -93 callsubr
          -376 122 -87 callgsubr
          hintmask 11110000
          -1 19 20 -1 19 -95 callgsubr
          rrcurveto
          hintmask 11101000
          -87 callsubr
          hintmask 11110000
          -86 callsubr
          hintmask 11101000
          -60 callgsubr
        </CharString>
        <CharString name="Ygrave">
          60 -50 callgsubr
          200 -94 callsubr
          -246 124 -88 callsubr
        </CharString>
        <CharString name="Z">
          -14 callgsubr
          hstemhm
          hintmask 10100000
          -97 callgsubr
          hintmask 01100000
          -51 callsubr
          hintmask 10100000
          -55 callgsubr
          endchar
        </CharString>
        <CharString name="Zacute">
          -34 0 67 368 65 0 50 13 callgsubr
          hintmask 11010000
          -97 callgsubr
          -51 callsubr
          -55 callgsubr
          3 603 rmoveto
          hintmask 10110000
          -104 callsubr
          endchar
        </CharString>
        <CharString name="Zcaron">
          -14 callgsubr
          -65 234 hstemhm
          hintmask 10100000
          -97 callgsubr
          hintmask 01100000
          -51 callsubr
          hintmask 10010000
          -55 callgsubr
          -18 477 rmoveto
          49 hlineto
          -79 callsubr
        </CharString>
        <CharString name="Zdotaccent">
          -34 0 67 368 65 0 75 103 -20 hstemhm
          hintmask 11010000
          -97 callgsubr
          -51 callsubr
          -55 callgsubr
          -29 601 -87 callgsubr
          hintmask 10110000
          -1 19 20 -1 19 -95 callgsubr
          -34 1 -33 -49 callgsubr
        </CharString>
        <CharString name="a">
          37 -47 callsubr
          61 240 vstem
          259 500 -107 callgsubr
          endchar
        </CharString>
        <CharString name="aacute">
          95 21 -69 callsubr
          50 130 -20 -9 callsubr
          vstem
          259 500 -107 callgsubr
          -44 489 -59 callsubr
          endchar
        </CharString>
        <CharString name="abreve">
          95 21 -69 callsubr
          -20 58 55 -9 callsubr
          vstem
          259 500 -107 callgsubr
          -131 378 rmoveto
          -15 24 25 -16 54 hhcurveto
          -90 callgsubr
          endchar
        </CharString>
        <CharString name="acircumflex">
          95 21 -69 callsubr
          -20 193 -20 -9 callsubr
          -13 callgsubr
          332 hlineto
          64 -139 35 -175 -178 vvcurveto
          -8 -232 vlineto
          -3 41 -6 39 -8 38 -42 -43 -48 -40 -50 -35 rrcurveto
          -233 hlineto
          -5 29 -2 31 30 vvcurveto
          57 8 56 12 41 vhcurveto
          94 27 101 74 40 78 -17 27 -19 26 -21 24 rrcurveto
          164 -309 rmoveto
          -17 59 -22 55 -29 54 -31 -92 -18 -86 -5 -83 43 22 45 33 34 38 rrcurveto
          -139 367 -98 callgsubr
        </CharString>
        <CharString name="acute">
          -399 8 callsubr
          138 -7 callsubr
          endchar
        </CharString>
        <CharString name="adieresis">
          95 -18 callsubr
          -11 callsubr
          hintmask 11011000
          259 500 -107 callgsubr
          -165 487 -87 callgsubr
          hintmask 11101000
          -1 19 20 -1 19 -95 callgsubr
          rrcurveto
          hintmask 11011000
          -87 callsubr
          hintmask 11101000
          -86 callsubr
          hintmask 11011000
          -60 callgsubr
        </CharString>
        <CharString name="ae">
          -83 callgsubr
        </CharString>
        <CharString name="agrave">
          95 21 -69 callsubr
          -20 200 -20 -9 callsubr
          -13 callgsubr
          332 hlineto
          64 -139 35 -175 -178 vvcurveto
          -8 -232 vlineto
          -3 41 -6 39 -8 38 -42 -43 -48 -40 -50 -35 rrcurveto
          -233 hlineto
          -5 29 -2 31 30 vvcurveto
          57 8 56 12 41 vhcurveto
          94 27 101 74 40 78 -17 27 -19 26 -21 24 rrcurveto
          164 -309 rmoveto
          -17 59 -22 55 -29 54 -31 -92 -18 -86 -5 -83 43 22 45 33 34 38 rrcurveto
          -36 489 -88 callsubr
        </CharString>
        <CharString name="amacron">
          -72 callsubr
        </CharString>
        <CharString name="ampersand">
          73 21 -21 537 -20 hstem
          108 433 rmoveto
          20 -40 24 -43 28 -42 -59 -30 -78 -52 -37 -52 18 -70 35 -70 37 -34 rrcurveto
          238 hlineto
          21 16 21 16 19 17 22 -19 22 -17 20 -13 rrcurveto
          281 hlineto
          -84 47 -85 60 -67 57 25 33 21 36 15 38 rrcurveto
          -107 hlineto
          -6 -18 -7 -23 -7 -16 -41 37 -40 42 -28 40 39 26 63 36 19 43 -10 36 -18 34 -24 29 rrcurveto
          -229 hlineto
          -25 -29 -21 -37 -15 -38 rrcurveto
          243 -343 rmoveto
          -12 -13 -13 -12 -14 -11 rrcurveto
          -48 34 -65 67 56 vvcurveto
          16 5 14 12 13 vhcurveto
          42 -59 47 -58 46 -47 rrcurveto
          -117 407 rmoveto
          43 -9 44 -37 -36 vvcurveto
          -14 -7 -15 -17 -12 vhcurveto
          -29 40 -20 41 -14 42 rrcurveto
          endchar
        </CharString>
        <CharString name="aogonek">
          -75 callgsubr
        </CharString>
        <CharString name="aring">
          95 21 -69 callsubr
          -20 73 123 -9 callsubr
          103 41 -13 callgsubr
          332 hlineto
          64 -139 35 -175 -178 vvcurveto
          -8 -232 vlineto
          -3 41 -6 39 -8 38 -42 -43 -48 -40 -50 -35 rrcurveto
          -233 hlineto
          -5 29 -2 31 30 vvcurveto
          57 8 56 12 41 vhcurveto
          94 27 101 74 40 78 -17 27 -19 26 -21 24 rrcurveto
          164 -309 rmoveto
          -17 59 -22 55 -29 54 -31 -92 -18 -86 -5 -83 43 22 45 33 34 38 rrcurveto
          -45 367 -84 callgsubr
        </CharString>
        <CharString name="asciicircum">
          -242 362 -21 159 -20 hstem
          106 341 rmoveto
          108 87 109 -87 rlineto
          92 hlineto
          -151 159 rlineto
          -99 hlineto
          -152 -159 rlineto
          endchar
        </CharString>
        <CharString name="asciitilde">
          -223 187 70 -53 -21 41 33 41 -20 hstemhm
          hintmask 01110000
          134 224 rmoveto
          hintmask 10010000
          55 46 -37 56 hhcurveto
          55 27 10 12 22 hvcurveto
          37 89 rlineto
          -17 -21 -37 -24 -46 hhcurveto
          hintmask 01110000
          -56 -46 37 -56 hhcurveto
          -55 -27 -11 -11 -22 hvcurveto
          -37 -89 rlineto
          17 21 37 24 47 hhcurveto
          endchar
        </CharString>
        <CharString name="asterisk">
          -399 155 -21 103 48 99 -20 hstem
          9 232 rmoveto
          31 3 30 1 31 1 -16 -26 -17 -26 -17 -25 15 -9 15 -9 16 -8 41 79 rcurveline
          15 -26 14 -27 13 -26 46 26 rcurveline
          -18 25 -16 26 -16 26 31 -1 30 -1 31 -3 rrcurveto
          53 vlineto
          -1 -30 -30 -2 -30 hhcurveto
          16 25 15 26 17 25 -46 26 rcurveline
          -13 -28 -14 -27 -15 -27 -14 27 -14 27 -13 28 -46 -26 rcurveline
          48 -76 rlineto
          -30 -30 1 2 -30 hvcurveto
          endchar
        </CharString>
        <CharString name="at">
          -132 0 29 80 47 -30 249 97 28 hstemhm
          0 21 -1 28 443 29 hintmask 10111010
          202 375 rmoveto
          11 -13 9 -12 9 -13 -20 -40 -51 -35 -47 -15 rrcurveto
          -7 -20 -3 -26 -28 vvcurveto
          -16 1 -16 3 -15 vhcurveto
          116 hlineto
          3 10 64 55 -4 hhcurveto
          hintmask 11011010
          -50 17 34 -25 51 hhcurveto
          92 33 71 70 139 -111 111 -139 hvcurveto
          hintmask 11010110
          -139 -111 -111 -139 -139 111 -111 139 60 53 20 35 43 hvcurveto
          -20 21 rlineto
          -29 -39 -46 -18 -51 hhcurveto
          -123 -99 99 122 123 99 99 123 122 99 -99 -123 -27 -11 -67 -34 -29 -4 39 42 -8 hvcurveto
          hintmask 10111010
          -11 51 -10 46 -17 41 rrcurveto
          -83 -154 rmoveto
          -19 -20 -20 -16 -22 -11 3 43 8 42 16 45 15 -27 10 -27 9 -29 rrcurveto
          endchar
        </CharString>
        <CharString name="atilde">
          95 21 -69 callsubr
          -20 95 -43 callsubr
          -11 callsubr
          hintmask 11010110
          259 500 -107 callgsubr
          120 494 rmoveto
          -28 -27 -32 -19 -40 hhcurveto
          hintmask 11001110
          -46 -12 22 -51 hhcurveto
          -24 -28 -20 -17 -14 hvcurveto
          -13 -40 rlineto
          18 16 22 15 28 hhcurveto
          hintmask 11100110
          36 24 -41 52 hhcurveto
          88 -2 58 52 23 hvcurveto
          endchar
        </CharString>
        <CharString name="b">
          23 21 -21 434 66 hstem
          -100 callsubr
          endchar
        </CharString>
        <CharString name="backslash">
          -300 -93 -21 721 -20 hstem
          90 587 rmoveto
          13 -51 -30 7 -53 hhcurveto
          131 -231 110 -234 104 -236 10 -2 rcurveline
          -11 45 30 -7 48 hhcurveto
          -131 232 -110 233 -103 236 rrcurveto
          endchar
        </CharString>
        <CharString name="bar">
          -543 -98 -21 718 -20 hstem
          39 51 vstem
          99 -119 rmoveto
          -5 123 -4 118 123 vvcurveto
          116 4 122 5 116 vhcurveto
          -69 hlineto
          4 -123 5 -105 -124 vvcurveto
          -116 -5 -134 -3 -116 vhcurveto
          endchar
        </CharString>
        <CharString name="braceleft">
          -418 -93 9 callgsubr
          147 605 rmoveto
          -39 -64 -30 -80 -15 -85 -8 -42 0 -77 -50 -11 50 -13 -4 -59 5 -36 11 -83 26 -81 44 -68 60 -12 -14 1 66 -9 -30 80 -22 85 -11 87 -5 36 -12 59 -34 13 rrcurveto
          34 13 7 73 3 43 5 77 12 77 18 76 rrcurveto
          -32 0 0 -35 hhcurveto
          endchar
        </CharString>
        <CharString name="braceright">
          -420 -93 9 callgsubr
          107 -114 rmoveto
          39 65 30 80 15 85 7 42 0 76 52 12 -50 13 3 59 -4 35 -11 84 -26 80 -45 68 -59 12 14 0 -67 8 31 -79 20 -85 12 -88 4 -35 12 -60 35 -12 rrcurveto
          -36 -13 -5 -74 -2 -43 -5 -76 -14 -77 -17 -77 rrcurveto
          32 1 0 34 hhcurveto
          endchar
        </CharString>
        <CharString name="bracketleft">
          -423 -117 98 22 -21 524 -20 129 -20 hstemhm
          62 93 -93 105 hintmask 11111000
          234 605 rmoveto
          -54 -59 0 10 -63 hvcurveto
          3 -81 1 -82 -81 vvcurveto
          -160 -6 -160 -15 -160 vhcurveto
          -2 -1 33 -6 73 hhcurveto
          16 17 0 1 20 hvcurveto
          17 33 10 33 -21 callgsubr
          -8 -8 -1 -8 hhcurveto
          -19 -17 1 1 -18 hvcurveto
          -1 46 0 45 46 vvcurveto
          hintmask 11110100
          128 3 128 9 130 vhcurveto
          13 11 0 1 8 hvcurveto
          17 33 10 33 -21 callgsubr
          endchar
        </CharString>
        <CharString name="bracketright">
          -424 -95 -21 622 -20 129 -20 hstemhm
          37 146 -102 102 -89 89 hintmask 11110000
          208 605 rmoveto
          -1 -6 0 -9 -38 -96 4 7 -22 vhcurveto
          10 callgsubr
          -35 rrcurveto
          -4 18 30 -2 30 hhcurveto
          hintmask 11100100
          1 -45 0 -44 -45 vvcurveto
          hintmask 11101000
          -128 -3 -128 -10 -130 vhcurveto
          hintmask 11110000
          -14 2 -15 3 -15 2 -1 -35 -6 -35 -15 -34 rrcurveto
          -4 22 26 -1 27 hhcurveto
          32 34 2 1 29 hvcurveto
          -1 58 -1 58 58 vvcurveto
          181 7 180 18 183 vhcurveto
          endchar
        </CharString>
        <CharString name="breve">
          -369 538 55 hstem
          43 -31 callsubr
          endchar
        </CharString>
        <CharString name="brokenbar">
          -555 -99 9 callgsubr
          30 56 vstem
          92 323 rmoveto
          -4 45 -2 45 44 vvcurveto
          48 2 47 4 47 vhcurveto
          -67 hlineto
          3 -48 2 -47 -48 vvcurveto
          -44 -2 -45 -3 -44 vhcurveto
          67 -443 rmoveto
          -4 45 -2 44 45 vvcurveto
          48 2 47 4 48 vhcurveto
          -67 hlineto
          3 -48 2 -48 -48 vvcurveto
          -44 -2 -45 -3 -44 vhcurveto
          endchar
        </CharString>
        <CharString name="bullet">
          -494 171 172 hstem
          5 172 vstem
          92 343 rmoveto
          -48 -39 -38 -47 -48 39 -39 48 47 38 39 48 47 -38 38 -47 hvcurveto
          endchar
        </CharString>
        <CharString name="c">
          -36 callsubr
          hstem
          38 250 vstem
          -106 callsubr
          endchar
        </CharString>
        <CharString name="cacute">
          -36 callsubr
          0 27 130 -20 hstemhm
          38 250 hintmask 11011000
          -106 callsubr
          -290 182 rmoveto
          hintmask 10111000
          -104 callsubr
          endchar
        </CharString>
        <CharString name="caron">
          -411 575 -21 115 -20 hstem
          107 554 rmoveto
          49 hlineto
          -79 callsubr
        </CharString>
        <CharString name="ccaron">
          -36 callsubr
          -78 224 hstemhm
          38 250 hintmask 11010000
          -106 callsubr
          -311 56 rmoveto
          49 hlineto
          hintmask 10110000
          -79 callsubr
        </CharString>
        <CharString name="ccedilla">
          -40 -189 21 73 50 45 -21 466 78 hstem
          38 250 42 69 -24 callsubr
          10 9 0 1 10 hvcurveto
          -31 -90 rlineto
          6 16 19 9 11 hhcurveto
          19 13 -10 -16 -21 -19 -26 -44 hvcurveto
          6 -21 rlineto
          78 2 48 55 48 vvcurveto
          5 vlineto
          21 -3 -24 13 -21 -14 -16 -7 -13 hhcurveto
          12 35 130 14 80 54 67 52 rlinecurve
          -41 callgsubr
        </CharString>
        <CharString name="ccircumflex">
          -36 callsubr
          -78 113 115 3 callsubr
          -9 -35 -17 -51 -14 -33 rrcurveto
          -4 -42 -46 -2 -42 hhcurveto
          7 20 6 25 4 21 rrcurveto
          4 -23 -20 2 -21 hhcurveto
          -26 -27 -4 -7 -29 hvcurveto
          -11 -46 -4 -41 -36 vvcurveto
          -117 53 -70 85 -51 vhcurveto
          64 42 52 48 50 62 3 -37 1 -39 1 -46 rrcurveto
          -60 -77 -95 -64 -171 hhcurveto
          -23 hlineto
          -124 53 -69 113 109 vvcurveto
          138 112 131 247 61 67 -7 -18 77 vhcurveto
          hintmask 10111000
          -401 -43 callgsubr
        </CharString>
        <CharString name="cdotaccent">
          -36 callsubr
          0 52 103 -20 hstemhm
          38 250 hintmask 11011000
          -106 callsubr
          -322 180 -87 callgsubr
          hintmask 10111000
          -1 19 20 -1 19 -95 callgsubr
          -34 1 -33 -49 callgsubr
        </CharString>
        <CharString name="cedilla">
          -489 -185 21 73 50 63 -20 hstem
          99 69 vstem
          65 22 rmoveto
          -44 -128 rlineto
          6 16 19 9 11 hhcurveto
          19 13 -10 -16 -21 -19 -26 -44 hvcurveto
          6 -21 rlineto
          78 2 48 55 48 vvcurveto
          5 vlineto
          21 -3 -24 13 -21 -14 -16 -7 -13 hhcurveto
          24 70 rlineto
          endchar
        </CharString>
        <CharString name="cent">
          -9 -36 -21 56 -21 582 -20 hstem
          38 249 vstem
          602 498 rmoveto
          -70 16 -64 8 -56 1 2 12 3 12 3 13 rrcurveto
          -54 hlineto
          -2 -13 -2 -13 -3 -12 rrcurveto
          -222 -13 -99 -125 -131 vvcurveto
          -109 68 -113 124 -53 vhcurveto
          28 hlineto
          -2 -12 -2 -11 -3 -12 rrcurveto
          54 hlineto
          6 38 135 13 84 56 67 53 rlinecurve
          -1 44 -2 41 -3 37 -49 -62 -53 -49 -62 -41 -36 21 -30 24 -23 29 17 100 19 94 21 104 17 -1 18 -2 18 -3 -4 -21 -6 -25 -6 -22 42 1 46 2 42 4 rrcurveto
          14 33 17 50 9 37 rrcurveto
          -256 -56 rmoveto
          -14 -82 -12 -75 -15 -76 rrcurveto
          -11 29 -7 34 40 vvcurveto
          35 5 41 11 46 vhcurveto
          15 3 14 3 14 2 rrcurveto
          endchar
        </CharString>
        <CharString name="circumflex">
          -411 579 -21 115 -20 hstem
          17 558 -98 callgsubr
        </CharString>
        <CharString name="colon">
          -467 -6 98 247 97 11 -20 hstemhm
          hintmask 10100000
          30 102 rmoveto
          -1 -34 -6 -35 -16 callsubr
          -4 25 48 -2 39 hhcurveto
          17 15 9 callsubr
          32 10 33 -21 callgsubr
          -33 hlineto
          -46 -43 2 8 -46 hvcurveto
          345 vmoveto
          -1 -35 -6 -34 -16 callsubr
          hintmask 11000000
          -5 23 45 -1 37 hhcurveto
          20 18 0 1 12 hvcurveto
          17 -42 callgsubr
          -26 hlineto
          hintmask 10100000
          -49 -44 2 9 -49 hvcurveto
          endchar
        </CharString>
        <CharString name="comma">
          -457 -67 -21 103 -21 108 -20 hstem
          38 102 rmoveto
          -64 callsubr
          endchar
        </CharString>
        <CharString name="copyright">
          -131 0 29 443 28 hstem
          13 29 76 121 246 28 vstem
          393 371 rmoveto
          8 -37 -34 4 -29 hhcurveto
          -120 -55 -64 -67 -53 34 -55 60 -26 hvcurveto
          91 48 28 32 40 hvcurveto
          -3 60 -24 -30 -26 -24 -31 -20 rlinecurve
          -41 25 -27 34 58 vvcurveto
          17 3 20 5 22 vhcurveto
          3 14 13 2 13 hhcurveto
          10 10 -1 -2 11 hvcurveto
          -2 -10 -2 -12 -4 -10 rrcurveto
          21 22 1 2 21 hvcurveto
          7 16 8 25 4 17 rrcurveto
          -130 101 rmoveto
          123 99 -99 -123 -122 -99 -99 -123 -37 callgsubr
          endchar
        </CharString>
        <CharString name="currency">
          -360 91 -21 28 44 160 44 28 -20 hstem
          33 44 160 44 vstem
          157 346 rmoveto
          -23 -22 -6 -11 -18 hvcurveto
          -42 45 -16 -16 -15 -16 -16 -15 rlinecurve
          46 -41 rlineto
          -12 -19 -6 -22 -23 vvcurveto
          -23 6 -22 11 -18 vhcurveto
          -45 -42 47 -47 41 46 rlineto
          -12 19 22 -6 23 hhcurveto
          23 22 6 12 19 hvcurveto
          41 -46 15 16 16 15 16 16 rlinecurve
          -45 42 rlineto
          11 18 6 22 23 vvcurveto
          23 -6 22 -12 19 vhcurveto
          46 41 -16 15 -16 16 -15 16 rlinecurve
          -42 -45 rlineto
          11 -18 -22 6 -23 hhcurveto
          -44 vmoveto
          44 36 -36 -44 -44 -36 -36 -44 -44 -36 36 44 44 36 36 44 hvcurveto
          endchar
        </CharString>
        <CharString name="d">
          46 7 -21 537 -20 hstem
          445 227 vstem
          80 -57 callgsubr
          -4 -46 -2 -38 -44 vvcurveto
          -123 15 -124 24 -124 vhcurveto
          -8 60 54 -7 65 hhcurveto
          104 109 23 96 90 hvcurveto
          53 57 24 68 71 vvcurveto
          59 -15 59 -28 56 vhcurveto
          31 -78 -108 17 -128 hhcurveto
          -73 -78 -11 -12 -84 hvcurveto
          265 -52 rmoveto
          68 -7 32 -71 -84 vvcurveto
          -93 -40 -107 -75 -40 vhcurveto
          -2 34 -1 33 32 vvcurveto
          109 9 100 9 94 vhcurveto
          endchar
        </CharString>
        <CharString name="dagger">
          -254 -93 -21 468 67 184 -20 hstem
          175 63 vstem
          19 -4 callsubr
          -159 0 -157 -4 -158 vhcurveto
          22 22 0 23 hhcurveto
          -5 119 -2 119 118 vvcurveto
          39 0 40 -11 callgsubr
          -20 callsubr
        </CharString>
        <CharString name="daggerdbl">
          -269 -93 -21 177 63 228 67 184 -20 hstemhm
          14 219 -62 62 -62 213 hintmask 11111000
          14 -4 callsubr
          hintmask 11110100
          -39 1 -39 -39 -39 -1 -39 -39 vvcurveto
          hintmask 11111000
          -52 -52 2 3 -52 hvcurveto
          -23 0 -22 -23 vvcurveto
          52 4 52 2 51 1 -1 -61 -1 -61 -1 -62 rrcurveto
          22 22 0 23 hhcurveto
          -2 62 -2 61 -1 61 rrcurveto
          hintmask 11110010
          52 -1 52 -2 52 -4 rrcurveto
          23 0 22 23 vvcurveto
          -3 -52 -53 -2 -52 hhcurveto
          -1 39 0 39 39 vvcurveto
          39 0 39 -11 callgsubr
          rrcurveto
          hintmask 11111000
          -20 callsubr
        </CharString>
        <CharString name="dcaron">
          141 7 -21 537 -20 185 -20 hstem
          445 227 vstem
          80 -57 callgsubr
          -4 -46 -2 -38 -44 vvcurveto
          -123 15 -124 24 -124 vhcurveto
          -8 60 54 -7 65 hhcurveto
          104 109 23 96 90 hvcurveto
          53 57 24 68 71 vvcurveto
          59 -15 59 -28 56 vhcurveto
          31 -78 -108 17 -128 hhcurveto
          -73 -78 -11 -12 -84 hvcurveto
          265 -52 rmoveto
          68 -7 32 -71 -84 vvcurveto
          -93 -40 -107 -75 -40 vhcurveto
          -2 34 -1 33 32 vvcurveto
          109 9 100 9 94 vhcurveto
          288 240 rmoveto
          -1 -33 -6 -34 -16 callsubr
          -4 22 38 -2 35 hhcurveto
          -1 -20 -10 -30 -12 -22 15 -4 15 -2 16 -2 34 50 24 66 11 59 rrcurveto
          -60 -49 1 10 -56 hvcurveto
          endchar
        </CharString>
        <CharString name="dcroat">
          -100 callgsubr
        </CharString>
        <CharString name="degree">
          -427 406 213 hstem
          14 84 51 86 vstem
          104 585 rmoveto
          29 -20 16 -43 -40 vvcurveto
          -17 -3 -17 -6 -14 vhcurveto
          -26 17 -16 47 44 vvcurveto
          15 2 15 4 13 vhcurveto
          -57 -170 rmoveto
          -6 17 18 -3 16 hhcurveto
          77 60 61 68 26 -9 26 -19 25 hvcurveto
          5 -20 -18 2 -18 hhcurveto
          -81 -56 -49 -65 -28 10 -31 23 -31 hvcurveto
          endchar
        </CharString>
        <CharString name="dieresis">
          -328 575 97 -75 -21 102 -20 hstemhm
          hintmask 01100000
          48 678 -87 callgsubr
          hintmask 10000000
          -1 19 20 -1 19 hhcurveto
          hintmask 01100000
          14 13 1 13 hhcurveto
          hintmask 10000000
          -68 callgsubr
          rrcurveto
          hintmask 01100000
          -87 callsubr
          hintmask 10000000
          -1 19 19 -1 19 hhcurveto
          hintmask 01100000
          13 14 1 14 hhcurveto
          hintmask 10000000
          -49 callsubr
          hintmask 01100000
          -60 callgsubr
        </CharString>
        <CharString name="divide">
          -314 149 132 -44 44 0 34 54 -20 hstemhm
          152 54 hintmask 01011000
          50 232 rmoveto
          3 43 44 2 43 hhcurveto
          43 42 -2 -3 43 hvcurveto
          53 vlineto
          -3 -43 -43 -1 -43 hhcurveto
          -43 -43 1 3 -43 hvcurveto
          129 84 rmoveto
          -15 -12 -12 -15 hvcurveto
          hintmask 00111000
          -15 12 -12 15 15 12 12 15 15 -12 12 -15 vhcurveto
          -167 vmoveto
          -15 -12 -12 -14 hvcurveto
          hintmask 10011000
          -15 12 -12 15 15 12 12 15 14 -12 12 -15 vhcurveto
          endchar
        </CharString>
        <CharString name="dollar">
          -20 -58 102 -66 66 -66 159 237 148 -66 66 -66 104 -37 -20 hstemhm
          hintmask 01010000
          120 499 rmoveto
          -20 -28 -27 -45 -19 -38 57 -179 199 -58 88 -96 rrcurveto
          -7 -43 -56 -4 -48 hhcurveto
          -56 -31 12 36 hvcurveto
          hintmask 00110000
          12 4 15 7 18 vhcurveto
          -49 -1 -31 -1 -49 -2 -12 -33 -13 -57 -9 -42 57 -13 83 -8 86 -2 rrcurveto
          hintmask 10010000
          -1 -12 0 -12 -1 -12 rrcurveto
          22 21 0 21 hhcurveto
          -1 11 0 12 12 vvcurveto
          hintmask 01010000
          18 19 0 1 19 hvcurveto
          hintmask 10001000
          -1 -12 0 -12 -12 vvcurveto
          21 21 0 21 hhcurveto
          -1 12 0 13 13 vvcurveto
          60 4 54 7 38 10 38 60 20 52 16 70 -125 141 -173 -19 -96 140 rrcurveto
          8 35 43 3 47 hhcurveto
          57 34 -6 -35 hvcurveto
          hintmask 10010000
          -11 -4 -13 -6 -17 vhcurveto
          49 2 31 1 49 2 12 33 10 47 8 40 -65 13 -67 7 -65 3 rrcurveto
          hintmask 10000100
          12 1 13 13 vvcurveto
          -21 -21 0 -21 hhcurveto
          hintmask 10000010
          -13 0 -12 1 -12 vhcurveto
          -19 -19 -1 -1 -18 hvcurveto
          hintmask 10000100
          13 0 13 1 13 vhcurveto
          -21 -21 0 -22 hhcurveto
          1 -15 0 -14 1 -14 -41 -4 -39 -6 -38 -8 rrcurveto
          endchar
        </CharString>
        <CharString name="dotaccent">
          -522 596 -21 22 -21 102 -20 hstemhm
          hintmask 10100000
          41 678 -87 callgsubr
          -1 19 20 -1 19 hhcurveto
          hintmask 01100000
          -95 callgsubr
          -34 1 -33 -49 callgsubr
        </CharString>
        <CharString name="dotlessi">
          -47 callsubr
          71 -57 callgsubr
          9 -95 7 -92 -91 vvcurveto
          -80 -4 -74 -15 -68 vhcurveto
          240 hlineto
          25 159 8 157 157 vvcurveto
          27 vlineto
          endchar
        </CharString>
        <CharString name="e">
          -1 0 -1 callgsubr
          hintmask 10100100
          -77 callgsubr
          hintmask 01101000
          19 47 11 43 10 58 -120 5 rcurveline
          hintmask 10011000
          -97 callsubr
          hintmask 10100100
          -103 callgsubr
          endchar
        </CharString>
        <CharString name="eacute">
          -35 callsubr
          50 13 callgsubr
          hintmask 10110100
          -77 callgsubr
          19 47 11 43 10 58 -120 5 rcurveline
          -97 callsubr
          hintmask 11010100
          -103 callgsubr
          -283 180 rmoveto
          hintmask 11001100
          -104 callsubr
          endchar
        </CharString>
        <CharString name="ecaron">
          -1 0 -73 callgsubr
          -65 234 hstemhm
          hintmask 10100100
          -77 callgsubr
          hintmask 01101000
          19 47 11 43 10 58 -120 5 rcurveline
          hintmask 10011000
          -97 callsubr
          hintmask 10100100
          -103 callgsubr
          -303 54 rmoveto
          49 hlineto
          hintmask 10100010
          -79 callsubr
        </CharString>
        <CharString name="ecircumflex">
          -19 callsubr
          123 115 -20 hstemhm
          hintmask 10110010
          614 -57 callgsubr
          -7 -41 -13 -72 -12 -39 -42 -2 -25 -1 -41 -1 rrcurveto
          6 17 2 14 12 vvcurveto
          hintmask 10101010
          35 -25 13 -47 -18 -20 -2 -4 -22 vhcurveto
          -13 -55 -12 -56 -9 -56 rrcurveto
          24 26 38 13 35 30 33 -6 31 hhcurveto
          7 7 0 1 7 hvcurveto
          -47 -88 rlineto
          -9 hlineto
          -37 -36 21 -31 hhcurveto
          -25 -21 -11 -42 -19 hvcurveto
          -3 -33 -2 -33 -1 -32 rrcurveto
          -6 31 24 -4 27 hhcurveto
          9 hlineto
          54 35 19 68 16 hvcurveto
          hintmask 01110010
          120 -5 -10 -58 -11 -43 -19 -47 rlinecurve
          -491 hlineto
          -12 81 -8 98 101 vvcurveto
          74 4 75 10 71 vhcurveto
          hintmask 10100110
          143 58 -98 callgsubr
        </CharString>
        <CharString name="edieresis">
          -1 0 -73 callgsubr
          75 -21 callsubr
          hintmask 10100110
          -77 callgsubr
          hintmask 01101010
          19 47 11 43 10 58 -120 5 rcurveline
          hintmask 10011010
          -97 callsubr
          hintmask 10100110
          31 36 -21 37 hhcurveto
          9 hlineto
          47 88 rlineto
          -1 -7 -7 0 -7 -31 -33 6 -30 hhcurveto
          -35 -38 -13 -24 -26 hvcurveto
          9 56 12 56 13 55 7 callgsubr
          -12 -2 -14 -6 -17 hvcurveto
          hintmask 10100101
          41 1 25 1 42 2 12 39 13 72 7 41 rrcurveto
          -404 178 -87 callgsubr
          hintmask 10101010
          -1 19 20 -1 19 -95 callgsubr
          rrcurveto
          hintmask 10101001
          -87 callsubr
          hintmask 10101010
          -86 callsubr
          hintmask 10101001
          -60 callgsubr
        </CharString>
        <CharString name="edotaccent">
          -35 callsubr
          75 103 -20 hstemhm
          hintmask 10110100
          -77 callgsubr
          19 47 11 43 10 58 -120 5 rcurveline
          -97 callsubr
          hintmask 11010100
          -103 callgsubr
          -315 178 -87 callgsubr
          hintmask 11001100
          -1 19 20 -1 19 -95 callgsubr
          -34 1 -33 -49 callgsubr
        </CharString>
        <CharString name="egrave">
          -19 callsubr
          115 13 callgsubr
          hintmask 10110010
          614 -57 callgsubr
          -7 -41 -13 -72 -12 -39 -42 -2 -25 -1 -41 -1 rrcurveto
          6 17 2 14 12 vvcurveto
          hintmask 10101010
          35 -25 13 -47 -18 -20 -2 -4 -22 vhcurveto
          -13 -55 -12 -56 -9 -56 rrcurveto
          24 26 38 13 35 30 33 -6 31 hhcurveto
          7 7 0 1 7 hvcurveto
          -47 -88 rlineto
          -9 hlineto
          -37 -36 21 -31 hhcurveto
          -25 -21 -11 -42 -19 hvcurveto
          -3 -33 -2 -33 -1 -32 rrcurveto
          -6 31 24 -4 27 hhcurveto
          9 hlineto
          54 35 19 68 16 hvcurveto
          hintmask 01110010
          120 -5 -10 -58 -11 -43 -19 -47 rlinecurve
          -491 hlineto
          -12 81 -8 98 101 vvcurveto
          74 4 75 10 71 vhcurveto
          261 180 rmoveto
          -111 -14 rlineto
          hintmask 10100110
          29 -58 59 -30 60 -28 -33 callgsubr
          -51 33 -32 43 -20 54 rrcurveto
          endchar
        </CharString>
        <CharString name="eight">
          -140 21 -21 179 -21 277 66 hstem
          455 hmoveto
          36 43 17 36 19 63 -24 60 -53 58 -56 27 29 24 25 32 21 39 -7 40 -23 43 -36 36 rrcurveto
          -262 hlineto
          -35 -32 -21 -31 -23 -35 21 -51 25 -41 28 -37 -45 -28 -50 -43 -37 -45 21 -67 25 -44 36 -47 rrcurveto
          95 222 rmoveto
          64 -47 42 -61 8 -48 rrcurveto
          -59 5 -64 35 69 vvcurveto
          14 3 16 6 17 vhcurveto
          150 91 rmoveto
          -52 25 -40 37 -17 60 rrcurveto
          88 -5 29 -46 -39 vvcurveto
          -12 -3 -11 -5 -9 vhcurveto
          endchar
        </CharString>
        <CharString name="ellipsis">
          -15 -6 98 10 -20 hstemhm
          hintmask 01000000
          40 102 rmoveto
          -63 callsubr
          219 hmoveto
          -63 callsubr
          219 hmoveto
          -63 callsubr
          endchar
        </CharString>
        <CharString name="emacron">
          -1 0 -73 callgsubr
          87 63 5 -20 hstemhm
          hintmask 10101010
          70 -52 callsubr
          hintmask 10101001
          75 vlineto
          hintmask 10101010
          -3 -102 -78 -2 -102 hhcurveto
          hintmask 10100101
          -93 -94 2 3 -94 hvcurveto
          8 -155 -80 callgsubr
          hintmask 01101010
          19 47 11 43 10 58 -120 5 rcurveline
          hintmask 10011010
          -97 callsubr
          hintmask 10100110
          -103 callgsubr
          endchar
        </CharString>
        <CharString name="emdash">
          -75 163 55 -10 callgsubr
          156 rmoveto
          hintmask 10000000
          4 83 84 3 83 hhcurveto
          hintmask 01100000
          83 82 -3 -4 82 hvcurveto
          67 vlineto
          hintmask 10000000
          -3 -83 -82 -2 -83 hhcurveto
          hintmask 01100000
          -83 -83 2 3 -83 hvcurveto
          endchar
        </CharString>
        <CharString name="endash">
          -295 162 56 -10 callgsubr
          156 -47 callgsubr
        </CharString>
        <CharString name="eogonek">
          -1 -174 38 136 -1 callgsubr
          hintmask 11010100
          357 -136 rmoveto
          -16 -15 12 28 40 25 34 27 22 hvcurveto
          197 hlineto
          hintmask 10110100
          19 47 11 43 10 58 -120 5 rcurveline
          hintmask 11001100
          -97 callsubr
          hintmask 11010010
          31 36 -21 37 hhcurveto
          9 hlineto
          47 88 rlineto
          -1 -7 -7 0 -7 -31 -33 6 -30 hhcurveto
          -35 -38 -13 -24 -26 hvcurveto
          9 56 12 56 13 55 7 callgsubr
          -12 -2 -14 -6 -17 hvcurveto
          hintmask 11010100
          41 1 25 1 42 2 12 39 13 72 7 41 rrcurveto
          -536 hlineto
          -10 -71 -53 callgsubr
          -98 -29 callgsubr
          246 -56 callsubr
        </CharString>
        <CharString name="equal">
          -385 174 44 -28 -21 102 44 4 -20 hstemhm
          hintmask 01100000
          13 169 rmoveto
          hintmask 10100000
          3 42 42 2 41 hhcurveto
          hintmask 01100000
          45 44 -2 -3 45 hvcurveto
          52 vlineto
          hintmask 10100000
          -2 -46 -46 -1 -45 hhcurveto
          -41 -40 1 2 -41 hvcurveto
          hintmask 01100000
          45 vmoveto
          3 43 44 2 43 hhcurveto
          43 43 -2 -3 43 hvcurveto
          hintmask 10010000
          53 vlineto
          hintmask 10100000
          -3 -44 -43 -1 -43 hhcurveto
          hintmask 10010000
          -43 -43 1 3 -43 hvcurveto
          endchar
        </CharString>
        <CharString name="eth">
          -100 callgsubr
        </CharString>
        <CharString name="exclam">
          -370 -6 98 457 -20 hstem
          88 195 vstem
          15 549 rmoveto
          50 -134 18 -112 5 -149 24 -7 48 -7 28 -2 44 82 44 164 7 133 rrcurveto
          -228 -415 rmoveto
          -1 -34 -6 -35 -16 callsubr
          -4 25 48 -2 39 hhcurveto
          17 15 9 callsubr
          32 10 33 -21 callgsubr
          -33 hlineto
          -46 -43 2 8 -46 hvcurveto
          endchar
        </CharString>
        <CharString name="exclamdown">
          -370 -11 -21 457 98 hstem
          88 195 vstem
          283 hmoveto
          -7 133 -44 164 -44 82 -28 -2 -48 -7 -24 -7 -5 -149 -18 -112 -50 -134 rrcurveto
          40 447 rmoveto
          8 46 43 2 46 hhcurveto
          33 hlineto
          -8 32 -10 33 -17 32 rrcurveto
          1 -11 -15 0 -17 hhcurveto
          -39 -48 -2 -4 -25 hvcurveto
          15 -33 6 -35 1 -34 rrcurveto
          endchar
        </CharString>
        <CharString name="f">
          -71 callsubr
        </CharString>
        <CharString name="five">
          -187 21 -21 272 228 23 -20 hstemhm
          48 -57 callgsubr
          -24 -50 -15 -94 -77 vvcurveto
          -7 vlineto
          75 101 -17 -21 53 hvcurveto
          -43 -92 -68 -75 -104 -67 rrcurveto
          313 hlineto
          67 73 52 101 27 97 rrcurveto
          30 -73 -129 15 -82 hhcurveto
          hintmask 11100000
          7 43 14 47 15 29 rrcurveto
          152 hlineto
          17 21 2 3 13 hvcurveto
          19 33 5 16 21 34 rrcurveto
          -13 -44 -33 -10 -45 hhcurveto
          endchar
        </CharString>
        <CharString name="florin">
          -107 -94 -21 335 51 -50 50 277 -20 hstem
          221 216 vstem
          221 224 rmoveto
          -3 -95 -6 -91 -8 -83 -61 21 -51 26 -67 49 -3 -37 -2 -42 -1 -42 63 -25 63 -13 90 -7 62 29 74 29 63 59 rrcurveto
          2 40 1 39 40 -36 callgsubr
          78 -3 rlineto
          53 vlineto
          -1 -27 -27 -1 -26 hhcurveto
          -5 75 -8 75 -11 75 48 -17 43 -26 42 -40 rrcurveto
          4 33 1 31 42 vvcurveto
          -51 16 -45 9 -63 4 -63 -11 -44 -12 -65 -26 rrcurveto
          5 -76 1 -77 -76 vvcurveto
          -91 3 rlineto
          -53 vlineto
          30 2 30 1 30 1 rrcurveto
          endchar
        </CharString>
        <CharString name="four">
          -82 0 141 -66 66 -66 201 224 -20 hstemhm
          269 240 hintmask 00111000
          500 142 rmoveto
          5 58 4 19 57 vvcurveto
          -251 hlineto
          8 -50 3 -24 -45 vvcurveto
          hintmask 01011000
          -16 vlineto
          -51 -70 7 11 -41 hvcurveto
          18 15 95 82 137 117 50 127 rlinecurve
          -218 hlineto
          -16 -105 -63 -145 -87 -87 7 -31 5 -28 5 -29 rrcurveto
          225 hlineto
          hintmask 10011000
          -3 -27 -2 -24 -5 -24 rrcurveto
          230 hlineto
          hintmask 01011000
          9 75 rlineto
          50 hlineto
          16 35 9 20 19 46 -33 -20 -18 -7 -37 -7 rrcurveto
          endchar
        </CharString>
        <CharString name="g">
          -15 callgsubr
          hstemhm
          29 249 139 204 hintmask 10111000
          593 498 rmoveto
          17 -77 -68 8 -60 hhcurveto
          -249 -110 -132 -138 -109 68 -112 125 -54 hvcurveto
          64 hlineto
          116 85 5 17 120 hvcurveto
          11 93 3 78 89 vvcurveto
          -216 hlineto
          8 -65 4 -48 -56 -13 -1 -15 -14 vvcurveto
          -86 46 -52 108 108 vvcurveto
          36 5 40 11 47 vhcurveto
          7 29 27 4 28 hhcurveto
          20 20 -2 -4 21 hvcurveto
          hintmask 11011000
          -57 callsubr
          endchar
        </CharString>
        <CharString name="gbreve">
          -15 callgsubr
          15 55 hstemhm
          29 249 139 204 hintmask 10111100
          593 498 rmoveto
          17 -77 -68 8 -60 hhcurveto
          -249 -110 -132 -138 -109 68 -112 125 -54 hvcurveto
          64 hlineto
          116 85 5 17 120 hvcurveto
          11 93 3 78 89 vvcurveto
          -216 hlineto
          8 -65 4 -48 -56 -13 -1 -15 -14 vvcurveto
          -86 46 -52 108 108 vvcurveto
          36 5 40 11 47 vhcurveto
          7 29 27 4 28 hhcurveto
          20 20 -2 -4 21 hvcurveto
          hintmask 11011100
          -57 callsubr
          -368 71 rmoveto
          -15 24 25 -16 54 hhcurveto
          -90 callgsubr
          endchar
        </CharString>
        <CharString name="gcircumflex">
          -94 callgsubr
        </CharString>
        <CharString name="gdotaccent">
          3 -1 -21 282 112 -112 185 -73 151 -78 78 0 52 103 -20 hstemhm
          29 249 139 204 hintmask 1100101110000000
          593 498 rmoveto
          17 -77 -68 8 -60 hhcurveto
          -249 -110 -132 -138 -109 68 -112 125 -54 hvcurveto
          64 hlineto
          116 85 5 17 120 hvcurveto
          hintmask 1010011110000000
          11 93 3 78 89 vvcurveto
          -216 hlineto
          8 -65 4 -48 -56 -13 -1 -15 -14 vvcurveto
          -86 46 -52 108 108 vvcurveto
          36 5 40 11 47 vhcurveto
          7 29 27 4 28 hhcurveto
          20 20 -2 -4 21 hvcurveto
          hintmask 1001001110000000
          -57 callsubr
          -292 180 -87 callgsubr
          hintmask 1010011110000000
          -1 19 20 -1 19 -95 callgsubr
          -34 1 -33 -49 callgsubr
        </CharString>
        <CharString name="germandbls">
          -34 21 -21 610 -20 hstemhm
          64 202 0 107 hintmask 11010000
          269 hmoveto
          -2 35 -1 39 41 vvcurveto
          134 10 158 20 137 vhcurveto
          54 -12 64 -40 20 -38 -28 -51 -51 -56 -56 -34 rrcurveto
          47 -56 27 -78 -69 vvcurveto
          -15 -2 -14 -2 -14 vhcurveto
          -27 -27 17 26 -25 hvcurveto
          29 -110 rlineto
          207 hlineto
          29 47 24 60 19 65 -38 75 -56 60 -62 43 34 26 37 43 27 46 -22 54 -45 53 -44 38 rrcurveto
          -236 hlineto
          -46 -44 -50 -71 -30 -62 rrcurveto
          hintmask 11100000
          -2 -42 -1 -39 -39 vvcurveto
          -108 8 -100 15 -105 vhcurveto
          endchar
        </CharString>
        <CharString name="grave">
          -399 8 callsubr
          142 680 -88 callsubr
        </CharString>
        <CharString name="greater">
          -322 21 -21 441 -20 hstem
          344 221 rmoveto
          -220 220 rlineto
          -91 hlineto
          187 -220 -187 -221 rlineto
          91 hlineto
          endchar
        </CharString>
        <CharString name="guillemotleft">
          -310 -19 callgsubr
          267 -221 rmoveto
          81 hlineto
          -75 221 75 221 rlineto
          -81 hlineto
          -110 -221 rlineto
          endchar
        </CharString>
        <CharString name="guillemotright">
          -310 44 -21 442 -20 hstem
          355 -6 callgsubr
          -48 221 rmoveto
          -110 221 rlineto
          -81 hlineto
          75 -221 -75 -221 rlineto
          81 hlineto
          endchar
        </CharString>
        <CharString name="guilsinglleft">
          -474 -19 callgsubr
          endchar
        </CharString>
        <CharString name="guilsinglright">
          -474 44 -21 442 -20 hstem
          195 -6 callgsubr
          endchar
        </CharString>
        <CharString name="h">
          -91 callsubr
        </CharString>
        <CharString name="hcircumflex">
          -66 callgsubr
        </CharString>
        <CharString name="hungarumlaut">
          -262 8 callsubr
          123 -7 callsubr
          50 14 -59 callsubr
          endchar
        </CharString>
        <CharString name="hyphen">
          -40 callsubr
        </CharString>
        <CharString name="i">
          -47 callsubr
          71 500 -23 callsubr
        </CharString>
        <CharString name="iacute">
          21 -69 callsubr
          50 130 -20 hstem
          71 500 -91 callgsubr
          -147 180 -59 callsubr
          endchar
        </CharString>
        <CharString name="icircumflex">
          21 -69 callsubr
          -20 193 -20 hstem
          341 -57 callgsubr
          -27 vlineto
          -157 -8 -158 -25 -158 vhcurveto
          -240 hlineto
          14 68 5 75 79 vvcurveto
          90 -7 94 -9 94 vhcurveto
          12 58 -98 callgsubr
        </CharString>
        <CharString name="idieresis">
          -18 callsubr
          hintmask 11010000
          71 500 -91 callgsubr
          -269 178 -87 callgsubr
          hintmask 11100000
          -1 19 20 -1 19 -95 callgsubr
          rrcurveto
          hintmask 11010000
          -87 callsubr
          hintmask 11100000
          -86 callsubr
          hintmask 11010000
          -60 callgsubr
        </CharString>
        <CharString name="igrave">
          21 -69 callsubr
          -20 200 -20 hstem
          341 -57 callgsubr
          -27 vlineto
          -157 -8 -158 -25 -158 vhcurveto
          -240 hlineto
          14 68 5 75 79 vvcurveto
          90 -7 94 -9 94 vhcurveto
          131 180 -88 callsubr
        </CharString>
        <CharString name="imacron">
          -53 callsubr
        </CharString>
        <CharString name="iogonek">
          -58 callsubr
        </CharString>
        <CharString name="itilde">
          -60 callsubr
        </CharString>
        <CharString name="j">
          -141 -94 -21 615 -96 callsubr
          endchar
        </CharString>
        <CharString name="jcircumflex">
          -141 -94 -21 615 58 115 -96 callsubr
          9 603 -98 callgsubr
        </CharString>
        <CharString name="k">
          -102 callgsubr
        </CharString>
        <CharString name="kgreenlandic">
          -102 callgsubr
        </CharString>
        <CharString name="l">
          -70 -26 callgsubr
          hintmask 10110000
          274 77 -88 callgsubr
          rrcurveto
          hintmask 01110000
          -120 4 rlineto
          hintmask 10110000
          -48 callsubr
          endchar
        </CharString>
        <CharString name="lacute">
          -70 0 66 434 50 130 -20 hstem
          40 234 vstem
          274 77 -88 callgsubr
          -120 4 rcurveline
          -48 callsubr
          -26 603 -59 callsubr
          endchar
        </CharString>
        <CharString name="lcaron">
          -57 -17 callgsubr
          207 -20 hstemhm
          40 234 hintmask 10111000
          274 77 -88 callgsubr
          rrcurveto
          hintmask 01111000
          -120 4 rlineto
          hintmask 10111000
          -48 callsubr
          127 610 rmoveto
          -1 -33 -6 -34 -16 callsubr
          -4 22 38 -2 35 hhcurveto
          -1 -20 -10 -30 -12 -22 15 -4 15 -2 16 -2 34 50 24 66 11 59 rrcurveto
          -60 -49 1 10 -56 hvcurveto
          endchar
        </CharString>
        <CharString name="less">
          -322 21 -21 441 -20 hstem
          240 hmoveto
          91 hlineto
          -187 221 187 220 rlineto
          -91 hlineto
          -220 -220 rlineto
          endchar
        </CharString>
        <CharString name="logicalnot">
          -57 44 173 -55 55 5 -20 hstemhm
          501 61 hintmask 01010000
          50 155 rmoveto
          5 85 87 2 87 hhcurveto
          65 65 -1 -3 62 hvcurveto
          -30 vlineto
          hintmask 10010000
          -28 -1 -22 -2 -34 vhcurveto
          67 hlineto
          -2 31 -1 27 27 vvcurveto
          hintmask 00110000
          30 1 29 2 34 vhcurveto
          hintmask 10010000
          -3 -83 -88 -2 -87 hhcurveto
          hintmask 00110000
          -87 -87 2 3 -83 hvcurveto
          endchar
        </CharString>
        <CharString name="lslash">
          -67 callgsubr
        </CharString>
        <CharString name="m">
          380 21 -21 500 -102 callsubr
          endchar
        </CharString>
        <CharString name="minus">
          -295 228 56 -10 callgsubr
          222 -47 callgsubr
        </CharString>
        <CharString name="mu">
          95 -227 -21 241 92 -64 -69 callsubr
          -20 hstemhm
          58 144 -144 249 hintmask 11010100
          462 -57 callgsubr
          9 -90 7 -92 -87 vvcurveto
          -23 -1 -23 -1 -22 vhcurveto
          -47 -18 -34 -31 -51 hhcurveto
          -49 -17 24 54 hvcurveto
          14 vlineto
          6 111 7 108 14 104 rrcurveto
          -274 hlineto
          -1 -60 -1 -60 -60 vvcurveto
          -189 7 -191 18 -188 vhcurveto
          146 hlineto
          hintmask 11011000
          -15 87 -11 92 -1 92 rrcurveto
          -23 29 49 -7 39 hhcurveto
          68 64 23 41 29 hvcurveto
          hintmask 10111000
          -1 -19 -2 -20 -4 -18 rrcurveto
          225 hlineto
          27 166 7 168 166 vvcurveto
          endchar
        </CharString>
        <CharString name="multiply">
          -353 170 -21 220 -20 hstem
          50 186 rmoveto
          12 -12 12 -13 13 -12 23 27 24 26 25 26 25 -26 24 -26 24 -27 13 12 12 13 12 12 -27 24 -27 24 -25 25 26 25 26 24 27 23 -37 38 rcurveline
          -24 -27 -24 -26 -25 -26 -25 26 -24 26 -23 27 -37 -38 rcurveline
          26 -23 26 -24 25 -25 -25 -25 -26 -24 -26 -24 rrcurveto
          endchar
        </CharString>
        <CharString name="n">
          43 -47 callsubr
          -22 callsubr
          vstem
          -105 callsubr
          endchar
        </CharString>
        <CharString name="nacute">
          43 21 -69 callsubr
          50 130 -20 hstem
          -22 callsubr
          vstem
          -105 callsubr
          -293 180 -59 callsubr
          endchar
        </CharString>
        <CharString name="ncaron">
          43 21 -69 callsubr
          -20 189 -20 hstem
          -22 callsubr
          vstem
          -105 callsubr
          -313 54 rmoveto
          49 hlineto
          -79 callsubr
        </CharString>
        <CharString name="nine">
          -119 -47 callsubr
          28 191 83 229 vstem
          70 -57 callgsubr
          -28 -52 -14 -53 -55 vvcurveto
          -37 5 -39 15 -40 vhcurveto
          53 -16 81 -23 91 -4 -25 -71 -45 -65 -72 -45 rrcurveto
          300 hlineto
          72 75 28 111 100 vvcurveto
          92 -22 82 -31 40 vhcurveto
          -189 -263 rmoveto
          -27 7 -24 8 -19 19 3 46 31 73 40 45 rrcurveto
          6 -26 3 -28 -31 vvcurveto
          -35 -4 -37 -9 -41 vhcurveto
          endchar
        </CharString>
        <CharString name="ntilde">
          43 21 -69 callsubr
          -20 95 -43 callsubr
          -22 callsubr
          hintmask 11010111
          -105 callsubr
          -145 185 -85 callsubr
        </CharString>
        <CharString name="numbersign">
          -289 50 174 -174 175 -61 60 -60 61 73 58 -58 59 -59 171 hstemhm
          hintmask 00010100
          7 160 rmoveto
          24 2 23 1 24 1 rrcurveto
          hintmask 01000100
          -8 -38 -8 -38 -9 -38 rrcurveto
          67 hlineto
          5 39 5 38 6 39 rrcurveto
          12 13 1 12 12 13 -1 12 hhcurveto
          -8 -39 -8 -39 -10 -38 rrcurveto
          68 hlineto
          hintmask 00101000
          4 38 6 38 6 38 22 -1 23 -1 22 -2 12 67 rcurveline
          -69 -3 4 24 5 24 5 24 rlinecurve
          24 -1 24 -1 23 -2 5 22 4 23 4 22 -72 -3 rcurveline
          hintmask 01000010
          8 38 9 38 9 37 rrcurveto
          -67 hlineto
          -6 -38 -5 -38 -7 -38 rrcurveto
          -1 -12 -13 0 -12 hhcurveto
          -12 -12 0 1 -12 hvcurveto
          8 38 9 38 9 38 rrcurveto
          -67 hlineto
          hintmask 10001000
          -5 -37 -6 -38 -6 -38 -66 3 rcurveline
          -4 -22 -4 -23 -5 -22 23 2 23 1 22 1 -4 -24 -4 -24 -5 -24 -71 3 rcurveline
          127 -4 rmoveto
          4 25 5 25 5 25 rrcurveto
          76 hlineto
          -5 -25 -5 -25 -4 -25 rrcurveto
          -1 -13 -12 0 -13 hhcurveto
          -13 -13 0 1 -12 hvcurveto
          endchar
        </CharString>
        <CharString name="o">
          -34 callsubr
          hstem
          -58 callgsubr
          vstem
          123 3 -105 callgsubr
          endchar
        </CharString>
        <CharString name="oacute">
          -40 callgsubr
          27 130 -20 hstem
          -58 callgsubr
          vstem
          123 3 -105 callgsubr
          50 244 -59 callsubr
          endchar
        </CharString>
        <CharString name="ocircumflex">
          -34 callsubr
          170 -89 callgsubr
          -61 122 -98 callgsubr
        </CharString>
        <CharString name="odieresis">
          -34 callsubr
          72 -21 callsubr
          -58 callgsubr
          hintmask 11011100
          123 3 -105 callgsubr
          -72 242 -87 callgsubr
          hintmask 11101100
          -1 19 20 -1 19 -95 callgsubr
          rrcurveto
          hintmask 11011100
          -87 callsubr
          hintmask 11101100
          -86 callsubr
          hintmask 11011100
          -60 callgsubr
        </CharString>
        <CharString name="oe">
          -85 callgsubr
        </CharString>
        <CharString name="ogonek">
          -496 -174 38 147 -20 hstem
          16 65 vstem
          112 -136 rmoveto
          -16 -15 12 28 47 36 39 31 21 hvcurveto
          -44 hlineto
          -32 -16 -56 -44 -57 -38 callsubr
        </CharString>
        <CharString name="ograve">
          -34 callsubr
          177 -89 callgsubr
          58 244 -88 callsubr
        </CharString>
        <CharString name="ohungarumlaut">
          -40 callgsubr
          27 130 -20 hstem
          -58 callgsubr
          vstem
          123 3 -105 callgsubr
          -31 244 -59 callsubr
          50 14 -59 callsubr
          endchar
        </CharString>
        <CharString name="omacron">
          -34 callsubr
          84 63 5 -20 hstemhm
          -58 callgsubr
          hintmask 11101100
          54 580 rmoveto
          4 96 92 3 96 hhcurveto
          101 76 -4 -3 102 hvcurveto
          hintmask 11011100
          75 vlineto
          hintmask 11101100
          -3 -101 -80 -2 -101 hhcurveto
          hintmask 11011100
          -93 -93 2 3 -95 hvcurveto
          69 -652 rmoveto
          -17 49 46 -8 -23 callgsubr
          161 153 172 64 -21 67 -51 64 hvcurveto
          17 -56 -56 8 -53 hhcurveto
          -212 -144 -32 callgsubr
        </CharString>
        <CharString name="one">
          -240 -47 callsubr
          140 243 vstem
          263 -57 callgsubr
          -68 -58 -100 -56 -78 -29 21 -35 9 -17 15 -27 27 17 23 16 17 13 rrcurveto
          8 -64 3 -60 -60 vvcurveto
          -45 -2 -44 -3 -51 -16 callgsubr
          16 121 5 117 120 vvcurveto
          47 -1 48 -1 47 vhcurveto
          endchar
        </CharString>
        <CharString name="onehalf">
          273 -93 -21 33 47 -47 108 580 -20 hstemhm
          127 177 hintmask 11011000
          216 587 rmoveto
          -50 -42 -71 -18 callgsubr
          -49 3 -41 -43 -29 -4 -32 -34 vvcurveto
          -9 165 vlineto
          12 88 4 88 87 -36 callgsubr
          306 -303 rmoveto
          -29 -18 -32 -32 -25 -40 69 -21 rcurveline
          13 29 20 23 0 callgsubr
          -48 -46 vhcurveto
          347 hlineto
          hintmask 10111000
          13 24 12 46 5 38 -69 3 rcurveline
          hintmask 11011000
          -39 -15 -25 -25 0 callsubr
          70 -14 39 -32 39 -30 22 rrcurveto
          -267 303 -66 callsubr
        </CharString>
        <CharString name="onequarter">
          187 -93 -21 33 201 -146 146 487 -20 hstemhm
          94 178 hintmask 11011000
          184 587 rmoveto
          -51 -42 -70 -18 callgsubr
          -47 2 -43 -43 vvcurveto
          -34 -1 -33 -3 -37 vhcurveto
          166 hlineto
          12 88 4 88 87 -36 callgsubr
          511 -565 -1 callsubr
          4 -28 2 -16 -26 vvcurveto
          -17 vlineto
          -37 -51 5 8 -31 hvcurveto
          12 11 70 60 100 86 38 93 rlinecurve
          -159 hlineto
          -12 -78 -46 -104 -63 -65 rrcurveto
          hintmask 10111000
          12 -64 rlineto
          165 hlineto
          hintmask 11011000
          -2 -19 -3 -19 -3 -17 rrcurveto
          168 hlineto
          hintmask 10111000
          -5 callgsubr
          -290 565 -66 callsubr
        </CharString>
        <CharString name="onesuperior">
          -374 242 -21 366 -20 hstem
          101 177 vstem
          191 587 rmoveto
          -51 -43 -71 -18 callgsubr
          -48 3 -43 -44 vvcurveto
          -33 -1 -33 -3 -36 vhcurveto
          166 hlineto
          11 87 4 87 87 vvcurveto
          35 -1 35 -1 35 vhcurveto
          endchar
        </CharString>
        <CharString name="ordfeminine">
          -169 243 -21 365 -20 hstem
          21 176 vstem
          166 587 rmoveto
          15 -18 14 -18 13 -20 -29 -57 -74 -54 -69 -20 rrcurveto
          -9 -30 -6 -41 -42 vvcurveto
          -22 2 -22 3 -21 vhcurveto
          171 hlineto
          37 26 34 28 31 32 6 -28 4 -28 2 -30 rrcurveto
          170 hlineto
          132 -25 130 -48 103 vhcurveto
          -122 -225 rmoveto
          -25 -28 -33 -24 -31 -17 4 61 13 64 23 66 20 -38 16 -41 13 -43 rrcurveto
          endchar
        </CharString>
        <CharString name="ordmasculine">
          -250 230 -21 389 -20 hstem
          7 155 93 157 vstem
          68 225 rmoveto
          -11 33 32 -5 30 hhcurveto
          141 108 110 124 47 -16 49 -35 46 hvcurveto
          9 -36 -34 4 -32 hhcurveto
          -149 -103 -91 -118 -51 19 -57 42 -56 hvcurveto
          104 310 rmoveto
          54 -36 29 -81 -74 vvcurveto
          -31 -5 -30 -11 -25 vhcurveto
          -48 32 -29 87 81 vvcurveto
          27 3 27 7 23 vhcurveto
          endchar
        </CharString>
        <CharString name="oslash">
          -74 callgsubr
        </CharString>
        <CharString name="otilde">
          -34 callsubr
          72 -43 callsubr
          -58 callgsubr
          hintmask 11010111
          123 3 -105 callgsubr
          197 249 -85 callsubr
        </CharString>
        <CharString name="p">
          -7 21 -21 500 -98 callsubr
          endchar
        </CharString>
        <CharString name="paragraph">
          -238 -93 -21 653 47 hstemhm
          32 230 -56 56 57 56 hintmask 11101000
          205 586 rmoveto
          -97 -2 -76 -72 -88 vvcurveto
          hintmask 11011000
          -90 77 -72 97 vhcurveto
          -70 vlineto
          -108 -2 -91 -2 -107 vhcurveto
          66 hlineto
          -4 116 -2 100 115 vvcurveto
          108 2 107 3 107 vhcurveto
          11 6 1 5 6 4 -1 12 hhcurveto
          4 hlineto
          2 -112 2 -111 -111 vvcurveto
          -111 -2 -97 -3 -111 vhcurveto
          67 hlineto
          -4 116 -2 101 116 vvcurveto
          123 2 122 4 122 vhcurveto
          endchar
        </CharString>
        <CharString name="parenleft">
          -469 -93 9 callgsubr
          5 126 vstem
          102 605 rmoveto
          -61 -100 -36 -137 -136 vvcurveto
          -116 26 -116 61 -94 vhcurveto
          59 -12 -14 1 67 -9 rrcurveto
          -49 126 -24 139 143 vvcurveto
          103 12 105 26 103 vhcurveto
          endchar
        </CharString>
        <CharString name="parenright">
          -465 -93 9 callgsubr
          73 126 vstem
          102 -114 rmoveto
          61 100 36 137 136 vvcurveto
          116 -26 117 -61 93 vhcurveto
          -60 12 15 0 -67 8 rrcurveto
          49 -126 24 -139 -143 vvcurveto
          -103 -12 -105 -26 -103 vhcurveto
          endchar
        </CharString>
        <CharString name="percent">
          -132 -6 callsubr
          hintmask 11111011
          -44 callgsubr
          hintmask 11111101
          -45 callgsubr
          hintmask 11111011
          -44 callsubr
          endchar
        </CharString>
        <CharString name="period">
          -453 -6 98 10 -20 hstemhm
          hintmask 01000000
          40 102 rmoveto
          -63 callsubr
          endchar
        </CharString>
        <CharString name="periodcentered">
          -539 206 100 hstem
          15 100 vstem
          65 306 rmoveto
          -27 -23 -22 -28 -27 23 -23 27 28 22 23 27 28 -22 22 -28 hvcurveto
          endchar
        </CharString>
        <CharString name="perthousand">
          167 -6 callsubr
          29 103 63 105 hintmask 1111101111000000
          -44 callgsubr
          hintmask 1111110111000000
          -45 callgsubr
          hintmask 1111101111000000
          -44 callsubr
          369 208 rmoveto
          36 -24 20 -54 -49 vvcurveto
          -21 -4 -21 -7 -16 vhcurveto
          -32 21 -20 59 54 vvcurveto
          18 3 17 4 16 vhcurveto
          -69 -208 rmoveto
          -44 callsubr
          endchar
        </CharString>
        <CharString name="plus">
          -400 142 -21 108 48 103 -20 hstem
          113 44 vstem
          6 224 rmoveto
          3 36 35 2 36 hhcurveto
          -1 -36 -1 -36 -2 -36 rrcurveto
          53 hlineto
          -3 36 -2 36 36 vvcurveto
          36 36 -2 -3 36 hvcurveto
          53 vlineto
          -36 -2 -36 -1 -36 -1 rrcurveto
          36 2 35 3 36 vhcurveto
          -53 hlineto
          2 -36 1 -35 1 -36 -36 1 -35 1 -36 2 rrcurveto
          endchar
        </CharString>
        <CharString name="plusminus">
          -388 69 44 -28 -21 202 49 106 -20 hstemhm
          12 151 -45 45 -45 152 hintmask 10111000
          12 318 rmoveto
          -17 0 -18 -17 vvcurveto
          hintmask 10110100
          35 2 36 2 35 1 rrcurveto
          -36 -1 -36 -2 -36 vhcurveto
          17 18 0 18 hhcurveto
          -3 36 -2 36 36 vvcurveto
          hintmask 10110010
          36 -1 36 -2 35 -2 rrcurveto
          17 0 18 17 vvcurveto
          hintmask 10110100
          -2 -35 -36 -1 -36 hhcurveto
          35 2 36 3 35 vhcurveto
          -18 -18 0 -17 hhcurveto
          2 -35 1 -36 -35 vvcurveto
          hintmask 01111000
          -35 -36 1 2 -35 hvcurveto
          -201 vmoveto
          -18 0 -18 -17 vvcurveto
          hintmask 10111000
          3 42 41 2 42 hhcurveto
          hintmask 01110010
          44 45 -2 -3 44 hvcurveto
          17 0 18 18 vvcurveto
          hintmask 10111000
          -3 -45 -45 -1 -45 hhcurveto
          -41 -41 1 3 -41 hvcurveto
          endchar
        </CharString>
        <CharString name="q">
          -6 -22 99 -79 -21 24 -25 callgsubr
          hintmask 10011100
          -45 callsubr
          hintmask 01111100
          -90 callsubr
          endchar
        </CharString>
        <CharString name="question">
          -200 -6 98 388 69 hstem
          274 195 vstem
          15 526 rmoveto
          8 -43 15 -43 15 -31 rrcurveto
          -4 41 46 -3 41 hhcurveto
          -7 23 -6 27 -4 23 rrcurveto
          3 13 12 2 13 hhcurveto
          17 18 -3 -6 17 hvcurveto
          15 -27 5 -25 -24 vvcurveto
          -85 -67 -74 -24 -82 vhcurveto
          37 -9 26 -2 37 -4 32 95 141 65 13 106 rrcurveto
          79 -65 65 -188 -61 -57 -4 -19 -83 vhcurveto
          135 -424 rmoveto
          -1 -35 -6 -32 -15 -35 rrcurveto
          -4 27 48 -2 41 hhcurveto
          15 13 9 callsubr
          33 -42 callsubr
          -57 -54 -1 11 -57 hvcurveto
          endchar
        </CharString>
        <CharString name="questiondown">
          -183 -23 69 379 98 hstem
          274 195 vstem
          15 hmoveto
          8 42 15 44 15 31 rrcurveto
          4 41 46 3 41 hhcurveto
          -6 -22 -7 -29 -4 -22 rrcurveto
          -3 13 12 -2 13 hhcurveto
          18 17 3 6 17 hvcurveto
          14 26 6 26 24 vvcurveto
          84 -68 75 -23 82 vhcurveto
          37 9 26 2 37 4 31 -97 142 -62 13 -107 rrcurveto
          -79 -65 -65 -188 -61 -58 5 18 -82 vhcurveto
          135 415 rmoveto
          10 57 54 0 57 hhcurveto
          -8 32 -10 32 -17 33 rrcurveto
          1 -11 -14 0 -14 hhcurveto
          -41 -49 -2 -4 -26 hvcurveto
          15 -34 6 -34 1 -34 rrcurveto
          endchar
        </CharString>
        <CharString name="quotedbl">
          -441 353 221 hstem
          29 54 69 54 vstem
          212 353 rmoveto
          -39 callsubr
          -56 hmoveto
          -39 callsubr
          endchar
        </CharString>
        <CharString name="quotedblbase">
          -229 -67 -21 103 -21 108 -20 hstem
          38 102 rmoveto
          -64 callsubr
          224 hmoveto
          -64 callsubr
          endchar
        </CharString>
        <CharString name="quotedblleft">
          -273 445 -21 186 -20 hstem
          167 424 rmoveto
          -50 callsubr
          207 hmoveto
          -50 callsubr
          endchar
        </CharString>
        <CharString name="quotedblright">
          -270 434 -21 186 -20 hstem
          25 599 rmoveto
          -1 -33 -6 -34 -16 callsubr
          -4 22 38 -2 35 hhcurveto
          -1 -20 -10 -30 -12 -22 15 -4 15 -2 16 -2 34 50 24 66 11 59 rrcurveto
          -60 -49 1 10 -56 hvcurveto
          209 hmoveto
          -1 -33 -6 -34 -16 callsubr
          -4 22 38 -2 35 hhcurveto
          -1 -20 -10 -30 -12 -22 15 -4 15 -2 16 -2 34 50 24 66 11 59 rrcurveto
          -60 -49 1 10 -56 hvcurveto
          endchar
        </CharString>
        <CharString name="quoteleft">
          -480 442 -21 186 -20 hstem
          167 421 rmoveto
          -50 callsubr
          endchar
        </CharString>
        <CharString name="quoteright">
          -479 434 -21 186 -20 hstem
          25 599 rmoveto
          -1 -33 -6 -34 -16 callsubr
          -4 22 38 -2 35 hhcurveto
          -1 -20 -10 -30 -12 -22 15 -4 15 -2 16 -2 34 50 24 66 11 59 rrcurveto
          -60 -49 1 10 -56 hvcurveto
          endchar
        </CharString>
        <CharString name="quotesinglbase">
          -457 -67 -21 103 -21 108 -20 hstem
          38 102 rmoveto
          -64 callsubr
          endchar
        </CharString>
        <CharString name="quotesingle">
          -544 374 -21 221 -20 hstem
          38 54 vstem
          98 353 rmoveto
          -39 callsubr
          endchar
        </CharString>
        <CharString name="r">
          -12 callgsubr
          -95 callsubr
          endchar
        </CharString>
        <CharString name="racute">
          -12 callgsubr
          50 130 -95 callsubr
          23 247 -59 callsubr
          endchar
        </CharString>
        <CharString name="rcaron">
          -12 callgsubr
          -20 189 -20 hstem
          63 241 vstem
          421 225 rmoveto
          76 15 68 21 56 31 rrcurveto
          12 1 11 11 vvcurveto
          57 -7 46 -16 71 vhcurveto
          -522 hlineto
          -9 -68 -5 -70 -69 vvcurveto
          -99 10 -97 19 -97 vhcurveto
          218 hlineto
          -4 47 -2 46 47 vvcurveto
          16 0 16 1 17 vhcurveto
          59 -24 43 -72 13 -93 rrcurveto
          259 hlineto
          -11 84 -25 67 -35 51 rrcurveto
          -21 hlineto
          -56 -50 7 16 -60 hvcurveto
          -95 208 rmoveto
          35 -44 22 -35 15 -55 -24 -21 -31 -13 -35 -5 4 57 6 57 8 59 rrcurveto
          2 121 rmoveto
          49 hlineto
          -79 callsubr
        </CharString>
        <CharString name="registered">
          -123 1 29 97 249 97 28 hstem
          22 29 72 119 251 29 vstem
          301 239 rmoveto
          37 7 35 11 28 15 rrcurveto
          38 -2 23 -9 43 vhcurveto
          -260 hlineto
          -5 -34 -2 -35 -34 vvcurveto
          -50 4 -49 10 -47 vhcurveto
          109 hlineto
          -2 23 -2 23 24 8 1 8 8 vvcurveto
          29 -12 22 -36 7 -46 rrcurveto
          129 hlineto
          -5 41 -13 35 -17 24 rrcurveto
          -33 -27 3 9 -34 hvcurveto
          -29 234 rmoveto
          122 99 -99 -123 -122 -99 -99 -122 -37 callgsubr
          -18 -159 rmoveto
          17 -21 11 -19 8 -26 -12 -11 -16 -6 -17 -3 2 28 3 29 4 29 rrcurveto
          endchar
        </CharString>
        <CharString name="ring">
          -478 553 123 hstem
          23 55 41 54 vstem
          52 558 -84 callgsubr
        </CharString>
        <CharString name="s">
          -101 callgsubr
        </CharString>
        <CharString name="sacute">
          -26 callsubr
          27 130 -99 callgsubr
          -262 181 rmoveto
          hintmask 11001100
          -104 callsubr
          endchar
        </CharString>
        <CharString name="scaron">
          -37 -91 -21 58 21 -21 101 327 149 -77 77 146 -20 hstemhm
          hintmask 11010100
          575 499 rmoveto
          16 -74 -65 8 -58 hhcurveto
          -44 hlineto
          -69 -66 -8 -15 -62 hvcurveto
          -18 -30 -28 -55 -17 -38 29 -106 75 -59 72 -50 17 -12 rcurveline
          63 -44 63 -43 -92 vvcurveto
          -3 -10 -12 -1 -10 hhcurveto
          hintmask 10101100
          -93 callgsubr
          hintmask 11010100
          -4 -21 -5 -24 -8 -21 rrcurveto
          42 46 3 3 42 hvcurveto
          14 33 16 50 9 36 rrcurveto
          -282 55 rmoveto
          49 hlineto
          -79 callsubr
        </CharString>
        <CharString name="scedilla">
          -83 callsubr
        </CharString>
        <CharString name="scircumflex">
          -37 -91 -21 58 21 -21 101 333 143 -143 178 -112 77 150 -20 hstemhm
          hintmask 11010010
          575 499 rmoveto
          -9 -36 -16 -50 -14 -33 rrcurveto
          -3 -42 -46 -3 -42 hhcurveto
          8 21 5 24 4 21 rrcurveto
          hintmask 10100110
          4 -27 -30 2 -29 hhcurveto
          -28 -31 -2 -4 -29 hvcurveto
          61 -103 91 -17 89 -59 47 -31 78 -80 16 -89 -63 -82 -115 -70 -111 -21 rrcurveto
          9 -111 -77 49 -77 hhcurveto
          -30 -29 -7 -20 -32 hvcurveto
          15 43 21 42 23 43 rrcurveto
          8 hlineto
          hintmask 11010010
          149 64 -79 -1 95 hvcurveto
          10 12 1 3 10 hvcurveto
          92 -63 43 -63 44 vhcurveto
          -17 12 -72 50 -75 59 -29 106 rlinecurve
          17 38 28 55 18 30 rrcurveto
          15 62 66 8 69 hhcurveto
          44 hlineto
          58 65 -8 -16 74 hvcurveto
          hintmask 11001010
          -372 59 -98 callgsubr
        </CharString>
        <CharString name="section">
          -126 -115 60 -60 130 464 129 -127 127 -61 61 hstemhm
          hintmask 10010000
          128 594 rmoveto
          -15 -17 -34 -47 -18 -31 18 -65 43 -46 48 -39 -17 -2 -14 -3 -14 -3 -14 -18 -35 -46 -17 -31 42 -155 182 -49 68 -81 rrcurveto
          -11 -21 -34 -5 -35 hhcurveto
          -30 -30 4 8 -21 hvcurveto
          hintmask 01001000
          2 19 6 20 8 19 -113 -6 rcurveline
          -13 -30 -11 -35 -10 -38 rrcurveto
          -11 51 55 -10 74 hhcurveto
          19 hlineto
          67 70 8 7 33 hvcurveto
          24 34 39 69 13 48 -34 46 -41 28 -39 22 17 2 14 2 9 2 25 33 37 67 15 52 -92 121 -123 -13 -71 120 rrcurveto
          10 21 22 4 23 hhcurveto
          19 20 -3 -7 20 hvcurveto
          hintmask 10100000
          -2 -20 -5 -19 -7 -19 112 5 rcurveline
          12 31 12 35 11 38 rrcurveto
          11 -50 -67 9 -73 hhcurveto
          -22 hlineto
          -66 -34 -8 -6 -29 hvcurveto
          158 -397 rmoveto
          -27 20 -40 34 -24 34 16 5 21 5 16 1 39 -26 51 -35 22 -27 -16 -5 -28 -4 -30 -2 rrcurveto
          endchar
        </CharString>
        <CharString name="semicolon">
          -465 -66 -21 103 -21 97 247 0 98 10 -20 hstemhm
          hintmask 11110000
          34 447 rmoveto
          10 callgsubr
          -33 rrcurveto
          -5 24 43 -2 38 hhcurveto
          20 18 1 1 12 hvcurveto
          17 32 11 32 7 32 rrcurveto
          -27 hlineto
          hintmask 11101000
          -49 -44 2 8 -48 hvcurveto
          -344 vmoveto
          -1 -34 -6 -35 -16 callsubr
          -4 22 39 -2 36 hhcurveto
          -1 -21 -10 -30 -13 -22 16 -4 15 -3 16 -2 35 52 25 66 10 61 rrcurveto
          -60 -51 1 10 -57 hvcurveto
          endchar
        </CharString>
        <CharString name="seven">
          -125 354 146 -145 145 -65 65 hstemhm
          hintmask 01000000
          352 hmoveto
          67 120 75 200 46 180 rrcurveto
          -496 hlineto
          -2 -9 -11 -45 -11 -42 -8 -47 rlinecurve
          hintmask 10000000
          84 -3 rlineto
          hintmask 00100000
          63 13 28 18 73 hhcurveto
          16 hlineto
          33 26 -3 -3 19 hvcurveto
          -59 -155 -84 -155 -120 -119 rrcurveto
          endchar
        </CharString>
        <CharString name="six">
          -132 -47 callsubr
          32 230 82 192 vstem
          493 hmoveto
          28 52 15 53 56 vvcurveto
          37 -5 38 -15 40 vhcurveto
          -55 17 -80 22 -91 4 25 72 45 65 72 44 rrcurveto
          -300 hlineto
          -71 -77 -29 -107 -101 vvcurveto
          -92 23 -83 31 -40 vhcurveto
          188 264 rmoveto
          27 -7 24 -10 19 -17 -3 -47 -30 -72 -40 -46 rrcurveto
          -6 27 -3 29 33 vvcurveto
          35 3 35 9 40 vhcurveto
          endchar
        </CharString>
        <CharString name="slash">
          -300 -93 -21 721 -20 hstem
          284 587 -66 callsubr
        </CharString>
        <CharString name="space">
          -322 endchar
        </CharString>
        <CharString name="sterling">
          -84 -49 89 186 49 221 52 hstem
          219 195 vstem
          37 57 rmoveto
          -7 -18 -6 -20 -4 -18 39 -17 43 -10 59 -1 rrcurveto
          10 hlineto
          56 53 8 20 50 hvcurveto
          -31 63 70 -19 65 hhcurveto
          20 35 19 39 19 47 rrcurveto
          -23 -49 -53 -9 -53 hhcurveto
          -21 -21 1 3 -21 hvcurveto
          42 52 4 59 49 vvcurveto
          -2 22 rlineto
          80 49 hlineto
          -1 -31 -31 -1 -31 hhcurveto
          -31 84 -74 83 -30 56 rrcurveto
          58 65 -23 -59 43 hvcurveto
          3 30 3 34 31 vvcurveto
          -54 29 -53 9 -98 1 -36 -31 -38 -44 -25 -46 43 -51 30 -51 11 -50 rrcurveto
          -102 -52 hlineto
          35 2 35 1 35 1 -4 -54 -22 -54 -38 -42 -39 -1 -34 -6 -45 -13 rrcurveto
          endchar
        </CharString>
        <CharString name="t">
          -92 callgsubr
        </CharString>
        <CharString name="tcaron">
          214 -24 callgsubr
          187 -20 hstemhm
          202 244 0 113 hintmask 10110100
          472 435 rmoveto
          48 39 -22 -55 hvcurveto
          hintmask 11011000
          -78 callsubr
          hintmask 10111000
          -103 callsubr
          237 252 rmoveto
          -1 -33 -6 -34 -16 callsubr
          -4 22 38 -2 35 hhcurveto
          -1 -20 -10 -30 -12 -22 15 -4 15 -2 16 -2 34 50 24 66 11 59 rrcurveto
          -60 -49 1 10 -56 hvcurveto
          endchar
        </CharString>
        <CharString name="thorn">
          -63 callgsubr
        </CharString>
        <CharString name="three">
          -164 21 -21 357 143 hstemhm
          48 -57 callgsubr
          -11 -43 -10 -44 -11 -56 rrcurveto
          -1 27 33 -1 24 hhcurveto
          2 9 rlineto
          hintmask 11000000
          37 8 6 34 96 hhcurveto
          16 33 -2 -4 11 hvcurveto
          -22 -50 -43 -63 -56 -32 40 -8 57 -28 28 -20 -37 -69 -113 -105 -86 -54 rrcurveto
          313 hlineto
          78 65 45 79 24 54 -53 37 -90 39 -68 19 81 48 82 74 40 85 rrcurveto
          endchar
        </CharString>
        <CharString name="threequarters">
          249 -93 -21 33 201 -146 146 419 47 21 -20 hstemhm
          676 169 hintmask 11011100
          845 22 -1 callsubr
          5 -34 1 -16 -37 vvcurveto
          -37 -51 5 8 -31 hvcurveto
          70 53 111 102 38 94 rrcurveto
          -159 hlineto
          -11 -78 -46 -103 -63 -65 rrcurveto
          hintmask 10111100
          12 -64 rlineto
          164 hlineto
          hintmask 11011100
          -1 -19 -3 -19 -3 -17 rrcurveto
          168 hlineto
          hintmask 10111100
          -5 callgsubr
          -799 564 rmoveto
          -8 -31 -8 -32 -8 -41 rrcurveto
          -1 20 24 -1 17 hhcurveto
          1 2 0 3 2 vvcurveto
          28 6 5 24 71 hhcurveto
          11 25 -2 -3 8 hvcurveto
          -16 -36 -32 -47 -41 -23 28 -6 43 -20 20 -15 -26 -50 -84 -77 -62 -39 rrcurveto
          229 hlineto
          56 47 34 58 17 40 -38 27 -68 28 -48 13 58 35 62 55 28 62 rrcurveto
          187 1 -66 callsubr
        </CharString>
        <CharString name="threesuperior">
          -274 242 -21 318 48 hstem
          55 587 rmoveto
          -8 -32 -8 -32 -7 -41 rrcurveto
          -1 19 25 -1 17 hhcurveto
          2 8 rlineto
          28 6 4 23 70 hhcurveto
          12 24 -2 -3 8 hvcurveto
          -16 -36 -31 -47 -42 -23 29 -6 43 -20 20 -15 -27 -50 -83 -77 -63 -39 rrcurveto
          229 hlineto
          57 47 34 58 16 40 -37 27 -68 29 -49 13 58 34 62 55 28 63 rrcurveto
          endchar
        </CharString>
        <CharString name="tilde">
          -361 575 -43 callsubr
          hintmask 01010000
          301 685 rmoveto
          -28 -27 -32 -19 -40 hhcurveto
          hintmask 00110000
          -46 -12 22 -51 hhcurveto
          -24 -28 -20 -17 -14 hvcurveto
          -13 -40 rlineto
          18 16 22 15 28 hhcurveto
          hintmask 10010000
          36 24 -41 52 hhcurveto
          88 -2 58 52 23 hvcurveto
          endchar
        </CharString>
        <CharString name="trademark">
          205 251 249 hstemhm
          129 123 0 55 34 118 174 77 0 116 hintmask 10111000
          264 468 rmoveto
          24 19 -11 -26 -5 -1 -6 -1 -6 hvcurveto
          18 -2 15 0 18 -2 11 31 6 27 6 32 rrcurveto
          -332 hlineto
          -18 -86 12 -2 15 -1 13 -1 rlinecurve
          10 hlineto
          6 29 14 20 31 9 rrcurveto
          hintmask 11010100
          -1 -15 0 -15 -15 vvcurveto
          -58 5 -57 12 -57 vhcurveto
          109 hlineto
          -2 24 -1 23 24 vvcurveto
          48 4 49 8 49 vhcurveto
          176 32 rmoveto
          158 hlineto
          13 -36 9 -37 6 -38 rrcurveto
          15 27 10 35 26 vvcurveto
          9 -1 8 -3 6 vhcurveto
          143 hlineto
          25 -69 10 -108 1 -72 rrcurveto
          -116 hlineto
          -2 55 -11 64 -16 54 rrcurveto
          hintmask 11011000
          -26 -50 -19 -52 -3 -71 rrcurveto
          -98 hlineto
          -8 65 -16 57 -25 52 rrcurveto
          -16 -38 -11 -38 -41 vvcurveto
          -19 2 -19 5 -19 vhcurveto
          -121 hlineto
          -3 16 -1 16 16 vvcurveto
          27 4 27 6 20 vhcurveto
          46 13 49 35 21 38 -8 14 -9 14 -10 13 rrcurveto
          endchar
        </CharString>
        <CharString name="two">
          -103 0 65 -65 148 352 -20 hstemhm
          hintmask 10100000
          153 -57 callgsubr
          -40 -25 -44 -43 -35 -55 33 -9 30 -11 32 -9 17 40 28 31 32 23 rrcurveto
          35 -27 14 -31 -36 vvcurveto
          -119 -156 -156 -70 -67 vhcurveto
          -7 -6 rlineto
          475 hlineto
          hintmask 01100000
          16 35 16 60 8 53 -95 5 rcurveline
          hintmask 10100000
          -55 -20 -34 -33 -84 hhcurveto
          -35 -35 2 4 -33 hvcurveto
          156 89 119 106 52 98 -19 53 -43 52 -41 31 rrcurveto
          endchar
        </CharString>
        <CharString name="twosuperior">
          -246 221 47 -47 108 258 -20 hstemhm
          hintmask 10100000
          124 587 rmoveto
          -29 -19 -32 -32 -25 -39 24 -7 22 -8 23 -7 13 30 20 22 0 callgsubr
          -47 -46 vhcurveto
          347 hlineto
          hintmask 01100000
          12 25 13 45 4 38 -30 2 -9 0 -30 1 rrcurveto
          hintmask 10100000
          -38 -14 -26 -26 0 callsubr
          71 -14 39 -32 39 -30 22 rrcurveto
          endchar
        </CharString>
        <CharString name="u">
          -34 callgsubr
          hstem
          -38 callgsubr
          vstem
          530 500 -51 callgsubr
        </CharString>
        <CharString name="uacute">
          -41 callsubr
          50 130 -20 hstem
          -38 callgsubr
          vstem
          530 500 -107 callsubr
          -312 180 -59 callsubr
          endchar
        </CharString>
        <CharString name="ubreve">
          -34 callgsubr
          58 55 hstem
          -38 callgsubr
          vstem
          530 500 -107 callsubr
          -377 69 rmoveto
          -15 24 25 -16 54 hhcurveto
          -90 callgsubr
          endchar
        </CharString>
        <CharString name="ucircumflex">
          -34 callgsubr
          193 -20 hstem
          -38 callgsubr
          vstem
          658 -57 callgsubr
          3 -49 1 -50 -51 vvcurveto
          -103 -5 -105 -11 -97 vhcurveto
          -42 -65 -91 -25 -93 hhcurveto
          -127 -105 22 45 -80 hvcurveto
          -9 75 -4 65 66 vvcurveto
          76 5 77 10 96 vhcurveto
          269 hlineto
          -27 -145 -14 -140 -1 -132 rrcurveto
          -17 19 40 -21 65 hhcurveto
          66 31 14 14 21 hvcurveto
          2 33 0 31 31 vvcurveto
          110 -9 104 -19 118 vhcurveto
          -294 58 -98 callgsubr
        </CharString>
        <CharString name="udieresis">
          -34 callgsubr
          95 97 6 -10 callsubr
          hintmask 11011100
          530 500 -107 callsubr
          -433 178 -87 callgsubr
          hintmask 11101100
          -1 19 20 -1 19 -95 callgsubr
          rrcurveto
          hintmask 11011100
          -87 callsubr
          hintmask 11101100
          -86 callsubr
          hintmask 11011100
          -60 callgsubr
        </CharString>
        <CharString name="ugrave">
          -34 callgsubr
          200 -20 hstem
          -38 callgsubr
          vstem
          658 -57 callgsubr
          3 -49 1 -50 -51 vvcurveto
          -103 -5 -105 -11 -97 vhcurveto
          -42 -65 -91 -25 -93 hhcurveto
          -127 -105 22 45 -80 hvcurveto
          -9 75 -4 65 66 vvcurveto
          76 5 77 10 96 vhcurveto
          269 hlineto
          -27 -145 -14 -140 -1 -132 rrcurveto
          -17 19 40 -21 65 hhcurveto
          66 31 14 14 21 hvcurveto
          2 33 0 31 31 vvcurveto
          110 -9 104 -19 118 vhcurveto
          -176 180 -88 callsubr
        </CharString>
        <CharString name="uhungarumlaut">
          -41 callsubr
          50 130 -20 hstem
          -38 callgsubr
          vstem
          530 500 -107 callsubr
          -345 180 -59 callsubr
          50 14 -59 callsubr
          endchar
        </CharString>
        <CharString name="umacron">
          -72 callgsubr
        </CharString>
        <CharString name="underscore">
          -140 8 56 -42 -21 68 -20 hstemhm
          hintmask 01100000
          16 1 rmoveto
          hintmask 10000000
          4 83 83 3 83 hhcurveto
          hintmask 01100000
          83 82 -3 -4 83 hvcurveto
          68 vlineto
          hintmask 10000000
          -4 -83 -83 -1 -83 hhcurveto
          hintmask 01100000
          -83 -83 1 4 -82 hvcurveto
          endchar
        </CharString>
        <CharString name="uni00A0">
          -672 endchar
        </CharString>
        <CharString name="uni00AD">
          -40 callsubr
        </CharString>
        <CharString name="uni0122">
          -6 -212 -21 211 99 -76 -25 callgsubr
          hintmask 11011100
          -45 callsubr
          hintmask 10111100
          -90 callsubr
          -14 -478 rmoveto
          -10 56 52 -1 60 hhcurveto
          -11 -61 -25 -66 -34 -52 -16 2 -16 3 -15 4 rrcurveto
          13 22 10 30 21 vvcurveto
          -35 -39 2 4 -22 hvcurveto
          15 33 6 35 1 34 rrcurveto
          endchar
        </CharString>
        <CharString name="uni0123">
          -6 -212 -21 211 99 -76 -25 callgsubr
          hintmask 11011100
          -45 callsubr
          hintmask 10111100
          -90 callsubr
          -14 -478 rmoveto
          -10 56 52 -1 60 hhcurveto
          -11 -61 -25 -66 -34 -52 -16 2 -16 3 -15 4 rrcurveto
          13 22 10 30 21 vvcurveto
          -35 -39 2 4 -22 hvcurveto
          15 33 6 35 1 34 rrcurveto
          endchar
        </CharString>
        <CharString name="uni0136">
          35 -13 callsubr
          10 callsubr
          0 91 7 -20 35 -20 hstemhm
          41 236 hintmask 11010110
          293 292 rmoveto
          9 67 15 70 17 71 rrcurveto
          -278 hlineto
          -8 -80 -7 -80 -79 vvcurveto
          -88 8 -88 11 -85 vhcurveto
          220 hlineto
          -2 27 -1 27 28 vvcurveto
          46 3 47 4 47 vhcurveto
          50 -31 51 -93 22 -98 rrcurveto
          259 hlineto
          hintmask 11100110
          -5 80 -13 107 -23 57 -95 4 -73 11 -68 17 27 61 31 46 51 42 rrcurveto
          -11 33 32 -5 34 hhcurveto
          16 hlineto
          30 35 28 38 27 40 rrcurveto
          hintmask 11101010
          -14 -29 -33 -1 -33 hhcurveto
          -33 hlineto
          hintmask 11100110
          -22 -22 -1 -4 -21 hvcurveto
          -97 -49 -60 -71 -55 -90 rrcurveto
          -21 -325 rmoveto
          -1 -33 -6 -30 -16 callsubr
          -4 22 38 -2 35 hhcurveto
          -1 -20 -10 -30 -12 -22 15 -4 15 -2 16 -2 34 50 24 73 11 59 rrcurveto
          endchar
        </CharString>
        <CharString name="uni0137">
          35 -13 callsubr
          10 callsubr
          0 91 7 -20 35 -20 hstemhm
          41 236 hintmask 11010110
          293 292 rmoveto
          9 68 15 68 17 72 rrcurveto
          -278 hlineto
          -8 -80 -7 -79 -80 vvcurveto
          -88 8 -88 11 -85 vhcurveto
          220 hlineto
          -2 27 -1 27 28 vvcurveto
          47 3 46 4 47 vhcurveto
          50 -32 52 -91 21 -99 rrcurveto
          259 hlineto
          hintmask 11100110
          -5 80 -12 109 -24 55 -96 4 -72 11 -68 17 27 61 31 45 51 43 rrcurveto
          -11 32 33 -5 34 hhcurveto
          16 hlineto
          31 35 27 38 27 40 rrcurveto
          hintmask 11101010
          -15 -29 -33 0 -33 hhcurveto
          -33 hlineto
          hintmask 11100110
          -23 -21 -1 -4 -21 hvcurveto
          -97 -49 -60 -72 -55 -89 rrcurveto
          -21 -325 -28 callsubr
        </CharString>
        <CharString name="uni013B">
          -70 -13 callsubr
          -26 callgsubr
          hintmask 11001100
          274 77 -88 callgsubr
          rrcurveto
          hintmask 10011100
          -120 4 rlineto
          hintmask 10101100
          -48 callsubr
          hintmask 11001100
          -41 -110 rmoveto
          -1 -33 -6 -30 -16 callsubr
          -4 22 38 -2 35 hhcurveto
          -1 -20 -10 -30 -12 -22 15 -4 15 -2 16 -2 34 50 24 73 11 59 rrcurveto
          endchar
        </CharString>
        <CharString name="uni013C">
          -70 -13 callsubr
          -26 callgsubr
          hintmask 11001100
          274 77 -88 callgsubr
          rrcurveto
          hintmask 10011100
          -120 4 rlineto
          hintmask 10101100
          -48 callsubr
          hintmask 11001100
          -41 -110 rmoveto
          -1 -33 -6 -30 -16 callsubr
          -4 22 38 -2 35 hhcurveto
          -1 -20 -10 -30 -12 -22 15 -4 15 -2 16 -2 34 50 24 73 11 59 rrcurveto
          endchar
        </CharString>
        <CharString name="uni0145">
          43 -194 -21 236 -69 callsubr
          -20 hstem
          -22 callsubr
          vstem
          527 -57 callgsubr
          27 -100 6 -81 -87 vvcurveto
          -85 55 -112 115 -56 98 rrcurveto
          -284 hlineto
          26 -55 16 -20 21 -32 rrcurveto
          7 -43 3 -50 -55 vvcurveto
          -80 -7 -85 -13 -80 vhcurveto
          117 hlineto
          3 45 2 46 43 vvcurveto
          56 -3 50 -5 43 vhcurveto
          85 -93 129 -115 142 -75 rrcurveto
          96 hlineto
          7 97 3 96 97 vvcurveto
          70 -2 70 -4 70 vhcurveto
          -365 -533 -28 callsubr
        </CharString>
        <CharString name="uni0146">
          43 -194 -21 236 -69 callsubr
          -20 hstem
          -22 callsubr
          vstem
          -105 callsubr
          -365 -533 rmoveto
          165 hlineto
          -11 -59 -24 -73 -34 -50 -16 2 -15 2 -15 4 12 22 10 30 1 20 rrcurveto
          -35 -38 2 4 -22 hvcurveto
          15 33 6 30 1 33 rrcurveto
          endchar
        </CharString>
        <CharString name="uni0156">
          -79 callgsubr
        </CharString>
        <CharString name="uni0157">
          -79 callgsubr
        </CharString>
        <CharString name="uni0162">
          -104 callgsubr
        </CharString>
        <CharString name="uni0163">
          -104 callgsubr
        </CharString>
        <CharString name="uni0218">
          -82 callgsubr
        </CharString>
        <CharString name="uni0219">
          -82 callgsubr
        </CharString>
        <CharString name="uni021A">
          -104 callgsubr
        </CharString>
        <CharString name="uni021B">
          -104 callgsubr
        </CharString>
        <CharString name="uni0401">
          -29 0 66 -66 153 53 93 -72 72 49 152 -66 66 75 -21 callsubr
          hintmask 10100110
          67 -57 callgsubr
          -9 -70 -4 -75 -73 vvcurveto
          -101 7 -100 -29 callgsubr
          477 hlineto
          19 46 10 44 10 59 rrcurveto
          hintmask 01101010
          -117 4 rlineto
          hintmask 10011010
          -67 -15 -35 -20 -52 hhcurveto
          -30 -25 3 8 -33 hvcurveto
          1 32 2 32 3 33 rrcurveto
          40 17 20 13 26 hhcurveto
          hintmask 10100110
          30 35 -21 36 hhcurveto
          9 hlineto
          46 88 rlineto
          -1 -7 -6 0 -7 -31 -32 6 -29 hhcurveto
          -34 -37 -13 -24 -25 hvcurveto
          8 56 11 56 13 55 rrcurveto
          3 18 17 2 14 hhcurveto
          9 hlineto
          46 25 -12 -35 -12 -2 -14 -6 -17 hvcurveto
          hintmask 10100101
          40 1 24 1 41 2 11 39 13 71 7 42 rrcurveto
          -378 178 -87 callgsubr
          hintmask 10101010
          -1 19 20 -1 19 -95 callgsubr
          rrcurveto
          hintmask 10101001
          -87 callsubr
          hintmask 10101010
          -86 callsubr
          hintmask 10101001
          -60 callgsubr
        </CharString>
        <CharString name="uni0402">
          -81 callsubr
        </CharString>
        <CharString name="uni0403">
          -69 21 -21 348 152 -65 65 0 50 13 callgsubr
          51 235 hintmask 10011100
          -12 callsubr
          183 -166 rmoveto
          -178 -179 0 -178 hhcurveto
          -39 callgsubr
          69 79 0 69 hhcurveto
          -32 callsubr
          hintmask 10101100
          4 22 21 2 17 hhcurveto
          47 25 -13 -35 -12 -2 -14 -6 -17 hvcurveto
          hintmask 11001100
          -30 callgsubr
        </CharString>
        <CharString name="uni0404">
          -55 -1 -21 272 83 45 145 -79 79 hstemhm
          26 250 hintmask 11011000
          591 498 rmoveto
          17 -77 -68 8 -60 hhcurveto
          -247 -113 -132 -138 -109 70 -113 123 -53 hvcurveto
          23 hlineto
          172 95 65 60 77 hvcurveto
          -1 44 -2 41 -3 37 -50 -62 -52 -49 -63 -41 -54 32 -41 39 -23 55 rrcurveto
          42 22 24 9 28 28 31 -9 31 4 4 1 5 hhcurveto
          49 89 rlineto
          -1 -9 -10 0 -9 -31 -28 3 -28 hhcurveto
          -50 -43 -10 -54 -36 hvcurveto
          -2 14 -1 14 15 vvcurveto
          36 5 39 11 46 vhcurveto
          7 28 27 4 27 hhcurveto
          21 20 -2 -4 23 hvcurveto
          -4 -21 -6 -25 -7 -20 rrcurveto
          hintmask 11101000
          41 1 47 2 42 3 15 33 16 51 9 36 rrcurveto
          endchar
        </CharString>
        <CharString name="uni0405">
          -101 callgsubr
        </CharString>
        <CharString name="uni0406">
          -47 callsubr
          71 500 -23 callsubr
        </CharString>
        <CharString name="uni0407">
          21 -69 callsubr
          -20 96 96 6 -20 hstemhm
          85 247 hintmask 11011000
          66 -57 callgsubr
          12 -86 7 -97 -95 vvcurveto
          -77 -5 -76 -9 -69 -16 callgsubr
          23 128 11 132 138 -36 callgsubr
          -259 178 rmoveto
          11 callgsubr
          33 34 0 33 hhcurveto
          17 32 11 33 7 32 rrcurveto
          hintmask 11011000
          -35 1 -34 2 -35 3 rrcurveto
          183 hmoveto
          11 callgsubr
          34 33 0 34 hhcurveto
          16 32 11 33 -21 callgsubr
          hintmask 11011000
          -36 1 -34 -49 callgsubr
        </CharString>
        <CharString name="uni0408">
          -141 -94 -21 615 -96 callsubr
          endchar
        </CharString>
        <CharString name="uni0409">
          -67 callsubr
        </CharString>
        <CharString name="uni040A">
          -69 callgsubr
        </CharString>
        <CharString name="uni040B">
          -70 callgsubr
        </CharString>
        <CharString name="uni040C">
          -76 callgsubr
        </CharString>
        <CharString name="uni040E">
          -78 callgsubr
        </CharString>
        <CharString name="uni040F">
          -20 -75 -21 98 61 437 -20 hstem
          49 232 234 99 vstem
          488 -57 callgsubr
          18 -115 9 -104 -108 vvcurveto
          -27 -1 -28 -1 -28 vhcurveto
          -13 -20 -30 -14 -64 hhcurveto
          -62 -38 21 15 -18 hvcurveto
          128 14 134 26 139 vhcurveto
          -258 hlineto
          -9 -91 -5 -75 -73 vvcurveto
          -64 4 -62 8 -72 vhcurveto
          62 -34 79 -21 92 -6 -1 -31 -3 -30 -7 -30 rrcurveto
          -5 13 26 -2 20 hhcurveto
          8 8 0 1 6 hvcurveto
          7 32 6 32 3 31 83 4 78 23 58 36 rrcurveto
          10 92 5 99 98 vvcurveto
          50 -1 50 -3 48 vhcurveto
          endchar
        </CharString>
        <CharString name="uni0410">
          95 -47 callsubr
          61 240 vstem
          259 500 -107 callgsubr
          endchar
        </CharString>
        <CharString name="uni0411">
          -65 callsubr
        </CharString>
        <CharString name="uni0412">
          23 21 -21 434 66 hstem
          -100 callsubr
          endchar
        </CharString>
        <CharString name="uni0413">
          -69 21 -21 348 152 -65 65 hstemhm
          51 235 hintmask 10110000
          600 -57 callgsubr
          -178 -179 0 -178 hhcurveto
          -39 callgsubr
          69 79 0 69 hhcurveto
          -32 callsubr
          4 22 21 2 17 hhcurveto
          47 25 -13 -35 -12 -2 -14 -6 -17 hvcurveto
          hintmask 11010000
          -30 callgsubr
        </CharString>
        <CharString name="uni0414">
          -77 callsubr
        </CharString>
        <CharString name="uni0415">
          -1 0 -1 callgsubr
          hintmask 10100100
          -77 callgsubr
          hintmask 01101000
          19 47 11 43 10 58 -120 5 rcurveline
          hintmask 10011000
          -97 callsubr
          hintmask 10100100
          -103 callgsubr
          endchar
        </CharString>
        <CharString name="uni0416">
          377 0 245 161 94 5 -20 36 -20 hstemhm
          393 232 hintmask 11011000
          640 293 rmoveto
          11 68 11 67 19 72 rrcurveto
          -276 hlineto
          -7 -69 -4 -69 -1 -68 -51 89 -55 69 -95 49 rrcurveto
          hintmask 10101000
          4 -21 -22 0 -21 hhcurveto
          -32 hlineto
          hintmask 11011000
          -35 -32 1 15 -29 hvcurveto
          25 -40 27 -39 28 -35 rrcurveto
          5 5 -1 5 hhcurveto
          35 31 7 11 35 hvcurveto
          49 -43 28 -43 24 -61 -68 -17 -72 -11 -95 -4 -24 -55 -14 -111 -3 -79 rrcurveto
          258 hlineto
          105 64 87 50 31 vhcurveto
          1 -76 4 -74 11 -73 rrcurveto
          218 hlineto
          -3 27 1 27 28 vvcurveto
          47 2 46 5 48 vhcurveto
          47 -31 54 -93 21 -99 rrcurveto
          259 hlineto
          -5 79 -13 110 -24 56 -95 4 -72 11 -68 16 27 63 30 42 51 43 rrcurveto
          -11 33 32 -7 35 hhcurveto
          30 46 80 35 24 hvcurveto
          hintmask 10101000
          -15 -31 -31 -1 -35 hhcurveto
          -32 hlineto
          hintmask 11011000
          -21 -22 0 -4 -21 hvcurveto
          -97 -49 -59 -68 -55 -91 rrcurveto
          endchar
        </CharString>
        <CharString name="uni0417">
          4 callsubr
          385 155 -33 callsubr
          -8 -7 -27 callgsubr
          39 -2 31 -89 9 -29 rrcurveto
          10 -36 6 -37 -32 vvcurveto
          -35 -6 -5 -29 vhcurveto
          -94 -63 80 -145 hhcurveto
          -14 hlineto
          -23 -41 -21 -43 -16 -44 rrcurveto
          20 32 30 7 30 hhcurveto
          77 -37 callsubr
        </CharString>
        <CharString name="uni0418">
          -62 callsubr
        </CharString>
        <CharString name="uni0419">
          -73 callsubr
        </CharString>
        <CharString name="uni041A">
          -102 callgsubr
        </CharString>
        <CharString name="uni041B">
          -59 callgsubr
        </CharString>
        <CharString name="uni041C">
          380 21 -21 500 -102 callsubr
          endchar
        </CharString>
        <CharString name="uni041D">
          -91 callsubr
        </CharString>
        <CharString name="uni041E">
          -34 callsubr
          hstem
          -58 callgsubr
          vstem
          123 3 -105 callgsubr
          endchar
        </CharString>
        <CharString name="uni041F">
          -52 callgsubr
        </CharString>
        <CharString name="uni0420">
          -7 21 -21 500 -98 callsubr
          endchar
        </CharString>
        <CharString name="uni0421">
          -36 callsubr
          hstem
          38 250 vstem
          -106 callsubr
          endchar
        </CharString>
        <CharString name="uni0422">
          -92 callgsubr
        </CharString>
        <CharString name="uni0423">
          60 -376 -21 418 -21 500 -20 107 -62 callgsubr
          endchar
        </CharString>
        <CharString name="uni0424">
          207 21 -69 callsubr
          -20 131 -20 hstem
          309 151 rmoveto
          -51 -2 -49 -3 -51 vhcurveto
          253 hlineto
          4 50 3 50 2 51 108 11 89 20 88 43 rrcurveto
          5 35 3 30 31 vvcurveto
          65 -11 58 -23 -5 callsubr
          7 -37 5 11 callsubr
          -72 -87 vvcurveto
          -16 1 -18 1 -17 vhcurveto
          88 -43 91 -20 108 -11 rrcurveto
          -16 281 rmoveto
          8 -71 5 -71 2 -69 -33 3 -29 5 -31 12 11 64 32 81 35 46 rrcurveto
          271 hmoveto
          35 -46 48 -81 11 -64 -29 -12 -29 -5 -33 -3 rrcurveto
          53 vlineto
          52 -1 53 -2 53 vhcurveto
          endchar
        </CharString>
        <CharString name="uni0425">
          30 -25 callsubr
          588 -92 callsubr
        </CharString>
        <CharString name="uni0426">
          -70 callsubr
        </CharString>
        <CharString name="uni0427">
          -61 callsubr
        </CharString>
        <CharString name="uni0428">
          -68 callsubr
        </CharString>
        <CharString name="uni0429">
          -80 callsubr
        </CharString>
        <CharString name="uni042A">
          86 21 -21 347 153 -150 150 hstem
          41 -57 callgsubr
          -31 -150 99 -6 9 55 21 22 49 14 rlinecurve
          -9 -57 -5 -67 -68 vvcurveto
          -87 8 -89 16 -67 vhcurveto
          509 hlineto
          23 84 6 60 2 98 -93 48 -94 26 -123 14 4 59 8 58 9 53 rrcurveto
          -23 -239 rmoveto
          34 -3 32 -11 25 -12 -9 -68 -21 -55 -35 callgsubr
        </CharString>
        <CharString name="uni042B">
          -65 callgsubr
        </CharString>
        <CharString name="uni042C">
          -48 callgsubr
        </CharString>
        <CharString name="uni042D">
          -32 -1 -21 263 92 45 145 -79 79 hstemhm
          369 250 hintmask 11101000
          54 498 rmoveto
          9 -36 16 -51 15 -33 42 -3 47 -2 41 -1 -7 20 -6 25 -4 21 rrcurveto
          hintmask 11011000
          4 23 20 2 21 hhcurveto
          27 27 -4 -7 28 hvcurveto
          11 -46 5 -39 -36 vvcurveto
          -15 -1 -14 -2 -14 vhcurveto
          54 -36 -43 10 -50 -28 -28 -3 -31 hhcurveto
          -9 -10 0 1 -9 hvcurveto
          49 -89 rlineto
          5 4 -1 4 31 31 9 28 hhcurveto
          28 24 -9 -42 22 hvcurveto
          -23 -55 -41 -39 -54 -32 -63 41 -52 49 -50 62 -3 -37 -2 -41 -1 -44 rrcurveto
          -60 77 95 -65 172 hhcurveto
          23 hlineto
          123 53 70 113 109 vvcurveto
          138 -113 132 -247 -60 -68 -8 -17 -77 vhcurveto
          endchar
        </CharString>
        <CharString name="uni042E">
          -76 callsubr
        </CharString>
        <CharString name="uni042F">
          -64 callgsubr
        </CharString>
        <CharString name="uni0430">
          95 -47 callsubr
          61 240 vstem
          259 500 -107 callgsubr
          endchar
        </CharString>
        <CharString name="uni0431">
          -65 callsubr
        </CharString>
        <CharString name="uni0432">
          23 21 -21 434 66 hstem
          -100 callsubr
          endchar
        </CharString>
        <CharString name="uni0433">
          -69 21 -21 348 152 -65 65 hstemhm
          51 235 hintmask 10110000
          600 -57 callgsubr
          -178 -179 0 -178 hhcurveto
          -39 callgsubr
          69 79 0 69 hhcurveto
          -32 callsubr
          4 22 21 2 17 hhcurveto
          47 25 -13 -35 -12 -2 -14 -6 -17 hvcurveto
          hintmask 11010000
          -30 callgsubr
        </CharString>
        <CharString name="uni0434">
          -77 callsubr
        </CharString>
        <CharString name="uni0435">
          -1 0 -1 callgsubr
          hintmask 10100100
          -77 callgsubr
          hintmask 01101000
          19 47 11 43 10 58 -120 5 rcurveline
          hintmask 10011000
          -97 callsubr
          hintmask 10100100
          -103 callgsubr
          endchar
        </CharString>
        <CharString name="uni0436">
          377 -1 246 -224 -21 406 94 5 -20 21 -20 35 -20 hstemhm
          393 232 hintmask 10100110
          640 293 rmoveto
          10 67 13 68 18 72 rrcurveto
          -276 hlineto
          -7 -69 -4 -68 -1 -69 rrcurveto
          hintmask 10010010
          116 -66 -74 95 -157 hhcurveto
          hintmask 10100110
          -34 -33 2 14 -29 hvcurveto
          -35 22 44 -80 29 hhcurveto
          34 33 7 11 34 hvcurveto
          49 -42 28 -44 24 -61 -67 -17 -74 -11 -94 -4 rrcurveto
          hintmask 01100110
          -23 -57 -14 -107 -4 -81 rrcurveto
          hintmask 10100110
          13 56 -1 57 hhcurveto
          65 67 1 4 102 66 86 48 31 hvcurveto
          hintmask 01100110
          1 -75 5 -75 10 -73 rrcurveto
          218 hlineto
          -2 27 0 27 28 vvcurveto
          46 2 47 5 48 vhcurveto
          48 -31 52 -93 22 -99 rrcurveto
          259 hlineto
          hintmask 10100110
          -5 81 -14 107 -23 57 -94 4 -73 11 -68 16 27 62 30 44 51 42 rrcurveto
          -11 33 33 -7 34 hhcurveto
          30 47 80 35 23 hvcurveto
          hintmask 10010010
          -14 -29 -30 -2 -32 hhcurveto
          hintmask 10001010
          -16 -15 1 -16 hhcurveto
          hintmask 10100110
          -18 -19 -1 -4 -18 hvcurveto
          -97 -49 -59 -68 -55 -91 rrcurveto
          endchar
        </CharString>
        <CharString name="uni0437">
          4 callsubr
          376 164 -33 callsubr
          -7 -8 -27 callgsubr
          43 52 -133 -92 -32 -3 -8 -32 hvcurveto
          -94 -63 80 -145 hhcurveto
          -28 -35 -97 -31 -11 hvcurveto
          19 32 29 8 30 hhcurveto
          78 -37 callsubr
        </CharString>
        <CharString name="uni0438">
          -62 callsubr
        </CharString>
        <CharString name="uni0439">
          -73 callsubr
        </CharString>
        <CharString name="uni043A">
          -102 callgsubr
        </CharString>
        <CharString name="uni043B">
          -59 callgsubr
        </CharString>
        <CharString name="uni043C">
          380 -47 callsubr
          36 236 503 231 vstem
          234 -57 callgsubr
          19 -26 19 -27 17 -29 -43 -77 -98 -70 -92 -27 rrcurveto
          -12 -41 -8 -55 -57 vvcurveto
          -31 2 -31 5 -29 vhcurveto
          243 hlineto
          -11 39 -3 36 37 vvcurveto
          83 22 77 32 76 vhcurveto
          51 -104 32 -113 17 -131 rrcurveto
          196 hlineto
          5 143 38 104 51 100 35 -108 20 -128 4 -111 rrcurveto
          231 hlineto
          145 -21 215 -51 140 vhcurveto
          -285 hlineto
          5 -13 3 -15 -18 vvcurveto
          -51 -19 -71 -31 -56 vhcurveto
          -12 77 -18 74 -27 73 rrcurveto
          endchar
        </CharString>
        <CharString name="uni043D">
          -91 callsubr
        </CharString>
        <CharString name="uni043E">
          -34 callsubr
          hstem
          -58 callgsubr
          vstem
          123 3 -105 callgsubr
          endchar
        </CharString>
        <CharString name="uni043F">
          -52 callgsubr
        </CharString>
        <CharString name="uni0440">
          -7 21 -21 500 -98 callsubr
          endchar
        </CharString>
        <CharString name="uni0441">
          -36 callsubr
          hstem
          38 250 vstem
          -106 callsubr
          endchar
        </CharString>
        <CharString name="uni0442">
          -92 callgsubr
        </CharString>
        <CharString name="uni0443">
          11 -14 callsubr
          567 556 -61 callgsubr
        </CharString>
        <CharString name="uni0444">
          238 21 -69 callsubr
          -20 131 -20 hstem
          333 151 rmoveto
          -51 -2 -50 -3 -50 vhcurveto
          253 hlineto
          4 50 3 50 2 51 107 10 91 22 87 42 rrcurveto
          5 34 3 32 30 vvcurveto
          65 -12 58 -22 -5 callsubr
          6 -37 6 11 callsubr
          -73 -86 vvcurveto
          -16 1 -18 1 -17 vhcurveto
          87 -42 92 -22 108 -10 rrcurveto
          -16 281 rmoveto
          8 -71 5 -70 2 -70 -33 3 -30 5 -30 12 10 63 33 84 35 44 rrcurveto
          271 hmoveto
          35 -44 49 -84 10 -63 -29 -12 -29 -5 -33 -3 rrcurveto
          53 vlineto
          53 -1 52 -2 53 vhcurveto
          endchar
        </CharString>
        <CharString name="uni0445">
          30 -25 callsubr
          588 -92 callsubr
        </CharString>
        <CharString name="uni0446">
          -70 callsubr
        </CharString>
        <CharString name="uni0447">
          -61 callsubr
        </CharString>
        <CharString name="uni0448">
          -68 callsubr
        </CharString>
        <CharString name="uni0449">
          -80 callsubr
        </CharString>
        <CharString name="uni044A">
          86 21 -21 347 153 -150 150 hstem
          41 -57 callgsubr
          -31 -150 99 -6 9 55 21 22 49 14 rlinecurve
          -9 -57 -5 -67 -68 vvcurveto
          -87 8 -89 16 -67 vhcurveto
          509 hlineto
          23 84 6 60 2 98 -93 48 -94 26 -123 14 4 59 8 58 9 53 rrcurveto
          -23 -239 rmoveto
          34 -3 32 -11 25 -12 -9 -68 -21 -55 -35 callgsubr
        </CharString>
        <CharString name="uni044B">
          -65 callgsubr
        </CharString>
        <CharString name="uni044C">
          -48 callgsubr
        </CharString>
        <CharString name="uni044D">
          -32 -1 -21 263 92 45 145 -79 79 hstemhm
          369 250 hintmask 11101000
          54 498 rmoveto
          9 -36 16 -51 15 -33 42 -3 47 -2 41 -1 -7 20 -6 25 -4 21 rrcurveto
          hintmask 11011000
          4 23 20 2 21 hhcurveto
          27 27 -4 -7 28 hvcurveto
          11 -46 5 -39 -36 vvcurveto
          -15 -1 -14 -2 -14 vhcurveto
          54 -36 -43 10 -50 -28 -28 -3 -31 hhcurveto
          -9 -10 0 1 -9 hvcurveto
          49 -89 rlineto
          5 4 -1 4 31 31 9 28 hhcurveto
          28 24 -9 -42 22 hvcurveto
          -23 -55 -41 -39 -54 -32 -63 41 -52 49 -50 62 -3 -37 -2 -41 -1 -44 rrcurveto
          -60 77 95 -65 172 hhcurveto
          23 hlineto
          123 53 70 113 109 vvcurveto
          138 -113 132 -247 -60 -68 -8 -17 -77 vhcurveto
          endchar
        </CharString>
        <CharString name="uni044E">
          -76 callsubr
        </CharString>
        <CharString name="uni044F">
          -64 callgsubr
        </CharString>
        <CharString name="uni0451">
          -29 0 66 -66 153 53 93 -72 72 49 152 -66 66 75 -21 callsubr
          hintmask 10100110
          67 -57 callgsubr
          -9 -70 -4 -75 -73 vvcurveto
          -101 7 -100 -29 callgsubr
          477 hlineto
          19 46 10 44 10 59 rrcurveto
          hintmask 01101010
          -117 4 rlineto
          hintmask 10011010
          -67 -15 -35 -20 -52 hhcurveto
          -30 -25 3 8 -33 hvcurveto
          1 32 2 32 3 33 rrcurveto
          40 17 20 13 26 hhcurveto
          hintmask 10100110
          30 35 -21 36 hhcurveto
          9 hlineto
          46 88 rlineto
          -1 -7 -6 0 -7 -31 -32 6 -29 hhcurveto
          -34 -37 -13 -24 -25 hvcurveto
          8 56 11 56 13 55 rrcurveto
          3 18 17 2 14 hhcurveto
          9 hlineto
          46 25 -12 -35 -12 -2 -14 -6 -17 hvcurveto
          hintmask 10100101
          40 1 24 1 41 2 11 39 13 71 7 42 rrcurveto
          -378 178 -87 callgsubr
          hintmask 10101010
          -1 19 20 -1 19 -95 callgsubr
          rrcurveto
          hintmask 10101001
          -87 callsubr
          hintmask 10101010
          -86 callsubr
          hintmask 10101001
          -60 callgsubr
        </CharString>
        <CharString name="uni0452">
          -81 callsubr
        </CharString>
        <CharString name="uni0453">
          -69 21 -21 435 65 0 50 13 callgsubr
          51 235 hintmask 10111000
          -12 callsubr
          -352 -166 -7 callgsubr
          22 22 vvcurveto
          119 21 126 29 119 vhcurveto
          hintmask 11011000
          4 22 21 2 17 hhcurveto
          47 25 -13 -35 -12 -2 -14 -6 -17 hvcurveto
          -30 callgsubr
        </CharString>
        <CharString name="uni0454">
          -55 -1 -21 272 83 45 145 -79 79 hstemhm
          26 250 hintmask 11011000
          591 498 rmoveto
          17 -77 -68 8 -60 hhcurveto
          -247 -113 -132 -138 -109 70 -113 123 -53 hvcurveto
          23 hlineto
          172 95 65 60 77 hvcurveto
          -1 44 -2 41 -3 37 -50 -62 -52 -49 -63 -41 -54 32 -41 39 -23 55 rrcurveto
          42 22 24 9 28 28 31 -9 31 4 4 1 5 hhcurveto
          49 89 rlineto
          -1 -9 -10 0 -9 -31 -28 3 -28 hhcurveto
          -50 -43 -10 -54 -36 hvcurveto
          -2 14 -1 14 15 vvcurveto
          36 5 39 11 46 vhcurveto
          7 28 27 4 27 hhcurveto
          21 20 -2 -4 23 hvcurveto
          -4 -21 -6 -25 -7 -20 rrcurveto
          hintmask 11101000
          41 1 47 2 42 3 15 33 16 51 9 36 rrcurveto
          endchar
        </CharString>
        <CharString name="uni0455">
          -101 callgsubr
        </CharString>
        <CharString name="uni0456">
          -47 callsubr
          71 500 -23 callsubr
        </CharString>
        <CharString name="uni0457">
          21 -69 callsubr
          -20 96 96 6 -20 hstemhm
          85 247 hintmask 11011000
          66 -57 callgsubr
          12 -86 7 -97 -95 vvcurveto
          -77 -5 -76 -9 -69 -16 callgsubr
          23 128 11 132 138 -36 callgsubr
          -259 178 rmoveto
          11 callgsubr
          33 34 0 33 hhcurveto
          17 32 11 33 7 32 rrcurveto
          hintmask 11011000
          -35 1 -34 2 -35 3 rrcurveto
          183 hmoveto
          11 callgsubr
          34 33 0 34 hhcurveto
          16 32 11 33 -21 callgsubr
          hintmask 11011000
          -36 1 -34 -49 callgsubr
        </CharString>
        <CharString name="uni0458">
          -141 -94 -21 615 -96 callsubr
          endchar
        </CharString>
        <CharString name="uni0459">
          -67 callsubr
        </CharString>
        <CharString name="uni045A">
          -69 callgsubr
        </CharString>
        <CharString name="uni045B">
          -70 callgsubr
        </CharString>
        <CharString name="uni045C">
          -76 callgsubr
        </CharString>
        <CharString name="uni045E">
          -78 callgsubr
        </CharString>
        <CharString name="uni045F">
          -20 -75 -21 98 61 437 -20 hstem
          49 232 234 99 vstem
          488 -57 callgsubr
          18 -115 9 -104 -108 vvcurveto
          -27 -1 -28 -1 -28 vhcurveto
          -13 -20 -30 -14 -64 hhcurveto
          -62 -38 21 15 -18 hvcurveto
          128 14 134 26 139 vhcurveto
          -258 hlineto
          -9 -91 -5 -75 -73 vvcurveto
          -64 4 -62 8 -72 vhcurveto
          62 -34 79 -21 92 -6 -1 -31 -3 -30 -7 -30 rrcurveto
          -5 13 26 -2 20 hhcurveto
          8 8 0 1 6 hvcurveto
          7 32 6 32 3 31 83 4 78 23 58 36 rrcurveto
          10 92 5 99 98 vvcurveto
          50 -1 50 -3 48 vhcurveto
          endchar
        </CharString>
        <CharString name="uni0490">
          -56 callgsubr
        </CharString>
        <CharString name="uni0491">
          -56 callgsubr
        </CharString>
        <CharString name="uni1E02">
          23 21 -21 434 66 0 75 103 -20 hstemhm
          hintmask 11010000
          -100 callsubr
          -28 368 -87 callgsubr
          hintmask 10110000
          -1 19 20 -1 19 -95 callgsubr
          -34 1 -33 -49 callgsubr
        </CharString>
        <CharString name="uni1E03">
          23 21 -21 434 66 0 75 103 -20 hstemhm
          hintmask 11010000
          -100 callsubr
          -28 368 -87 callgsubr
          hintmask 10110000
          -1 19 20 -1 19 -95 callgsubr
          -34 1 -33 -49 callgsubr
        </CharString>
        <CharString name="uni1E0A">
          46 7 -21 537 52 103 -20 hstem
          445 227 vstem
          80 -57 callgsubr
          -4 -46 -2 -38 -44 vvcurveto
          -123 15 -124 24 -124 vhcurveto
          -8 60 54 -7 65 hhcurveto
          104 109 23 96 90 hvcurveto
          53 57 24 68 71 vvcurveto
          59 -15 59 -28 56 vhcurveto
          31 -78 -108 17 -128 hhcurveto
          -73 -78 -11 -12 -84 hvcurveto
          265 -52 rmoveto
          68 -7 32 -71 -84 vvcurveto
          -93 -40 -107 -75 -40 vhcurveto
          -2 34 -1 33 32 vvcurveto
          109 9 100 9 94 vhcurveto
          -22 230 -87 callgsubr
          -1 19 20 -1 19 -95 callgsubr
          -34 1 -33 -49 callgsubr
        </CharString>
        <CharString name="uni1E0B">
          46 7 -21 537 52 103 -20 hstem
          445 227 vstem
          80 -57 callgsubr
          -4 -46 -2 -38 -44 vvcurveto
          -123 15 -124 24 -124 vhcurveto
          -8 60 54 -7 65 hhcurveto
          104 109 23 96 90 hvcurveto
          53 57 24 68 71 vvcurveto
          59 -15 59 -28 56 vhcurveto
          31 -78 -108 17 -128 hhcurveto
          -73 -78 -11 -12 -84 hvcurveto
          265 -52 rmoveto
          68 -7 32 -71 -84 vvcurveto
          -93 -40 -107 -75 -40 vhcurveto
          -2 34 -1 33 32 vvcurveto
          109 9 100 9 94 vhcurveto
          -22 230 -87 callgsubr
          -1 19 20 -1 19 -95 callgsubr
          -34 1 -33 -49 callgsubr
        </CharString>
        <CharString name="uni1E1E">
          -53 21 -21 191 93 -72 72 59 156 -65 65 0 76 103 -20 hstemhm
          66 234 hintmask 11001011
          315 247 rmoveto
          9 61 12 61 15 60 rrcurveto
          4 22 20 1 17 hhcurveto
          47 26 -14 -34 hvcurveto
          hintmask 10110011
          -12 -3 -14 -6 -17 vhcurveto
          108 5 12 38 13 72 7 41 rlinecurve
          -534 -3 callsubr
          -100 7 -2 callgsubr
          -1 19 -1 21 20 vvcurveto
          34 2 33 3 34 vhcurveto
          39 18 19 12 26 hhcurveto
          hintmask 11000111
          31 36 -21 37 hhcurveto
          9 hlineto
          47 88 rlineto
          -1 -7 -6 0 -7 -31 -33 6 -31 hhcurveto
          -34 -38 -13 -24 -26 hvcurveto
          -42 431 -87 callgsubr
          -1 19 20 -1 19 -95 callgsubr
          -34 1 -33 -49 callgsubr
        </CharString>
        <CharString name="uni1E1F">
          -53 21 -21 191 93 -72 72 59 156 -65 65 0 76 103 -20 hstemhm
          66 234 hintmask 11001011
          315 247 rmoveto
          9 61 12 61 15 60 rrcurveto
          4 22 20 1 17 hhcurveto
          47 26 -14 -34 hvcurveto
          hintmask 10110011
          -12 -3 -14 -6 -17 vhcurveto
          108 5 12 38 13 72 7 41 rlinecurve
          -534 -3 callsubr
          -100 7 -2 callgsubr
          -1 19 -1 21 20 vvcurveto
          34 2 33 3 34 vhcurveto
          39 18 19 12 26 hhcurveto
          hintmask 11000111
          31 36 -21 37 hhcurveto
          9 hlineto
          47 88 rlineto
          -1 -7 -6 0 -7 -31 -33 6 -31 hhcurveto
          -34 -38 -13 -24 -26 hvcurveto
          -42 431 -87 callgsubr
          -1 19 20 -1 19 -95 callgsubr
          -34 1 -33 -49 callgsubr
        </CharString>
        <CharString name="uni1E40">
          380 21 -69 callsubr
          75 103 -102 callsubr
          -60 178 -87 callgsubr
          -1 19 20 -1 19 -95 callgsubr
          -34 1 -33 -49 callgsubr
        </CharString>
        <CharString name="uni1E41">
          380 21 -69 callsubr
          75 103 -102 callsubr
          -60 178 -87 callgsubr
          -1 19 20 -1 19 -95 callgsubr
          -34 1 -33 -49 callgsubr
        </CharString>
        <CharString name="uni1E56">
          -7 21 -69 callsubr
          75 103 -98 callsubr
          1 464 -87 callgsubr
          -1 19 20 -1 19 -95 callgsubr
          -34 1 -33 -49 callgsubr
        </CharString>
        <CharString name="uni1E57">
          -7 21 -69 callsubr
          75 103 -98 callsubr
          1 464 -87 callgsubr
          -1 19 20 -1 19 -95 callgsubr
          -34 1 -33 -49 callgsubr
        </CharString>
        <CharString name="uni1E60">
          -26 callsubr
          52 103 -99 callgsubr
          -294 179 -87 callgsubr
          hintmask 11001100
          -1 19 20 -1 19 -95 callgsubr
          -34 1 -33 -49 callgsubr
        </CharString>
        <CharString name="uni1E61">
          -26 callsubr
          52 103 -99 callgsubr
          -294 179 -87 callgsubr
          hintmask 11001100
          -1 19 20 -1 19 -95 callgsubr
          -34 1 -33 -49 callgsubr
        </CharString>
        <CharString name="uni1E6A">
          -3 callgsubr
          0 75 103 -20 hstemhm
          202 244 0 113 hintmask 10101010
          472 435 rmoveto
          48 39 -22 -55 hvcurveto
          hintmask 11001100
          -78 callsubr
          hintmask 10101100
          -103 callsubr
          -156 243 -87 callgsubr
          hintmask 10011100
          -1 19 20 -1 19 -95 callgsubr
          -34 1 -33 -49 callgsubr
        </CharString>
        <CharString name="uni1E6B">
          -3 callgsubr
          0 75 103 -20 hstemhm
          202 244 0 113 hintmask 10101010
          472 435 rmoveto
          48 39 -22 -55 hvcurveto
          hintmask 11001100
          -78 callsubr
          hintmask 10101100
          -103 callsubr
          -156 243 -87 callgsubr
          hintmask 10011100
          -1 19 20 -1 19 -95 callgsubr
          -34 1 -33 -49 callgsubr
        </CharString>
        <CharString name="uni203E">
          -295 438 56 -10 callgsubr
          432 -47 callgsubr
        </CharString>
        <CharString name="uni2116">
          335 22 -21 166 56 277 -20 37 -20 hstemhm
          103 101 361 93 44 104 63 104 hintmask 11101111
          532 -57 callgsubr
          26 -92 7 -78 -81 vvcurveto
          -17 vlineto
          -84 57 -110 112 -58 99 rrcurveto
          -283 hlineto
          27 -54 14 -20 22 -32 rrcurveto
          7 -42 3 -50 -53 vvcurveto
          -80 -7 -87 -13 -81 vhcurveto
          116 hlineto
          4 46 1 45 43 vvcurveto
          55 -3 52 -4 42 vhcurveto
          85 -94 128 -113 142 -76 rrcurveto
          95 hlineto
          7 97 4 98 98 vvcurveto
          68 -2 69 -4 69 vhcurveto
          47 -339 rmoveto
          4 45 44 2 45 hhcurveto
          48 47 -2 -4 48 hvcurveto
          67 vlineto
          -3 -48 -47 -2 -48 hhcurveto
          -44 -45 2 3 -45 hvcurveto
          44 39 rmoveto
          -7 22 21 -4 20 hhcurveto
          94 73 74 83 31 -11 33 -23 31 hvcurveto
          hintmask 11011111
          6 -24 -23 3 -22 hhcurveto
          -100 -68 -60 -80 -34 13 -38 28 -38 hvcurveto
          70 208 rmoveto
          36 -25 20 -54 -50 vvcurveto
          -21 -4 -20 -7 -16 vhcurveto
          -32 21 -20 57 55 vvcurveto
          18 2 19 5 16 vhcurveto
          endchar
        </CharString>
        <CharString name="uogonek">
          -75 callsubr
        </CharString>
        <CharString name="uring">
          -34 callgsubr
          73 123 hstem
          72 242 44 41 159 104 vstem
          658 -57 callgsubr
          3 -49 1 -50 -51 vvcurveto
          -103 -5 -105 -11 -97 vhcurveto
          -42 -65 -91 -25 -93 hhcurveto
          -127 -105 22 45 -80 hvcurveto
          -9 75 -4 65 66 vvcurveto
          76 5 77 10 96 vhcurveto
          269 hlineto
          -27 -145 -14 -140 -1 -132 rrcurveto
          -17 19 40 -21 65 hhcurveto
          66 31 14 14 21 hvcurveto
          2 33 0 31 31 vvcurveto
          110 -9 104 -19 118 vhcurveto
          -198 58 -84 callgsubr
        </CharString>
        <CharString name="utilde">
          -34 callgsubr
          95 63 -22 22 -22 44 25 -10 callsubr
          hintmask 11010111
          530 500 -107 callsubr
          -164 185 -85 callsubr
        </CharString>
        <CharString name="v">
          -54 callsubr
        </CharString>
        <CharString name="w">
          -2 callsubr
          hstemhm
          280 139 0 21 345 245 hintmask 11101000
          -84 callsubr
          hintmask 11011000
          -96 callgsubr
          endchar
        </CharString>
        <CharString name="wacute">
          368 21 -69 callsubr
          50 13 callgsubr
          280 139 0 21 345 245 hintmask 11110100
          -84 callsubr
          hintmask 11101100
          -96 callgsubr
          -124 180 -59 callsubr
          endchar
        </CharString>
        <CharString name="wcircumflex">
          -2 callsubr
          193 -20 hstemhm
          280 139 0 21 345 245 hintmask 11101100
          640 -57 callgsubr
          10 -123 32 -128 52 -106 rrcurveto
          33 61 18 68 74 vvcurveto
          49 -7 51 -17 54 vhcurveto
          268 hlineto
          1 -15 0 -14 -15 vvcurveto
          -79 -11 -76 -23 -57 vhcurveto
          -111 -32 -96 -60 -70 vvcurveto
          -30 17 -28 24 -24 vhcurveto
          -252 hlineto
          -44 66 -34 72 -27 75 rrcurveto
          -21 -48 -12 -43 -37 vvcurveto
          -33 9 -28 20 -24 vhcurveto
          -251 hlineto
          -104 138 -75 191 -25 171 rrcurveto
          hintmask 11110100
          266 hlineto
          10 -125 25 -126 53 -106 rrcurveto
          33 56 18 73 82 vvcurveto
          46 -6 49 -11 51 vhcurveto
          3 58 -98 callgsubr
        </CharString>
        <CharString name="wdieresis">
          -86 callgsubr
        </CharString>
        <CharString name="wgrave">
          -2 callsubr
          200 -20 hstemhm
          280 139 0 21 345 245 hintmask 11101100
          640 -57 callgsubr
          10 -123 32 -128 52 -106 rrcurveto
          33 61 18 68 74 vvcurveto
          49 -7 51 -17 54 vhcurveto
          268 hlineto
          1 -15 0 -14 -15 vvcurveto
          -79 -11 -76 -23 -57 vhcurveto
          -111 -32 -96 -60 -70 vvcurveto
          -30 17 -28 24 -24 vhcurveto
          -252 hlineto
          -44 66 -34 72 -27 75 rrcurveto
          -21 -48 -12 -43 -37 vvcurveto
          -33 9 -28 20 -24 vhcurveto
          -251 hlineto
          -104 138 -75 191 -25 171 rrcurveto
          hintmask 11110100
          266 hlineto
          10 -125 25 -126 53 -106 rrcurveto
          33 56 18 73 82 vvcurveto
          46 -6 49 -11 51 vhcurveto
          122 180 -88 callsubr
        </CharString>
        <CharString name="x">
          29 -25 callsubr
          587 -92 callsubr
        </CharString>
        <CharString name="y">
          16 -14 callsubr
          572 556 -61 callgsubr
        </CharString>
        <CharString name="yacute">
          -71 callgsubr
        </CharString>
        <CharString name="ycircumflex">
          60 -50 callgsubr
          193 -94 callsubr
          -365 2 -98 callgsubr
        </CharString>
        <CharString name="ydieresis">
          60 -376 -21 418 -15 callsubr
          hintmask 11101000
          -93 callsubr
          -376 122 -87 callgsubr
          hintmask 11110000
          -1 19 20 -1 19 -95 callgsubr
          rrcurveto
          hintmask 11101000
          -87 callsubr
          hintmask 11110000
          -86 callsubr
          hintmask 11101000
          -60 callgsubr
        </CharString>
        <CharString name="yen">
          62 21 -21 182 53 46 51 -51 219 hstemhm
          462 240 hintmask 11101000
          495 143 rmoveto
          21 10 24 14 24 15 rrcurveto
          153 53 hlineto
          -1 -34 -34 -1 -34 hhcurveto
          13 14 12 16 11 18 rrcurveto
          22 22 -1 -1 22 hvcurveto
          53 -41 vlineto
          16 41 10 49 57 vvcurveto
          hintmask 11011000
          21 -268 vlineto
          17 -62 11 -49 -43 vvcurveto
          -60 -20 -47 -47 -50 vhcurveto
          -61 94 -14 99 -7 118 rrcurveto
          -273 hlineto
          16 -62 22 -56 27 -51 rrcurveto
          hintmask 11101000
          -27 -27 1 -26 hhcurveto
          -53 vlineto
          36 2 36 0 37 1 11 -17 13 -17 13 -13 rrcurveto
          -146 -50 hlineto
          1 31 31 0 32 hhcurveto
          95 hlineto
          15 -15 16 -13 17 -12 -6 -49 -21 -53 -23 -44 rrcurveto
          263 hlineto
          10 41 8 60 2 42 rrcurveto
          endchar
        </CharString>
        <CharString name="ygrave">
          60 -50 callgsubr
          200 -94 callsubr
          -246 124 -88 callsubr
        </CharString>
        <CharString name="z">
          -14 callgsubr
          hstemhm
          hintmask 10100000
          -97 callgsubr
          hintmask 01100000
          -51 callsubr
          hintmask 10100000
          -55 callgsubr
          endchar
        </CharString>
        <CharString name="zacute">
          -34 0 67 368 65 0 50 13 callgsubr
          hintmask 11010000
          -97 callgsubr
          -51 callsubr
          -55 callgsubr
          3 603 rmoveto
          hintmask 10110000
          -104 callsubr
          endchar
        </CharString>
        <CharString name="zcaron">
          -14 callgsubr
          -65 234 hstemhm
          hintmask 10100000
          -97 callgsubr
          hintmask 01100000
          -51 callsubr
          hintmask 10010000
          -55 callgsubr
          -18 477 rmoveto
          49 hlineto
          -79 callsubr
        </CharString>
        <CharString name="zdotaccent">
          -34 0 67 368 65 0 75 103 -20 hstemhm
          hintmask 11010000
          -97 callgsubr
          -51 callsubr
          -55 callgsubr
          -29 601 -87 callgsubr
          hintmask 10110000
          -1 19 20 -1 19 -95 callgsubr
          -34 1 -33 -49 callgsubr
        </CharString>
        <CharString name="zero">
          -34 callsubr
          hstem
          -58 callgsubr
          vstem
          123 3 rmoveto
          -17 49 46 -8 43 hhcurveto
          204 162 152 173 64 -21 67 -51 64 hvcurveto
          17 -56 -56 8 -53 hhcurveto
          -211 -145 -32 callgsubr
        </CharString>
      <CharString index="0">
        rmoveto
        21 -24 19 -26 17 -27 -40 -78 -101 -74 -94 -27 rrcurveto
        -12 -41 -8 -56 -57 vvcurveto
        -30 2 -31 5 -29 vhcurveto
        233 hlineto
        50 35 48 40 42 43 8 -38 6 -39 3 -41 rrcurveto
        232 8 hlineto
        178 -35 175 -64 139 vhcurveto
        -168 -309 rmoveto
        -34 -38 -45 -33 -43 -22 5 83 18 86 31 92 29 -54 22 -55 17 -59 rrcurveto
        return
      </CharString>
      <CharString index="1">
        rmoveto
        -135 -47 -37 -217 -60 -228 rrcurveto
        -21 83 -13 85 84 vvcurveto
        61 7 61 14 62 vhcurveto
        -292 hlineto
        2 -169 30 -169 50 -162 rrcurveto
        207 hlineto
        -29 -105 -52 -153 -81 -139 43 8 45 10 36 11 72 144 51 232 29 138 23 111 32 140 66 79 rrcurveto
        -2 14 13 -1 13 hhcurveto
        20 20 3 5 21 hvcurveto
        22 33 15 29 19 44 -41 -27 -55 11 -48 -15 rrcurveto
        return
      </CharString>
      <CharString index="2">
        rmoveto
        -16 47 48 -9 -23 callgsubr
        161 152 173 64 -22 68 -50 63 hvcurveto
        17 -56 -56 8 -53 hhcurveto
        -210 -146 -126 -165 -73 28 -78 61 -78 hvcurveto
        152 433 rmoveto
        93 -48 52 -101 -96 vvcurveto
        -52 -15 -51 -32 -41 vhcurveto
        -84 41 -49 102 103 vvcurveto
        50 10 50 25 43 vhcurveto
        return
      </CharString>
      <CharString index="3">
        33 -194 -21 236 -46 callgsubr
        hstemhm
        202 244 0 113 hintmask 11010100
        472 435 rmoveto
        48 39 -22 -55 hvcurveto
        hintmask 11101000
        -10 -1 -10 -3 -12 vhcurveto
        -99 callsubr
        0 vmoveto
        hintmask 11100100
        48 39 -22 -55 -10 -1 -10 -3 -12 hvcurveto
        -99 callsubr
        -200 -468 rmoveto
        165 hlineto
        -11 -59 -24 -73 -34 -50 -16 2 -15 2 -15 4 12 22 10 30 1 20 rrcurveto
        -35 -38 2 4 -22 hvcurveto
        15 33 6 30 1 33 rrcurveto
        endchar
      </CharString>
      <CharString index="4">
        31 36 -21 37 hhcurveto
        9 hlineto
        47 88 rlineto
        -1 -7 -7 0 -7 -31 -33 6 -30 hhcurveto
        -35 -38 -13 -24 -26 hvcurveto
        9 56 12 56 13 55 7 callgsubr
        -12 -2 -14 -6 -17 hvcurveto
        41 1 25 1 42 2 12 39 13 72 7 41 rrcurveto
        return
      </CharString>
      <CharString index="5">
        35 0 10 callsubr
        91 7 -20 35 -20 hstemhm
        41 236 hintmask 11011000
        293 292 rmoveto
        9 67 15 70 17 71 rrcurveto
        -278 hlineto
        -8 -80 -7 -80 -79 vvcurveto
        -88 8 -88 11 -85 vhcurveto
        220 hlineto
        -2 27 -1 27 28 vvcurveto
        46 3 47 4 47 vhcurveto
        50 -31 51 -93 22 -98 rrcurveto
        259 hlineto
        -5 80 -13 107 -23 57 -95 4 -73 11 -68 17 27 61 31 46 51 42 rrcurveto
        -11 33 32 -5 34 hhcurveto
        16 hlineto
        30 35 28 38 27 40 rrcurveto
        hintmask 10101000
        -14 -29 -33 -1 -33 hhcurveto
        -33 hlineto
        hintmask 11011000
        -22 -22 -1 -4 -21 hvcurveto
        -97 -49 -60 -71 -55 -90 rrcurveto
        endchar
      </CharString>
      <CharString index="6">
        -37 -91 -21 58 21 -21 101 327 149 -77 77 hstemhm
        hintmask 11010000
        575 499 rmoveto
        16 -74 -65 8 -58 hhcurveto
        -44 hlineto
        -69 -66 -8 -15 -62 hvcurveto
        -18 -30 -28 -55 -17 -38 29 -106 75 -59 72 -50 17 -12 rcurveline
        63 -44 63 -43 -92 vvcurveto
        -3 -10 -12 -1 -10 hhcurveto
        hintmask 10101000
        -93 callgsubr
        hintmask 11010000
        -4 -21 -5 -24 -8 -21 rrcurveto
        42 46 3 3 42 hvcurveto
        14 33 16 50 9 36 rrcurveto
        endchar
      </CharString>
      <CharString index="7">
        58 -1 -21 255 51 239 -20 hstem
        473 231 vstem
        101 506 rmoveto
        -4 -45 -2 -46 -46 vvcurveto
        -28 0 -28 2 -29 vhcurveto
        -39 hlineto
        -20 -9 -19 -19 -19 -14 26 -4 35 -2 40 -3 7 -79 12 -80 16 -80 30 -4 rcurveline
        -6 46 54 -6 54 hhcurveto
        105 111 23 98 91 hvcurveto
        53 57 24 70 72 vvcurveto
        58 -16 62 -29 56 vhcurveto
        31 -79 -110 18 -131 hhcurveto
        -73 -81 -5 -12 -84 hvcurveto
        257 -218 rmoveto
        4 55 4 52 5 53 rrcurveto
        69 -7 33 -75 -85 vvcurveto
        -94 -41 -107 -76 -41 vhcurveto
        -2 36 -1 34 33 vvcurveto
        29 1 29 1 28 vhcurveto
        36 hlineto
        23 22 12 18 16 28 -15 -4 -40 -3 -29 -1 rrcurveto
        endchar
      </CharString>
      <CharString index="8">
        -20 hstemhm
        hintmask 11100100
        575 499 rmoveto
        16 -74 -65 8 -58 hhcurveto
        -44 hlineto
        -69 -66 -8 -15 -62 hvcurveto
        -18 -30 -28 -55 -17 -38 29 -106 75 -59 72 -50 17 -12 rcurveline
        63 -44 63 -43 -92 vvcurveto
        -3 -10 -12 -1 -10 hhcurveto
        -101 callsubr
        hintmask 11010100
        4 29 31 2 28 hhcurveto
        29 30 -2 -4 27 hvcurveto
        hintmask 11100100
        -4 -21 -5 -24 -8 -21 rrcurveto
        42 46 3 3 42 hvcurveto
        14 33 16 50 9 36 rrcurveto
        return
      </CharString>
      <CharString index="9">
        rmoveto
        32 hlineto
        82 62 83 -62 rlineto
        32 hlineto
        -90 115 rlineto
        -49 hlineto
        endchar
      </CharString>
      <CharString index="10">
        312 77 rmoveto
        86 152 102 141 120 130 rrcurveto
        -557 hlineto
        -31 -151 31 -3 36 -2 31 -2 rlinecurve
        57 12 50 36 62 hhcurveto
        29 13 -1 -4 19 hvcurveto
        -121 -141 -101 -156 -74 -133 rrcurveto
        571 hlineto
        return
      </CharString>
      <CharString index="11">
        -20 24 -9 28 33 vvcurveto
        37 12 43 21 48 vhcurveto
        27 -75 34 -72 44 -66 rrcurveto
        252 hlineto
        -24 24 -17 28 30 vvcurveto
        70 96 60 111 32 vhcurveto
        23 57 11 76 79 vvcurveto
        15 0 14 -1 15 vhcurveto
        -268 hlineto
        17 -54 7 -51 -49 vvcurveto
        -74 -18 -68 -33 -61 vhcurveto
        -52 106 -32 128 -10 123 rrcurveto
        return
      </CharString>
      <CharString index="12">
        14 13 1 13 hhcurveto
        -68 callgsubr
        return
      </CharString>
</ttFont>
